SplineFontDB: 3.2
FontName: unnecessary Glyph
FullName: unnecessary Glyph
FamilyName: unnecessary
Weight: Book
Copyright: (c) Sean L All Rights Reserved.
Version: 1.000
ItalicAngle: 0
UnderlinePosition: 0
UnderlineWidth: 0
Ascent: 800
Descent: 200
InvalidEm: 0
sfntRevision: 0x00010000
LayerCount: 3
Layer: 0 1 "Back" 1
Layer: 1 1 "Fore" 0
Layer: 2 0 "Back 2" 1
XUID: [1021 366 -394680648 12164]
StyleMap: 0x0040
FSType: 0
OS2Version: 4
OS2_WeightWidthSlopeOnly: 0
OS2_UseTypoMetrics: 0
CreationTime: 1632387255
ModificationTime: 1691614465
PfmFamily: 81
TTFWeight: 400
TTFWidth: 5
LineGap: 0
VLineGap: 0
Panose: 0 0 0 0 0 0 0 0 0 0
OS2TypoAscent: 949
OS2TypoAOffset: 0
OS2TypoDescent: -200
OS2TypoDOffset: 0
OS2TypoLinegap: 0
OS2WinAscent: 991
OS2WinAOffset: 0
OS2WinDescent: 239
OS2WinDOffset: 0
HheadAscent: 949
HheadAOffset: 0
HheadDescent: -200
HheadDOffset: 0
OS2SubXSize: 650
OS2SubYSize: 699
OS2SubXOff: 0
OS2SubYOff: 140
OS2SupXSize: 650
OS2SupYSize: 699
OS2SupXOff: 0
OS2SupYOff: 479
OS2StrikeYSize: 49
OS2StrikeYPos: 258
OS2CapHeight: 700
OS2XHeight: 519
OS2Vendor: 'XXXX'
OS2CodePages: 00000003.00000000
OS2UnicodeRanges: 80000007.00000003.00000000.00000000
Lookup: 258 0 0 "'kern' Horizontal Kerning in Latin lookup 0" { "'kern' Horizontal Kerning in Latin lookup 0 per glyph data 0"  "'kern' Horizontal Kerning in Latin lookup 0 kerning class 1"  } ['kern' ('DFLT' <'dflt' > 'latn' <'dflt' > ) ]
DEI: 91125
KernClass2: 63 86 "'kern' Horizontal Kerning in Latin lookup 0 kerning class 1"
 11 three eight
 6 zcaron
 6 scaron
 9 udieresis
 11 ucircumflex
 6 uacute
 6 ugrave
 6 oslash
 9 odieresis
 6 otilde
 11 ocircumflex
 6 oacute
 6 ograve
 1 B
 10 C Ccedilla
 6 ntilde
 9 idieresis
 11 icircumflex
 6 iacute
 6 igrave
 9 edieresis
 11 ecircumflex
 6 eacute
 6 egrave
 6 Oslash
 9 Idieresis
 11 Icircumflex
 1 F
 1 G
 6 Iacute
 6 Igrave
 1 z
 1 K
 1 x
 3 v w
 1 L
 1 M
 1 u
 1 t
 1 s
 1 P
 1 r
 1 Q
 3 o p
 1 R
 8 S Scaron
 1 T
 3 m n
 3 V W
 1 k
 1 h
 1 X
 1 f
 10 c ccedilla
 1 b

StartChar: .notdef
Encoding: 65536 -1 0
Width: 527
GlyphClass: 1
Flags: W
LayerCount: 3
Fore
SplineSet
477 700 m 1,0,-1
 477 0 l 1,1,-1
 50 0 l 1,2,-1
 50 700 l 1,3,-1
 477 700 l 1,0,-1
263 371 m 1,4,-1
 449 680 l 1,5,-1
 78 680 l 1,6,-1
 263 371 l 1,4,-1
71 650 m 1,7,-1
 71 49 l 1,8,-1
 251 350 l 1,9,-1
 71 650 l 1,7,-1
79 21 m 1,10,-1
 449 21 l 1,11,-1
 264 329 l 1,12,-1
 79 21 l 1,10,-1
457 47 m 1,13,-1
 457 652 l 1,14,-1
 276 350 l 1,15,-1
 457 47 l 1,13,-1
EndSplineSet
Validated: 1
EndChar

StartChar: exclam
Encoding: 33 33 5
Width: 290
GlyphClass: 1
Flags: W
LayerCount: 3
Fore
SplineSet
81 -98 m 5,0,-1
 81 -14 l 5,1,-1
 350 -14 l 5,2,-1
 350 -98 l 5,3,-1
 81 -98 l 5,0,-1
198 -98 m 5,4,-1
 -66 -98 l 5,5,-1
 -66 -14 l 5,6,-1
 198 -14 l 5,7,-1
 198 -98 l 5,4,-1
81 -98 m 5,8,-1
 80 903 l 5,9,-1
 204 903 l 5,10,-1
 198 -98 l 5,11,-1
 81 -98 l 5,8,-1
EndSplineSet
Validated: 5
EndChar

StartChar: numbersign
Encoding: 35 35 6
Width: 765
GlyphClass: 1
Flags: W
LayerCount: 3
Fore
SplineSet
186 291 m 1,0,-1
 240 472 l 1,1,-1
 146 472 l 1,2,-1
 146 559 l 1,3,-1
 266 559 l 1,4,-1
 324 751 l 1,5,-1
 418 751 l 1,6,-1
 361 559 l 1,7,-1
 513 559 l 1,8,-1
 571 751 l 1,9,-1
 664 751 l 1,10,-1
 606 559 l 1,11,-1
 700 559 l 1,12,-1
 700 472 l 1,13,-1
 580 472 l 1,14,-1
 526 291 l 1,15,-1
 620 291 l 1,16,-1
 620 204 l 1,17,-1
 499 204 l 1,18,-1
 438 0 l 1,19,-1
 345 0 l 1,20,-1
 406 204 l 1,21,-1
 252 204 l 1,22,-1
 191 0 l 1,23,-1
 99 0 l 1,24,-1
 159 204 l 1,25,-1
 66 204 l 1,26,-1
 66 291 l 1,27,-1
 186 291 l 1,0,-1
433 291 m 1,28,-1
 487 472 l 1,29,-1
 333 472 l 1,30,-1
 279 291 l 1,31,-1
 433 291 l 1,28,-1
EndSplineSet
Validated: 1
EndChar

StartChar: dollar
Encoding: 36 36 7
Width: 793
GlyphClass: 1
Flags: W
LayerCount: 3
Fore
SplineSet
73 509 m 0,0,1
 73 551 73 551 87.5 582.5 c 128,-1,2
 102 614 102 614 127 635.5 c 128,-1,3
 152 657 152 657 185.5 667.5 c 128,-1,4
 219 678 219 678 258 678 c 2,5,-1
 375 678 l 1,6,-1
 375 751 l 1,7,-1
 433 751 l 1,8,-1
 433 678 l 1,9,-1
 693 678 l 1,10,-1
 693 572 l 1,11,-1
 433 572 l 1,12,-1
 433 425 l 1,13,-1
 535 425 l 2,14,15
 624 425 624 425 673 383.5 c 128,-1,16
 722 342 722 342 722 250 c 0,17,18
 722 215 722 215 711 180 c 0,19,20
 699 149 699 149 676 124 c 0,21,22
 646 95 646 95 611 84 c 128,-1,23
 576 73 576 73 535 73 c 2,24,-1
 433 73 l 1,25,-1
 433 0 l 1,26,-1
 375 0 l 1,27,-1
 375 73 l 1,28,-1
 81 73 l 1,29,-1
 81 181 l 1,30,-1
 375 181 l 1,31,-1
 375 338 l 1,32,-1
 257 338 l 2,33,34
 218 338 218 338 184 350 c 128,-1,35
 150 362 150 362 125.5 384 c 128,-1,36
 101 406 101 406 87 438 c 128,-1,37
 73 470 73 470 73 509 c 0,0,1
535 181 m 2,38,39
 578 181 578 181 600 201 c 0,40,41
 624 226 624 226 622 258 c 0,42,43
 622 300 622 300 599 319 c 128,-1,44
 576 338 576 338 535 338 c 2,45,-1
 433 338 l 1,46,-1
 433 181 l 1,47,-1
 535 181 l 2,38,39
203 444 m 0,48,49
 225 425 225 425 258 425 c 2,50,-1
 375 425 l 1,51,-1
 375 572 l 1,52,-1
 258 572 l 2,53,54
 241 572 241 572 227.5 568 c 128,-1,55
 214 564 214 564 202 552 c 0,56,57
 181 530 181 530 183 499 c 0,58,59
 181 484 181 484 186.5 469.5 c 128,-1,60
 192 455 192 455 203 444 c 0,48,49
EndSplineSet
Validated: 33
EndChar

StartChar: percent
Encoding: 37 37 8
Width: 612
GlyphClass: 1
Flags: W
LayerCount: 3
Fore
SplineSet
547.802734375 122.43359375 m 1,0,-1
 300.55859375 0.671875 l 1,1,-1
 271.020507812 67.9140625 l 1,2,-1
 271.63671875 68.2177734375 l 1,3,-1
 271.450195312 664.47265625 l 1,4,-1
 87.7119140625 573.986328125 l 1,5,-1
 58.173828125 641.228515625 l 1,6,-1
 305.418945312 762.990234375 l 1,7,-1
 334.95703125 695.748046875 l 1,8,-1
 335.143554688 99.494140625 l 1,9,-1
 518.265625 189.676757812 l 1,10,-1
 547.802734375 122.43359375 l 1,0,-1
EndSplineSet
EndChar

StartChar: ampersand
Encoding: 38 38 9
Width: 844
GlyphClass: 1
Flags: W
LayerCount: 3
Fore
SplineSet
192 397 m 1,0,1
 136 414 136 414 112.5 458 c 128,-1,2
 89 502 89 502 89 557 c 0,3,4
 87 601 87 601 106 641 c 0,5,6
 121 673 121 673 145.5 694.5 c 128,-1,7
 170 716 170 716 200.5 728.5 c 128,-1,8
 231 741 231 741 265 746 c 128,-1,9
 299 751 299 751 331 751 c 2,10,-1
 474 751 l 1,11,-1
 474 621 l 1,12,-1
 327 621 l 2,13,14
 221 621 221 621 221 528 c 0,15,16
 218 488 218 488 248 461 c 0,17,18
 275 437 275 437 330 437 c 2,19,-1
 731 437 l 1,20,-1
 731 328 l 1,21,-1
 643 328 l 1,22,-1
 643 131 l 1,23,-1
 778 131 l 1,24,-1
 778 0 l 1,25,-1
 316 0 l 2,26,27
 262 0 262 0 217.5 15.5 c 128,-1,28
 173 31 173 31 141 60.5 c 128,-1,29
 109 90 109 90 91.5 132 c 128,-1,30
 74 174 74 174 74 228 c 0,31,32
 73 257 73 257 81 283.5 c 128,-1,33
 89 310 89 310 104.5 332.5 c 128,-1,34
 120 355 120 355 142.5 371.5 c 128,-1,35
 165 388 165 388 192 397 c 1,0,1
241 157 m 0,36,37
 275 131 275 131 338 131 c 2,38,-1
 511 131 l 1,39,-1
 511 328 l 1,40,-1
 340 328 l 2,41,42
 314 328 314 328 289.5 324.5 c 128,-1,43
 265 321 265 321 246.5 310.5 c 128,-1,44
 228 300 228 300 217 281 c 128,-1,45
 206 262 206 262 206 231 c 0,46,47
 205 210 205 210 214.5 190.5 c 128,-1,48
 224 171 224 171 241 157 c 0,36,37
EndSplineSet
Validated: 33
EndChar

StartChar: parenleft
Encoding: 40 40 10
Width: 458
GlyphClass: 1
Flags: W
LayerCount: 3
Fore
SplineSet
407 858 m 1,0,-1
 407 727 l 1,1,2
 366 727 366 727 330 711.5 c 128,-1,3
 294 696 294 696 267 669 c 128,-1,4
 240 642 240 642 224.5 606 c 128,-1,5
 209 570 209 570 209 529 c 2,6,-1
 209 222 l 2,7,8
 209 181 209 181 224.5 145 c 128,-1,9
 240 109 240 109 267 82 c 128,-1,10
 294 55 294 55 330 39.5 c 128,-1,11
 366 24 366 24 407 24 c 1,12,-1
 407 -107 l 1,13,14
 339 -107 339 -107 279 -81 c 128,-1,15
 219 -55 219 -55 174.5 -10.5 c 128,-1,16
 130 34 130 34 104 94 c 128,-1,17
 78 154 78 154 78 222 c 2,18,-1
 78 529 l 2,19,20
 78 597 78 597 104 657 c 128,-1,21
 130 717 130 717 174.5 761.5 c 128,-1,22
 219 806 219 806 279 832 c 128,-1,23
 339 858 339 858 407 858 c 1,0,-1
EndSplineSet
Validated: 1
EndChar

StartChar: parenright
Encoding: 41 41 11
Width: 458
GlyphClass: 1
Flags: W
LayerCount: 3
Fore
SplineSet
51 24 m 1,0,1
 92 24 92 24 128 39.5 c 128,-1,2
 164 55 164 55 191 82 c 128,-1,3
 218 109 218 109 233.5 145 c 128,-1,4
 249 181 249 181 249 222 c 2,5,-1
 249 529 l 2,6,7
 249 570 249 570 233.5 606 c 128,-1,8
 218 642 218 642 191 669 c 128,-1,9
 164 696 164 696 128 711.5 c 128,-1,10
 92 727 92 727 51 727 c 1,11,-1
 51 858 l 1,12,13
 119 858 119 858 179 832 c 128,-1,14
 239 806 239 806 283.5 761.5 c 128,-1,15
 328 717 328 717 354 657 c 128,-1,16
 380 597 380 597 380 529 c 2,17,-1
 380 222 l 2,18,19
 380 154 380 154 354 94 c 128,-1,20
 328 34 328 34 283.5 -10.5 c 128,-1,21
 239 -55 239 -55 179 -81 c 128,-1,22
 119 -107 119 -107 51 -107 c 1,23,-1
 51 24 l 1,0,1
EndSplineSet
Validated: 1
EndChar

StartChar: asterisk
Encoding: 42 42 12
Width: 306
GlyphClass: 1
Flags: W
LayerCount: 3
Fore
SplineSet
52 627 m 1,0,-1
 52 674 l 1,1,-1
 95 674 l 1,2,-1
 65 705 l 1,3,-1
 98 739 l 1,4,-1
 129 708 l 1,5,-1
 129 751 l 1,6,-1
 176 751 l 1,7,-1
 176 708 l 1,8,-1
 207 739 l 1,9,-1
 240 705 l 1,10,-1
 210 674 l 1,11,-1
 253 674 l 1,12,-1
 253 627 l 1,13,-1
 210 627 l 1,14,-1
 240 596 l 1,15,-1
 207 563 l 1,16,-1
 176 593 l 1,17,-1
 176 550 l 1,18,-1
 129 550 l 1,19,-1
 129 593 l 1,20,-1
 98 563 l 1,21,-1
 65 596 l 1,22,-1
 95 627 l 1,23,-1
 52 627 l 1,0,-1
EndSplineSet
Validated: 1
EndChar

StartChar: plus
Encoding: 43 43 13
Width: 548
GlyphClass: 1
Flags: W
LayerCount: 3
Fore
SplineSet
159.319335938 832.057617188 m 1,0,-1
 196.34375 899.572265625 l 1,1,-1
 424.314453125 774.555664062 l 1,2,-1
 500.59765625 732.723632812 l 1,3,-1
 152.955078125 98.7880859375 l 1,4,-1
 380.926757812 -26.228515625 l 1,5,-1
 343.90234375 -93.7431640625 l 1,6,-1
 115.930664062 31.2734375 l 1,7,-1
 39.6484375 73.1064453125 l 1,8,-1
 387.290039062 707.041015625 l 1,9,-1
 159.319335938 832.057617188 l 1,0,-1
EndSplineSet
EndChar

StartChar: comma
Encoding: 44 44 14
Width: 281
GlyphClass: 1
Flags: W
LayerCount: 3
Fore
SplineSet
225.244140625 91.4560546875 m 1,0,-1
 260.606445312 91.4560546875 l 1,1,-1
 260.606445312 40.0166015625 l 1,2,-1
 260.606445312 -0.1708984375 l 1,3,-1
 260.606445312 -51.611328125 l 1,4,-1
 225.244140625 -51.611328125 l 1,5,-1
 225.244140625 -0.1708984375 l 1,6,-1
 119.15625 -0.1708984375 l 1,7,-1
 80.71875 -0.1708984375 l 1,8,-1
 80.71875 40.0166015625 l 1,9,-1
 80.71875 113.9609375 l 1,10,-1
 31.5185546875 113.9609375 l 1,11,-1
 31.5185546875 150.93359375 l 1,12,-1
 80.71875 150.93359375 l 1,13,-1
 119.15625 150.93359375 l 1,14,-1
 168.356445312 150.93359375 l 1,15,-1
 168.356445312 113.9609375 l 1,16,-1
 119.15625 113.9609375 l 1,17,-1
 119.15625 40.0166015625 l 1,18,-1
 225.244140625 40.0166015625 l 1,19,-1
 225.244140625 91.4560546875 l 1,0,-1
EndSplineSet
Validated: 1
EndChar

StartChar: hyphen
Encoding: 45 45 15
Width: 346
GlyphClass: 1
Flags: W
LayerCount: 3
Fore
SplineSet
52.9150390625 461.719726562 m 5,0,-1
 52.9150390625 506.240234375 l 5,1,-1
 144.370117188 506.240234375 l 5,2,-1
 212.709960938 506.240234375 l 5,3,-1
 302.155273438 506.240234375 l 5,4,-1
 302.155273438 461.719726562 l 5,5,-1
 212.709960938 461.719726562 l 5,6,-1
 212.709960938 326.48046875 l 5,7,-1
 302.155273438 326.48046875 l 5,8,-1
 302.155273438 281.959960938 l 5,9,-1
 212.709960938 281.959960938 l 5,10,-1
 144.370117188 281.959960938 l 5,11,-1
 52.9150390625 281.959960938 l 5,12,-1
 52.9150390625 326.48046875 l 5,13,-1
 144.370117188 326.48046875 l 5,14,-1
 144.370117188 461.719726562 l 5,15,-1
 52.9150390625 461.719726562 l 5,0,-1
EndSplineSet
EndChar

StartChar: period
Encoding: 46 46 16
Width: 290
GlyphClass: 1
Flags: W
LayerCount: 3
Fore
SplineSet
81 -98 m 1,0,-1
 81 -14 l 1025,1,-1
198 -14 m 1,2,-1
 198 -98 l 1025,3,-1
81 -98 m 1,4,-1
 80 903 l 1,5,-1
 204 903 l 1,6,-1
 198 -98 l 1,7,-1
 81 -98 l 1,4,-1
EndSplineSet
Validated: 3
EndChar

StartChar: slash
Encoding: 47 47 17
Width: 531
GlyphClass: 1
Flags: W
LayerCount: 3
Fore
SplineSet
503 751 m 1,0,-1
 154 0 l 1,1,-1
 51 0 l 1,2,-1
 400 751 l 1,3,-1
 503 751 l 1,0,-1
EndSplineSet
Validated: 1
EndChar

StartChar: zero
Encoding: 48 48 18
Width: 918
GlyphClass: 1
Flags: W
LayerCount: 3
Fore
SplineSet
454.115234375 0 m 1,0,-1
 801 270.569335938 l 1,1,-1
 704 340 l 1,2,-1
 453 126.671875 l 1,3,-1
 191 338.971679688 l 1,4,-1
 97 274.3984375 l 1,5,-1
 454.115234375 0 l 1,0,-1
452.115234375 755.000976562 m 1,6,-1
 799 484.431640625 l 1,7,-1
 702 415.000976562 l 1,8,-1
 451 628.329101562 l 1,9,-1
 189 416.029296875 l 1,10,-1
 95 480.602539062 l 1,11,-1
 452.115234375 755.000976562 l 1,6,-1
EndSplineSet
Validated: 9
EndChar

StartChar: one
Encoding: 49 49 19
Width: 474
GlyphClass: 1
Flags: W
LayerCount: 3
Fore
SplineSet
39.400390625 390.400390625 m 1,0,-1
 312.106445312 746.017578125 l 1,1,-1
 375.083984375 694.775390625 l 1,2,-1
 149.829101562 401.237304688 l 1,3,-1
 324.360351562 164.229492188 l 1,4,-1
 324.360351562 370.200195312 l 1,5,-1
 405.48046875 370.200195312 l 1,6,-1
 405.48046875 54.0703125 l 1,7,-1
 405.48046875 2.5595703125 l 1,8,-1
 324.360351562 2.5595703125 l 1,9,-1
 324.360351562 2.9990234375 l 1,10,-1
 39.400390625 390.400390625 l 1,0,-1
EndSplineSet
Validated: 1
EndChar

StartChar: two
Encoding: 50 50 20
Width: 537
GlyphClass: 1
Flags: W
LayerCount: 3
Fore
SplineSet
163.95703125 0.638671875 m 1,0,-1
 488.659179688 0.638671875 l 1,1,-1
 488.659179688 101.551757812 l 1,2,-1
 249.498046875 101.551757812 l 1,3,-1
 435.879882812 333.438476562 l 1,4,-1
 431.657226562 380.674804688 l 1,5,-1
 385.2109375 378.52734375 l 1,6,-1
 165.645507812 141.396484375 l 1,7,-1
 165.645507812 629.73828125 l 24,8,9
 165.645507812 646.19921875 165.645507812 646.19921875 177.78515625 654.4296875 c 0,10,11
 188.869140625 661.9453125 188.869140625 661.9453125 205.7578125 659.797851562 c 24,12,-1
 475.9921875 659.797851562 l 1,13,-1
 475.9921875 743.53515625 l 1,14,-1
 204.702148438 744.071289062 l 0,15,16
 142.141601562 745.662109375 142.141601562 745.662109375 113.12890625 720.05078125 c 0,17,18
 80.1416015625 690.930664062 80.1416015625 690.930664062 76.974609375 629.73828125 c 24,19,-1
 76.974609375 0.638671875 l 1,20,-1
 163.95703125 0.638671875 l 1,0,-1
  Spiro
    163.957 0.638 o
    488.659 0.638 v
    488.659 101.552 v
    249.498 101.552 o
    435.879 333.438 v
    431.657 380.675 v
    385.21 378.528 v
    165.646 141.397 o
    165.646 629.738 v
    177.785 654.43 o
    205.758 659.798 ]
    475.992 659.798 v
    475.992 743.535 v
    204.703 744.071 [
    113.13 720.051 o
    76.9752 629.738 ]
    76.9752 0.638 v
    0 0 z
  EndSpiro
EndSplineSet
Validated: 41
EndChar

StartChar: three
Encoding: 51 51 21
Width: 487
GlyphClass: 1
Flags: W
LayerCount: 3
Fore
SplineSet
179.671875 343.696289062 m 1,0,1
 179.560546875 343.857421875 179.560546875 343.857421875 179.782226562 343.534179688 c 1,2,-1
 433.94921875 343.534179688 l 1,3,-1
 433.94921875 404.810546875 l 1,4,-1
 180.100585938 404.810546875 l 1,5,-1
 180.696289062 405.134765625 l 1,6,7
 286.3125 552.61328125 286.3125 552.61328125 391.862304688 699.62109375 c 1,8,9
 391.862304688 699.62109375 391.862304688 699.62109375 318.680664062 746.758789062 c 1,10,-1
 184.388671875 559.849609375 l 1,11,-1
 50.0947265625 372.938476562 l 1,12,13
 75.080078125 339.704101562 75.080078125 339.704101562 185.522460938 185.508789062 c 2,14,15
 185.522460938 185.508789062 185.522460938 185.508789062 318.680664062 0.15625 c 1,16,-1
 391.862304688 47.29296875 l 1,17,-1
 179.782226562 343.534179688 l 1,18,-1
 179.671875 343.696289062 l 1,0,1
175.571289062 370.827148438 m 1025,19,20
175.701171875 370.903320312 m 1025,21,22
EndSplineSet
Validated: 5
EndChar

StartChar: four
Encoding: 52 52 22
Width: 523
GlyphClass: 1
Flags: W
LayerCount: 3
Fore
SplineSet
298 0 m 1,0,1
 213 566 213 566 352 632 c 0,2,3
 352 632 352 632 183.53125 438.631835938 c 1,4,-1
 113.49609375 498.291015625 l 1,5,-1
 335.469726562 750.955078125 l 1,6,-1
 405.50390625 691.295898438 l 1,7,-1
 374 648 l 0,8,9
 295 466 295 466 354 0 c 1,10,11
 326 0 326 0 298 0 c 1,0,1
115 2 m 1,12,-1
 115 500 l 1,13,-1
 205 500 l 1,14,-1
 205 2 l 1,15,-1
 115 2 l 1,12,-1
EndSplineSet
Validated: 37
EndChar

StartChar: five
Encoding: 53 53 23
Width: 528
GlyphClass: 1
Flags: W
LayerCount: 3
Fore
SplineSet
72.08984375 351.8046875 m 1,0,-1
 387.66015625 528.684570312 l 1,1,-1
 387.66015625 456.325195312 l 1,2,-1
 72.08984375 279.4453125 l 1,3,-1
 72.08984375 351.8046875 l 1,0,-1
72.08984375 564.865234375 m 1,4,-1
 449.969726562 787.974609375 l 1,5,-1
 449.969726562 710.58984375 l 1,6,-1
 72.08984375 487.48046875 l 1,7,-1
 72.08984375 564.865234375 l 1,4,-1
72.08984375 -1.955078125 m 1,8,-1
 72.08984375 564.865234375 l 1,9,-1
 156.509765625 564.865234375 l 1,10,-1
 156.509765625 -1.955078125 l 1,11,-1
 72.08984375 -1.955078125 l 1,8,-1
EndSplineSet
Validated: 5
EndChar

StartChar: six
Encoding: 54 54 24
Width: 563
GlyphClass: 1
Flags: W
LayerCount: 3
Fore
SplineSet
185 613 m 0,0,-1
 185 613 l 1,1,-1
 180 0 l 1,2,-1
 96 0 l 1,3,-1
 96 612 l 0,4,5
 480 956 480 956 494.965820312 597.866210938 c 0,6,7
 494.965820312 597.866210938 494.965820312 597.866210938 180.599609375 0.17578125 c 1,8,-1
 101.696289062 39.140625 l 1,9,-1
 416.0625 636.831054688 l 0,10,11
 436 774 436 774 185 613 c 0,0,-1
EndSplineSet
Validated: 37
EndChar

StartChar: seven
Encoding: 55 55 25
Width: 775
GlyphClass: 1
Flags: W
LayerCount: 3
Fore
SplineSet
559.01953125 718.500976562 m 5,0,-1
 619.521484375 641.295898438 l 29,1,-1
 234.5078125 284.96875 l 5,2,-1
 155.670898438 374.05078125 l 29,3,-1
 559.01953125 718.500976562 l 5,0,-1
155.670898438 3.865234375 m 5,4,-1
 155.670898438 374.05078125 l 5,5,-1
 243.674804688 374.05078125 l 5,6,-1
 243.674804688 3.865234375 l 5,7,-1
 155.670898438 3.865234375 l 5,4,-1
667.190429688 748.194335938 m 5,8,-1
 667.190429688 672.969726562 l 5,9,-1
 102.502929688 672.969726562 l 5,10,-1
 102.502929688 748.194335938 l 5,11,-1
 667.190429688 748.194335938 l 5,8,-1
577.353515625 3.865234375 m 5,12,-1
 577.353515625 748.194335938 l 5,13,-1
 667.190429688 748.194335938 l 5,14,-1
 667.190429688 3.865234375 l 5,15,-1
 577.353515625 3.865234375 l 5,12,-1
EndSplineSet
Validated: 5
EndChar

StartChar: eight
Encoding: 56 56 26
Width: 756
GlyphClass: 1
Flags: W
LayerCount: 3
Fore
SplineSet
490.478515625 334.635742188 m 1,0,1
 380.422851562 225 380.422851562 225 153.642578125 0 c 1,2,3
 153.642578125 0 153.642578125 0 69.5771484375 0 c 1,4,-1
 69.5771484375 665 l 1,5,-1
 69.5771484375 749 l 1,6,-1
 153.642578125 749 l 1,7,-1
 425.387695312 749 l 1,8,-1
 493.8125 749 l 1,9,-1
 706.907226562 749 l 1,10,-1
 706.907226562 665 l 1,11,-1
 493.8125 665 l 1,12,-1
 493.41015625 342.635742188 l 1,13,14
 493.8125 338 493.8125 338 490.478515625 334.635742188 c 1,0,1
424.41015625 367 m 1,15,-1
 425.387695312 665 l 1,16,-1
 153.642578125 665 l 1,17,-1
 153.642578125 90.12890625 l 1,18,-1
 424.41015625 367 l 1,15,-1
425.387695312 368.94140625 m 1,19,-1
 425.448242188 369.091796875 l 1025,20,21
425.448242188 369.091796875 m 1025,22,23
EndSplineSet
Validated: 3
EndChar

StartChar: nine
Encoding: 57 57 27
Width: 909
GlyphClass: 1
Flags: W
LayerCount: 3
Fore
SplineSet
441.187515044 613.645858406 m 1,0,1
 198 487 198 487 190 1 c 1,2,3
 190 1 190 1 76 0 c 1,4,5
 92 740 92 740 622 749.9609375 c 1,6,7
 622 749.9609375 622 749.9609375 714 750 c 1,8,-1
 714 0 l 1,9,-1
 622 0 l 1,10,-1
 622 657.973632812 l 1,11,12
 569 657 569 657 519.110351562 643.44921875 c 1,13,14
 519.110351562 643.44921875 519.110351562 643.44921875 519 0 c 1,15,-1
 441 0 l 1,16,-1
 443 616 l 1,17,18
 441.187515044 613.645858406 441.187515044 613.645858406 441.187515044 613.645858406 c 1,0,1
574 749.997126185 m 1,19,-1
 575 750 l 1,20,21
 574.499749523 750 574.499749523 750 574 749.997126185 c 1,19,-1
EndSplineSet
Validated: 1
EndChar

StartChar: colon
Encoding: 58 58 28
Width: 265
GlyphClass: 1
Flags: W
LayerCount: 3
Fore
SplineSet
131 332 m 256,0,1
 101 332 101 332 82 351 c 0,2,3
 72 361 72 361 66.5 374 c 128,-1,4
 61 387 61 387 62 401 c 0,5,6
 62 433 62 433 82 452.5 c 128,-1,7
 102 472 102 472 134 472 c 0,8,9
 163 472 163 472 183 451 c 128,-1,10
 203 430 203 430 203 401 c 0,11,12
 203 370 203 370 182 351 c 128,-1,13
 161 332 161 332 131 332 c 256,0,1
131 132 m 0,14,15
 161 132 161 132 182 112.5 c 128,-1,16
 203 93 203 93 203 62 c 0,17,18
 203 30 203 30 181.5 11 c 128,-1,19
 160 -8 160 -8 128 -8 c 0,20,21
 99 -8 99 -8 80.5 13 c 128,-1,22
 62 34 62 34 62 62 c 0,23,24
 62 91 62 91 82 111.5 c 128,-1,25
 102 132 102 132 131 132 c 0,14,15
EndSplineSet
Validated: 1
EndChar

StartChar: semicolon
Encoding: 59 59 29
Width: 265
GlyphClass: 1
Flags: W
LayerCount: 3
Fore
SplineSet
132 332 m 0,0,1
 102 332 102 332 82.5 352 c 128,-1,2
 63 372 63 372 63 402 c 0,3,4
 61 431 61 431 83 453 c 0,5,6
 94 464 94 464 107 468 c 128,-1,7
 120 472 120 472 136 472 c 0,8,9
 162 472 162 472 183 453 c 0,10,11
 203 431 203 431 203 402 c 0,12,13
 203 370 203 370 183 351 c 128,-1,14
 163 332 163 332 132 332 c 0,0,1
67 147 m 1,15,-1
 199 147 l 1,16,-1
 148 -122 l 1,17,-1
 67 -122 l 1,18,-1
 67 147 l 1,15,-1
EndSplineSet
Validated: 33
EndChar

StartChar: equal
Encoding: 61 61 30
Width: 360
GlyphClass: 1
Flags: W
LayerCount: 3
Fore
SplineSet
56 430 m 1,0,-1
 56 518 l 1,1,-1
 304 518 l 1,2,-1
 304 430 l 1,3,-1
 56 430 l 1,0,-1
304 334 m 1,4,-1
 304 246 l 1,5,-1
 56 246 l 1,6,-1
 56 334 l 1,7,-1
 304 334 l 1,4,-1
EndSplineSet
Validated: 1
EndChar

StartChar: question
Encoding: 63 63 31
Width: 290
GlyphClass: 1
Flags: W
LayerCount: 3
Fore
SplineSet
91.306640625 822.221679688 m 5,0,-1
 -60.189453125 822.850585938 l 5,1,-1
 -59.8408203125 906.850585938 l 5,2,-1
 209.157226562 905.734375 l 5,3,-1
 209.157226562 905.734375 l 5,4,-1
 356.15625 905.124023438 l 5,5,-1
 355.807617188 821.125 l 5,6,-1
 208.892578125 823.734375 l 5,7,-1
 206.00390625 -93.26171875 l 5,8,-1
 82.0048828125 -94.7470703125 l 5,9,-1
 91.306640625 822.221679688 l 5,0,-1
EndSplineSet
Validated: 5
EndChar

StartChar: at
Encoding: 64 64 32
Width: 902
GlyphClass: 1
Flags: W
LayerCount: 3
Fore
SplineSet
70 367 m 0,0,1
 70 448 70 448 98.5 518 c 128,-1,2
 127 588 127 588 177.5 639.5 c 128,-1,3
 228 691 228 691 297.5 720.5 c 128,-1,4
 367 750 367 750 448 750 c 2,5,-1
 822 750 l 1,6,-1
 822 201 l 1,7,-1
 432 201 l 2,8,9
 402 201 402 201 372.5 214 c 128,-1,10
 343 227 343 227 325 252 c 0,11,12
 315 264 315 264 307.5 277.5 c 128,-1,13
 300 291 300 291 295 306 c 0,14,15
 272 373 272 373 294 440 c 0,16,17
 311 487 311 487 346 515.5 c 128,-1,18
 381 544 381 544 432 544 c 2,19,-1
 634 544 l 1,20,-1
 634 284 l 1,21,-1
 724 284 l 1,22,-1
 724 654 l 1,23,-1
 448 654 l 2,24,25
 405 654 405 654 364.5 643.5 c 128,-1,26
 324 633 324 633 289.5 612.5 c 128,-1,27
 255 592 255 592 228.5 561 c 128,-1,28
 202 530 202 530 187 488 c 0,29,30
 168 433 168 433 168 375 c 128,-1,31
 168 317 168 317 187 262 c 0,32,33
 202 220 202 220 228.5 188.5 c 128,-1,34
 255 157 255 157 289.5 136.5 c 128,-1,35
 324 116 324 116 364.5 105.5 c 128,-1,36
 405 95 405 95 448 95 c 2,37,-1
 822 95 l 1,38,-1
 822 0 l 1,39,-1
 448 0 l 2,40,41
 391 0 391 0 337.5 13.5 c 128,-1,42
 284 27 284 27 238 54.5 c 128,-1,43
 192 82 192 82 156 122.5 c 128,-1,44
 120 163 120 163 98 217 c 0,45,46
 69 290 69 290 70 367 c 0,0,1
372 376 m 1,47,48
 370 339 370 339 395 311 c 0,49,50
 406 297 406 297 421.5 290.5 c 128,-1,51
 437 284 437 284 455 284 c 2,52,-1
 548 284 l 1,53,-1
 548 469 l 1,54,-1
 455 469 l 2,55,56
 437 469 437 469 421.5 463.5 c 128,-1,57
 406 458 406 458 394 444 c 0,58,59
 369 414 369 414 372 376 c 1,47,48
EndSplineSet
Validated: 33
EndChar

StartChar: A
Encoding: 65 65 33
Width: 564
GlyphClass: 1
Flags: W
LayerCount: 3
Fore
SplineSet
46.51953125 -18.09375 m 1025,0,-1
529.673828125 -18.09375 m 1025,1,-1
82.30859375 424.694335938 m 5,2,-1
 82.30859375 677.573242188 l 5,3,-1
 183.711914062 677.573242188 l 5,4,-1
 183.711914062 424.694335938 l 5,5,-1
 82.30859375 424.694335938 l 5,2,-1
182.716796875 281.763671875 m 1,6,-1
 182.716796875 2.896484375 l 1,7,-1
 81.314453125 2.896484375 l 1,8,-1
 81.314453125 281.763671875 l 1,9,-1
 81.314453125 374.717773438 l 1,10,-1
 182.716796875 374.717773438 l 1,11,-1
 394.469726562 374.717773438 l 1,12,-1
 394.469726562 677.573242188 l 1,13,-1
 492.889648438 677.573242188 l 1,14,-1
 492.889648438 374.717773438 l 1,15,-1
 492.889648438 281.763671875 l 1,16,-1
 394.469726562 281.763671875 l 1,17,-1
 182.716796875 281.763671875 l 1,6,-1
EndSplineSet
Validated: 1
EndChar

StartChar: B
Encoding: 66 66 34
Width: 916
GlyphClass: 1
Flags: W
LayerCount: 3
Fore
SplineSet
221 0 m 1029,0,-1
143 738 m 5,1,-1
 221 738 l 5,2,-1
 221 72 l 5,3,-1
 703 72 l 5,4,-1
 703 511 l 5,5,-1
 779 511 l 5,6,-1
 779 72 l 5,7,-1
 779 0 l 5,8,-1
 703 0 l 5,9,-1
 221 0 l 5,10,-1
 143 0 l 5,11,-1
 143 72 l 5,12,-1
 143 738 l 5,1,-1
305 736 m 5,13,-1
 781 736 l 5,14,-1
 781 591 l 5,15,-1
 305 591 l 5,16,-1
 305 736 l 5,13,-1
EndSplineSet
Validated: 1
EndChar

StartChar: C
Encoding: 67 67 35
Width: 744
GlyphClass: 1
Flags: W
LayerCount: 3
Fore
SplineSet
240.599609375 125.669921875 m 1,0,-1
 662.400390625 125.669921875 l 1,1,-1
 662.400390625 30.6103515625 l 1,2,-1
 240.599609375 30.6103515625 l 1,3,-1
 240.599609375 125.669921875 l 1,0,-1
588.299804688 185.809570312 m 1,4,-1
 588.299804688 692.150390625 l 1,5,-1
 660.5 692.150390625 l 1,6,-1
 660.5 185.809570312 l 1,7,-1
 588.299804688 185.809570312 l 1,4,-1
79.099609375 614.549804688 m 1,8,-1
 79.099609375 691.1796875 l 1,9,-1
 158.900390625 691.1796875 l 1,10,-1
 516.099609375 691.1796875 l 1,11,-1
 516.099609375 614.549804688 l 1,12,-1
 158.900390625 614.549804688 l 1,13,-1
 158.900390625 1.509765625 l 1,14,-1
 79.099609375 1.509765625 l 1,15,-1
 79.099609375 614.549804688 l 1,8,-1
EndSplineSet
Validated: 1
EndChar

StartChar: D
Encoding: 68 68 36
Width: 714
GlyphClass: 1
Flags: W
LayerCount: 3
Fore
SplineSet
524.270507812 1.1943359375 m 1,0,-1
 524.270507812 370.017578125 l 1,1,-1
 586.204101562 370.017578125 l 1,2,-1
 586.204101562 1.1943359375 l 1,3,-1
 524.270507812 1.1943359375 l 1,0,-1
157.838867188 115.73046875 m 1,4,-1
 159.859375 602.170898438 l 1,5,-1
 452.012695312 602.170898438 l 1,6,-1
 452.012695312 677.059570312 l 1,7,-1
 160.169921875 677.059570312 l 1,8,-1
 77.5908203125 677.059570312 l 1,9,-1
 77.5908203125 602.170898438 l 1,10,-1
 77.5908203125 -0.677734375 l 1,11,-1
 155.478515625 -0.677734375 l 1,12,-1
 155.489257812 -0.03125 l 1,13,14
 229 51 229 51 458.58203125 311.04296875 c 1,15,-1
 474.534179688 369.337890625 l 1,16,-1
 420.107421875 369.337890625 l 1,17,-1
 157.838867188 115.73046875 l 1,4,-1
EndSplineSet
Validated: 9
EndChar

StartChar: E
Encoding: 69 69 37
Width: 650
GlyphClass: 1
Flags: W
LayerCount: 3
Fore
SplineSet
81.72265625 685.76953125 m 5,0,-1
 136.462890625 685.76953125 l 5,1,-1
 136.462890625 53.330078125 l 5,2,-1
 518.665039062 53.330078125 l 5,3,-1
 518.665039062 305.530273438 l 5,4,-1
 214.662109375 305.530273438 l 5,5,-1
 214.662109375 366.639648438 l 5,6,-1
 518.665039062 366.639648438 l 5,7,-1
 577.315429688 366.639648438 l 5,8,-1
 577.315429688 305.530273438 l 5,9,-1
 577.315429688 53.330078125 l 5,10,-1
 577.315429688 -0.01953125 l 5,11,-1
 518.665039062 -0.01953125 l 5,12,-1
 136.462890625 -0.01953125 l 5,13,-1
 81.72265625 -0.01953125 l 5,14,-1
 81.72265625 53.330078125 l 5,15,-1
 81.72265625 685.76953125 l 5,0,-1
223.459960938 685.76953125 m 5,16,-1
 300.682617188 685.76953125 l 5,17,-1
 300.682617188 448.120117188 l 5,18,-1
 223.459960938 448.120117188 l 5,19,-1
 223.459960938 685.76953125 l 5,16,-1
400.387695312 686.740234375 m 5,20,-1
 477.610351562 686.740234375 l 5,21,-1
 477.610351562 449.08984375 l 5,22,-1
 400.387695312 449.08984375 l 5,23,-1
 400.387695312 686.740234375 l 5,20,-1
EndSplineSet
Validated: 1
EndChar

StartChar: F
Encoding: 70 70 38
Width: 697
GlyphClass: 1
Flags: W
LayerCount: 3
Fore
SplineSet
60.51953125 1.0498046875 m 1,0,-1
 59.580078125 70.98046875 l 1,1,-1
 632.98046875 70.98046875 l 1,2,-1
 633.919921875 1.0498046875 l 1,3,-1
 60.51953125 1.0498046875 l 1,0,-1
77.4404296875 685.23046875 m 1,4,-1
 147.940429688 685.23046875 l 1,5,-1
 147.940429688 132.405273438 l 1,6,-1
 77.4404296875 132.405273438 l 1,7,-1
 77.4404296875 685.23046875 l 1,4,-1
605.719726562 685.23046875 m 1,8,-1
 605.719726562 131.459960938 l 1,9,-1
 525.8203125 131.459960938 l 1,10,-1
 525.8203125 625.6953125 l 1,11,-1
 304.919921875 625.6953125 l 1,12,-1
 304.919921875 685.23046875 l 1,13,-1
 525.8203125 685.23046875 l 1,14,-1
 592.559570312 685.23046875 l 1,15,-1
 605.719726562 685.23046875 l 1,8,-1
EndSplineSet
Validated: 1
EndChar

StartChar: G
Encoding: 71 71 39
Width: 611
GlyphClass: 1
Flags: W
LayerCount: 3
Fore
SplineSet
209.559570312 673.40234375 m 1,0,-1
 289.919921875 673.40234375 l 1,1,-1
 289.919921875 435.397460938 l 1,2,-1
 209.559570312 435.397460938 l 1,3,-1
 209.559570312 673.40234375 l 1,0,-1
158.599609375 75.4873046875 m 1,4,-1
 529.040039062 75.4873046875 l 1,5,-1
 529.040039062 1.95703125 l 1,6,-1
 84.1201171875 1.95703125 l 1,7,-1
 84.1201171875 75.4873046875 l 1,8,-1
 84.1201171875 382.184570312 l 1,9,-1
 158.599609375 382.184570312 l 1,10,-1
 442.799804688 382.184570312 l 1,11,-1
 442.799804688 675.337890625 l 1,12,-1
 523.16015625 675.337890625 l 1,13,-1
 523.16015625 382.184570312 l 1,14,-1
 523.16015625 310.58984375 l 1,15,-1
 158.599609375 310.58984375 l 1,16,-1
 158.599609375 75.4873046875 l 1,4,-1
EndSplineSet
Validated: 1
EndChar

StartChar: H
Encoding: 72 72 40
Width: 483
GlyphClass: 1
Flags: W
LayerCount: 3
Fore
SplineSet
81 244 m 1,0,-1
 279 244 l 1,1,-1
 279 184 l 1,2,-1
 81 184 l 1,3,-1
 81 244 l 1,0,-1
81 132 m 1,4,-1
 281 132 l 1,5,-1
 281 70 l 1,6,-1
 81 70 l 1,7,-1
 81 132 l 1,4,-1
317 292 m 1,8,-1
 73 292 l 1,9,-1
 73 350 l 1,10,-1
 73 654 l 1,11,-1
 133 654 l 1,12,-1
 413 654 l 1,13,-1
 413 590 l 1,14,-1
 133 590 l 1,15,-1
 133 350 l 1,16,-1
 317 350 l 1,17,-1
 399 350 l 1,18,-1
 399 0 l 1,19,-1
 317 0 l 1,20,-1
 317 292 l 1,8,-1
EndSplineSet
Validated: 1
EndChar

StartChar: I
Encoding: 73 73 41
Width: 694
GlyphClass: 1
Flags: W
LayerCount: 3
Fore
SplineSet
64 0 m 1,0,-1
 64 701 l 1,1,-1
 147 701 l 1,2,-1
 147 558 l 1,3,-1
 147.5 701 l 1,4,5
 245.000976562 551.484375 245.000976562 551.484375 337.10546875 410.57421875 c 1,6,7
 379.309570312 640.081054688 379.309570312 640.081054688 627 705 c 1,8,-1
 651 624 l 1,9,10
 433.431640625 568.110351562 433.431640625 568.110351562 389.174804688 330.940429688 c 1,11,12
 501.7578125 158.821289062 501.7578125 158.821289062 606 0 c 1,13,-1
 507 0 l 1,14,-1
 147 558 l 1,15,-1
 147 0 l 1,16,-1
 64 0 l 1,0,-1
240 714 m 1,17,-1
 438 714 l 1,18,-1
 438 651 l 1,19,-1
 240 651 l 1,20,-1
 240 714 l 1,17,-1
EndSplineSet
Validated: 5
EndChar

StartChar: J
Encoding: 74 74 42
Width: 504
GlyphClass: 1
Flags: W
LayerCount: 3
Fore
SplineSet
186.33984375 639.01953125 m 128,-1,1
 186.33984375 665.059570312 186.33984375 665.059570312 203.540039062 683.66015625 c 128,-1,2
 220.740234375 702.259765625 220.740234375 702.259765625 246.110351562 702.259765625 c 0,3,4
 272.33984375 702.259765625 272.33984375 702.259765625 289.540039062 683.66015625 c 128,-1,5
 306.740234375 665.059570312 306.740234375 665.059570312 306.740234375 639.01953125 c 128,-1,6
 306.740234375 612.98046875 306.740234375 612.98046875 289.540039062 594.379882812 c 128,-1,7
 272.33984375 575.780273438 272.33984375 575.780273438 246.969726562 575.780273438 c 0,8,9
 220.740234375 575.780273438 220.740234375 575.780273438 203.540039062 594.379882812 c 128,-1,0
 186.33984375 612.98046875 186.33984375 612.98046875 186.33984375 639.01953125 c 128,-1,1
254.280273438 421.400390625 m 1,10,11
 316.200195312 548.809570312 316.200195312 548.809570312 378.120117188 676.219726562 c 1,12,13
 378.120117188 676.219726562 378.120117188 676.219726562 423.700195312 650.1796875 c 1,14,-1
 293.83984375 372.110351562 l 1,15,-1
 293.83984375 -0.8203125 l 1,16,-1
 211.280273438 -0.8203125 l 1,17,-1
 211.280273438 378.620117188 l 1,18,-1
 53.0400390625 650.1796875 l 1,19,-1
 94.3203125 679.940429688 l 1,20,-1
 254.280273438 421.400390625 l 1,10,11
254.280273438 421.400390625 m 1025,21,-1
EndSplineSet
Validated: 1
EndChar

StartChar: K
Encoding: 75 75 43
Width: 595
GlyphClass: 1
Flags: W
LayerCount: 3
Fore
SplineSet
248.875 1.3173828125 m 1,0,-1
 248.875 563.854492188 l 1,1,-1
 255.213867188 563.854492188 l 1,2,3
 252.041015625 564.07421875 252.041015625 564.07421875 248.875 564.334960938 c 2,4,-1
 127.1796875 518.040039062 l 1,5,-1
 127.1796875 343.063476562 l 1,6,-1
 58.3525390625 343.063476562 l 1,7,-1
 58.3525390625 491.857421875 l 1,8,-1
 58.3525390625 569.614257812 l 1,9,-1
 290.770507812 677.130859375 l 1,10,-1
 547.126953125 565.774414062 l 1,11,-1
 549.123046875 348.823242188 l 1,12,-1
 482.290039062 348.823242188 l 1,13,-1
 480.805664062 510.180664062 l 1,14,-1
 331.666992188 564.334960938 l 2,15,16
 328.423828125 564.07421875 328.423828125 564.07421875 325.186523438 563.854492188 c 1,17,-1
 332.665039062 563.854492188 l 1,18,-1
 332.665039062 1.3173828125 l 1,19,-1
 248.875 1.3173828125 l 1,0,-1
EndSplineSet
Validated: 1
EndChar

StartChar: L
Encoding: 76 76 44
Width: 414
GlyphClass: 1
Flags: W
LayerCount: 3
Fore
SplineSet
237 0 m 1,0,-1
 237 565 l 1,1,-1
 317 565 l 1,2,-1
 317 0 l 1,3,-1
 237 0 l 1,0,-1
172 598.784179688 m 1,4,-1
 172 357 l 1,5,-1
 99 357 l 1,6,-1
 98 628 l 1,7,8
 115 640 115 640 269 758 c 1,9,10
 269 758 269 758 319 714 c 1,11,-1
 172 598.784179688 l 1,4,-1
EndSplineSet
Validated: 1
EndChar

StartChar: M
Encoding: 77 77 45
Width: 466
GlyphClass: 1
Flags: W
LayerCount: 3
Fore
SplineSet
338 684 m 0,0,-1
 336 760 l 0,1,2
 73 686 73 686 88 368 c 24,3,-1
 168 362 l 0,4,5
 177 620 177 620 338 684 c 0,0,-1
295 0 m 1,6,-1
 295 565 l 1,7,-1
 375 565 l 1,8,-1
 375 0 l 1,9,-1
 295 0 l 1,6,-1
EndSplineSet
Validated: 41
EndChar

StartChar: N
Encoding: 78 78 46
Width: 744
GlyphClass: 1
Flags: W
LayerCount: 3
Fore
SplineSet
331 355 m 9,0,-1
 306 309 l 0,1,2
 524 259 524 259 652 97 c 24,3,-1
 673 160 l 0,4,5
 527 339 527 339 331 355 c 9,0,-1
366 572 m 0,6,-1
 406 651 l 0,7,8
 45 548 45 548 63 49 c 0,9,-1
 125 82 l 0,10,11
 138 479 138 479 366 572 c 0,6,-1
EndSplineSet
Validated: 41
EndChar

StartChar: O
Encoding: 79 79 47
Width: 723
GlyphClass: 1
Flags: W
LayerCount: 3
Fore
SplineSet
282.684570312 337.271484375 m 1,0,1
 264.6796875 58.5185546875 264.6796875 58.5185546875 57.650390625 93.53515625 c 1,2,-1
 61.669921875 0.6435546875 l 1,3,4
 380.254882812 -17.3515625 380.254882812 -17.3515625 360.155273438 274.455078125 c 1,5,-1
 544.0703125 275.092773438 l 1,6,-1
 544.0703125 0.15625 l 1,7,-1
 640.549804688 0.15625 l 1,8,-1
 640.549804688 275.426757812 l 1,9,-1
 640.549804688 333.7890625 l 1,10,-1
 640.549804688 380.477539062 l 1,11,-1
 363.169921875 380.477539062 l 1,12,-1
 363.169921875 595.44140625 l 1,13,-1
 646.580078125 595.44140625 l 1,14,-1
 646.580078125 661.583984375 l 1,15,-1
 282.76953125 661.583984375 l 1,16,-1
 282.76953125 647.965820312 l 1,17,-1
 282.76953125 595.44140625 l 1,18,-1
 282.76953125 380.477539062 l 1,19,-1
 282.76953125 344.48828125 l 1,20,-1
 282.76953125 338.65234375 l 1,21,-1
 282.684570312 337.271484375 l 1,0,1
282.8359375 350.291992188 m 1025,22,23
EndSplineSet
Validated: 41
EndChar

StartChar: P
Encoding: 80 80 48
Width: 623
GlyphClass: 1
Flags: W
LayerCount: 3
Fore
SplineSet
88 377 m 1,0,-1
 88 449 l 1025,1,-1
277 377 m 1,2,-1
 172 377 l 1,3,-1
 172 376 l 1,4,-1
 88 376 l 1,5,-1
 88 377 l 1,6,-1
 88 449 l 1,7,-1
 88 666 l 1,8,-1
 172 666 l 1,9,-1
 172 449 l 1,10,-1
 277 449 l 1,11,-1
 357 449 l 1,12,-1
 462 449 l 1,13,-1
 462 667 l 1,14,-1
 546 667 l 1,15,-1
 546 449 l 1,16,-1
 546 377 l 1,17,-1
 462 377 l 1,18,-1
 357 377 l 1,19,-1
 357 0 l 1,20,-1
 277 0 l 1,21,-1
 277 377 l 1,2,-1
EndSplineSet
Validated: 3
EndChar

StartChar: Q
Encoding: 81 81 49
Width: 526
GlyphClass: 1
Flags: W
LayerCount: 3
Fore
SplineSet
319 246 m 1,0,-1
 75 246 l 1,1,-1
 75 310 l 1,2,-1
 75 662 l 1,3,-1
 134 662 l 1,4,-1
 135 662 l 1,5,-1
 392 662 l 1,6,-1
 392 598 l 1,7,-1
 392 525 l 1,8,-1
 448 525 l 1,9,-1
 448 478 l 1,10,-1
 276 478 l 1,11,-1
 276 525 l 1,12,-1
 333 525 l 1,13,-1
 333 598 l 1,14,-1
 135 598 l 1,15,-1
 135 310 l 1,16,-1
 319 310 l 1,17,-1
 401 310 l 1,18,-1
 401 1 l 1,19,-1
 319 1 l 1,20,-1
 319 246 l 1,0,-1
EndSplineSet
Validated: 1
EndChar

StartChar: R
Encoding: 82 82 50
Width: 512
GlyphClass: 1
Flags: W
LayerCount: 3
Fore
SplineSet
57 593 m 1,0,-1
 57 659 l 1,1,-1
 299 657 l 1,2,-1
 299 591 l 1,3,-1
 57 593 l 1,0,-1
355 297 m 1,4,-1
 211 297 l 1,5,-1
 211 187 l 1,6,-1
 141 187 l 1,7,-1
 141 297 l 1,8,-1
 141 373 l 1,9,-1
 141 591 l 1,10,-1
 211 591 l 1,11,-1
 211 373 l 1,12,-1
 427 373 l 1,13,-1
 427 297 l 1,14,-1
 427 0 l 1,15,-1
 355 0 l 1,16,-1
 355 297 l 1,4,-1
EndSplineSet
Validated: 1
EndChar

StartChar: S
Encoding: 83 83 51
Width: 786
GlyphClass: 1
Flags: W
LayerCount: 3
Fore
SplineSet
381 -2 m 1,0,-1
 381 67 l 1,1,-1
 518 67.78515625 l 1,2,-1
 518 605 l 1,3,-1
 233 605 l 1,4,-1
 233 434 l 1,5,-1
 319 434 l 1,6,-1
 319 361 l 1,7,-1
 233 361 l 1,8,-1
 152 361 l 1,9,-1
 66 361 l 1,10,-1
 66 434 l 1,11,-1
 152 434 l 1,12,-1
 152 605 l 1,13,-1
 152 683 l 1,14,-1
 233 683 l 1,15,-1
 518 683 l 1,16,-1
 593 683 l 1,17,-1
 593 605 l 1,18,-1
 593 68.21484375 l 1,19,-1
 730 69 l 1,20,-1
 730 0 l 1,21,-1
 381 -2 l 1,0,-1
EndSplineSet
Validated: 1
EndChar

StartChar: T
Encoding: 84 84 52
Width: 663
GlyphClass: 1
Flags: W
LayerCount: 3
Fore
SplineSet
294 673 m 1,0,-1
 294 748 l 1,1,-1
 607 748 l 1,2,-1
 607 673 l 1,3,-1
 294 673 l 1,0,-1
294 515 m 1,4,-1
 294 723 l 1,5,-1
 357 723 l 1,6,-1
 357 515 l 1,7,-1
 294 515 l 1,4,-1
71 352 m 1,8,-1
 401 352 l 1,9,-1
 401 280 l 1,10,-1
 71 280 l 1,11,-1
 71 352 l 1,8,-1
71 564 m 1,12,-1
 487 564 l 1,13,-1
 487 487 l 1,14,-1
 71 487 l 1,15,-1
 71 564 l 1,12,-1
71 0 m 1,16,-1
 71 564 l 1,17,-1
 155 564 l 1,18,-1
 155 0 l 1,19,-1
 71 0 l 1,16,-1
EndSplineSet
Validated: 5
EndChar

StartChar: U
Encoding: 85 85 53
Width: 809
GlyphClass: 1
Flags: W
LayerCount: 3
Fore
SplineSet
76.2001953125 0.2451171875 m 1,0,-1
 76.2001953125 333.7421875 l 1,1,-1
 149 333.7421875 l 1,2,-1
 161.48046875 333.7421875 l 1,3,-1
 371.559570312 334.775390625 l 1,4,-1
 371.559570312 592.900390625 l 1,5,-1
 72.0400390625 591.8671875 l 1,6,-1
 72.0400390625 675.5 l 1,7,-1
 361.16015625 675.5 l 1,8,-1
 475.559570312 675.5 l 1,9,-1
 475.559570312 591.8671875 l 1,10,-1
 475.559570312 333.7421875 l 1,11,-1
 652.360351562 333.7421875 l 1,12,-1
 664.83984375 333.7421875 l 1,13,-1
 737.639648438 333.7421875 l 1,14,-1
 737.639648438 0.2451171875 l 1,15,-1
 652.360351562 0.2451171875 l 1,16,-1
 652.360351562 252.174804688 l 1,17,-1
 161.48046875 252.174804688 l 1,18,-1
 161.48046875 0.2451171875 l 1,19,-1
 76.2001953125 0.2451171875 l 1,0,-1
EndSplineSet
Validated: 1
EndChar

StartChar: V
Encoding: 86 86 54
Width: 882
GlyphClass: 1
Flags: W
LayerCount: 3
Fore
SplineSet
55.96484375 395.799804688 m 17,0,-1
 55.96484375 309.48046875 l 1,1,-1
 167.615234375 309.48046875 l 1,2,-1
 167.615234375 79.6396484375 l 1,3,-1
 167.615234375 2.6796875 l 1,4,-1
 730.940429688 0.599609375 l 1,5,-1
 808.080078125 0.599609375 l 1,6,-1
 808.080078125 458.200195312 l 1,7,-1
 808.080078125 533.080078125 l 1,8,-1
 730.940429688 533.080078125 l 1,9,-1
 540.120117188 533.080078125 l 1,10,-1
 540.120117188 681.135742188 l 1,11,-1
 459.934570312 681.135742188 l 1,12,-1
 459.934570312 458.200195312 l 1,13,-1
 540.120117188 458.200195312 l 1,14,-1
 730.940429688 458.200195312 l 1,15,-1
 730.940429688 77.5595703125 l 1,16,-1
 243.740234375 79.373046875 l 1,17,-1
 243.740234375 309.48046875 l 1,18,-1
 358.434570312 309.48046875 l 1,19,-1
 358.434570312 395.799804688 l 1,20,-1
 55.96484375 395.799804688 l 17,0,-1
EndSplineSet
Validated: 9
EndChar

StartChar: W
Encoding: 87 87 55
Width: 384
GlyphClass: 1
Flags: W
LayerCount: 3
Fore
SplineSet
99 84 m 0,0,-1
 99 22 l 0,1,2
 341 91 341 91 326 407 c 24,3,-1
 269 406 l 0,4,5
 260 148 260 148 99 84 c 0,0,-1
146 662 m 1,6,-1
 144 263 l 1,7,-1
 70 263 l 1,8,-1
 72 662 l 1,9,-1
 146 662 l 1,6,-1
EndSplineSet
Validated: 41
EndChar

StartChar: X
Encoding: 88 88 56
Width: 545
GlyphClass: 1
Flags: W
LayerCount: 3
Fore
SplineSet
58 0 m 1,0,-1
 58 65 l 1,1,-1
 406 65 l 1,2,-1
 406 482 l 1,3,-1
 156.936523438 482 l 1,4,-1
 156 326 l 1,5,-1
 84 326 l 1,6,-1
 86 659 l 1,7,-1
 158 659 l 1,8,-1
 157.338867188 549 l 1,9,-1
 406 549 l 1,10,-1
 406 660 l 1,11,-1
 478 660 l 1,12,-1
 478 65 l 1,13,-1
 478 0 l 1,14,-1
 406 0 l 1,15,-1
 58 0 l 1,0,-1
EndSplineSet
Validated: 1
EndChar

StartChar: Y
Encoding: 89 89 57
Width: 559
GlyphClass: 1
Flags: W
LayerCount: 3
Fore
SplineSet
450 0 m 1025,0,-1
370.373046875 0 m 1025,1,2
159 0 m 1,3,-1
 76 0 l 1,4,-1
 76 357 l 1,5,-1
 76 430 l 1,6,-1
 76 590 l 1,7,-1
 76 670 l 1,8,-1
 164 670 l 1,9,-1
 491 670 l 1,10,-1
 490 584 l 1,11,-1
 162.668945312 584 l 1,12,-1
 162.50390625 430 l 1,13,-1
 416 430 l 1,14,-1
 416 357 l 1,15,-1
 208.569335938 357 l 1,16,-1
 450 0 l 1,17,-1
 370.373046875 0 l 1,18,-1
 161.3828125 292.450195312 l 1,19,-1
 159 0 l 1,3,-1
EndSplineSet
Validated: 1
EndChar

StartChar: Z
Encoding: 90 90 58
Width: 543
GlyphClass: 1
Flags: W
LayerCount: 3
Fore
SplineSet
350 266 m 1,0,-1
 432 266 l 1,1,-1
 432 191 l 1,2,-1
 432 0 l 1,3,-1
 350 0 l 1,4,-1
 350 191 l 1,5,-1
 156 191 l 1,6,-1
 136 191 l 1,7,-1
 74 191 l 1,8,-1
 74 408 l 1,9,-1
 74 479 l 1,10,-1
 74 483 l 1,11,-1
 368 483 l 1,12,-1
 368 608 l 1,13,-1
 76 608 l 1,14,-1
 76 681 l 1,15,-1
 450 681 l 1,16,-1
 450 669 l 1,17,-1
 450 608 l 1,18,-1
 450 483 l 1,19,-1
 450 431 l 1,20,-1
 450 408 l 1,21,-1
 156 408 l 1,22,-1
 156 266 l 1,23,-1
 350 266 l 1,0,-1
EndSplineSet
Validated: 1
EndChar

StartChar: bracketleft
Encoding: 91 91 59
Width: 460
GlyphClass: 1
Flags: W
LayerCount: 3
Fore
SplineSet
409 858 m 1,0,-1
 409 727 l 1,1,-1
 211 727 l 1,2,-1
 211 24 l 1,3,-1
 409 24 l 1,4,-1
 409 -107 l 1,5,-1
 80 -107 l 1,6,-1
 80 858 l 1,7,-1
 409 858 l 1,0,-1
EndSplineSet
Validated: 1
EndChar

StartChar: backslash
Encoding: 92 92 60
Width: 531
GlyphClass: 1
Flags: W
LayerCount: 3
Fore
SplineSet
479 0 m 1,0,-1
 376 0 l 1,1,-1
 27 751 l 1,2,-1
 130 751 l 1,3,-1
 479 0 l 1,0,-1
EndSplineSet
Validated: 1
EndChar

StartChar: bracketright
Encoding: 93 93 61
Width: 460
GlyphClass: 1
Flags: W
LayerCount: 3
Fore
SplineSet
51 727 m 1,0,-1
 51 858 l 1,1,-1
 380 858 l 1,2,-1
 380 -107 l 1,3,-1
 51 -107 l 1,4,-1
 51 24 l 1,5,-1
 249 24 l 1,6,-1
 249 727 l 1,7,-1
 51 727 l 1,0,-1
EndSplineSet
Validated: 1
EndChar

StartChar: underscore
Encoding: 95 95 62
Width: 248
GlyphClass: 1
Flags: W
LayerCount: 3
Fore
SplineSet
0 -88 m 1,0,-1
 0 0 l 1,1,-1
 248 0 l 1,2,-1
 248 -88 l 1,3,-1
 0 -88 l 1,0,-1
EndSplineSet
Validated: 1
EndChar

StartChar: a
Encoding: 97 97 63
Width: 564
GlyphClass: 1
Flags: W
LayerCount: 3
Fore
SplineSet
46.51953125 -18.09375 m 1025,0,-1
529.673828125 -18.09375 m 1025,1,-1
82.30859375 424.694335938 m 5,2,-1
 82.30859375 677.573242188 l 5,3,-1
 183.711914062 677.573242188 l 5,4,-1
 183.711914062 424.694335938 l 5,5,-1
 82.30859375 424.694335938 l 5,2,-1
182.716796875 281.763671875 m 1,6,-1
 182.716796875 2.896484375 l 1,7,-1
 81.314453125 2.896484375 l 1,8,-1
 81.314453125 281.763671875 l 1,9,-1
 81.314453125 374.717773438 l 1,10,-1
 182.716796875 374.717773438 l 1,11,-1
 394.469726562 374.717773438 l 1,12,-1
 394.469726562 677.573242188 l 1,13,-1
 492.889648438 677.573242188 l 1,14,-1
 492.889648438 374.717773438 l 1,15,-1
 492.889648438 281.763671875 l 1,16,-1
 394.469726562 281.763671875 l 1,17,-1
 182.716796875 281.763671875 l 1,6,-1
EndSplineSet
Validated: 1
EndChar

StartChar: b
Encoding: 98 98 64
Width: 916
GlyphClass: 1
Flags: W
LayerCount: 3
Fore
SplineSet
221 0 m 1029,0,-1
143 738 m 5,1,-1
 221 738 l 5,2,-1
 221 72 l 5,3,-1
 703 72 l 5,4,-1
 703 511 l 5,5,-1
 779 511 l 5,6,-1
 779 72 l 5,7,-1
 779 0 l 5,8,-1
 703 0 l 5,9,-1
 221 0 l 5,10,-1
 143 0 l 5,11,-1
 143 72 l 5,12,-1
 143 738 l 5,1,-1
305 736 m 5,13,-1
 781 736 l 5,14,-1
 781 591 l 5,15,-1
 305 591 l 5,16,-1
 305 736 l 5,13,-1
EndSplineSet
Validated: 1
EndChar

StartChar: c
Encoding: 99 99 65
Width: 744
GlyphClass: 1
Flags: W
LayerCount: 3
Fore
SplineSet
240.599609375 125.669921875 m 1,0,-1
 662.400390625 125.669921875 l 1,1,-1
 662.400390625 30.6103515625 l 1,2,-1
 240.599609375 30.6103515625 l 1,3,-1
 240.599609375 125.669921875 l 1,0,-1
588.299804688 185.809570312 m 1,4,-1
 588.299804688 692.150390625 l 1,5,-1
 660.5 692.150390625 l 1,6,-1
 660.5 185.809570312 l 1,7,-1
 588.299804688 185.809570312 l 1,4,-1
79.099609375 614.549804688 m 1,8,-1
 79.099609375 691.1796875 l 1,9,-1
 158.900390625 691.1796875 l 1,10,-1
 516.099609375 691.1796875 l 1,11,-1
 516.099609375 614.549804688 l 1,12,-1
 158.900390625 614.549804688 l 1,13,-1
 158.900390625 1.509765625 l 1,14,-1
 79.099609375 1.509765625 l 1,15,-1
 79.099609375 614.549804688 l 1,8,-1
EndSplineSet
Validated: 1
EndChar

StartChar: d
Encoding: 100 100 66
Width: 714
GlyphClass: 1
Flags: W
LayerCount: 3
Fore
SplineSet
524.270507812 1.1943359375 m 1,0,-1
 524.270507812 370.017578125 l 1,1,-1
 586.204101562 370.017578125 l 1,2,-1
 586.204101562 1.1943359375 l 1,3,-1
 524.270507812 1.1943359375 l 1,0,-1
157.838867188 115.73046875 m 1,4,-1
 159.859375 602.170898438 l 1,5,-1
 452.012695312 602.170898438 l 1,6,-1
 452.012695312 677.059570312 l 1,7,-1
 160.169921875 677.059570312 l 1,8,-1
 77.5908203125 677.059570312 l 1,9,-1
 77.5908203125 602.170898438 l 1,10,-1
 77.5908203125 -0.677734375 l 1,11,-1
 155.478515625 -0.677734375 l 1,12,-1
 155.489257812 -0.03125 l 1,13,14
 229 51 229 51 458.58203125 311.04296875 c 1,15,-1
 474.534179688 369.337890625 l 1,16,-1
 420.107421875 369.337890625 l 1,17,-1
 157.838867188 115.73046875 l 1,4,-1
EndSplineSet
Validated: 9
EndChar

StartChar: e
Encoding: 101 101 67
Width: 650
GlyphClass: 1
Flags: W
LayerCount: 3
Fore
SplineSet
81.72265625 685.76953125 m 5,0,-1
 136.462890625 685.76953125 l 5,1,-1
 136.462890625 53.330078125 l 5,2,-1
 518.665039062 53.330078125 l 5,3,-1
 518.665039062 305.530273438 l 5,4,-1
 214.662109375 305.530273438 l 5,5,-1
 214.662109375 366.639648438 l 5,6,-1
 518.665039062 366.639648438 l 5,7,-1
 577.315429688 366.639648438 l 5,8,-1
 577.315429688 305.530273438 l 5,9,-1
 577.315429688 53.330078125 l 5,10,-1
 577.315429688 -0.01953125 l 5,11,-1
 518.665039062 -0.01953125 l 5,12,-1
 136.462890625 -0.01953125 l 5,13,-1
 81.72265625 -0.01953125 l 5,14,-1
 81.72265625 53.330078125 l 5,15,-1
 81.72265625 685.76953125 l 5,0,-1
223.459960938 685.76953125 m 5,16,-1
 300.682617188 685.76953125 l 5,17,-1
 300.682617188 448.120117188 l 5,18,-1
 223.459960938 448.120117188 l 5,19,-1
 223.459960938 685.76953125 l 5,16,-1
400.387695312 686.740234375 m 5,20,-1
 477.610351562 686.740234375 l 5,21,-1
 477.610351562 449.08984375 l 5,22,-1
 400.387695312 449.08984375 l 5,23,-1
 400.387695312 686.740234375 l 5,20,-1
EndSplineSet
Validated: 1
EndChar

StartChar: f
Encoding: 102 102 68
Width: 697
GlyphClass: 1
Flags: W
LayerCount: 3
Fore
SplineSet
60.51953125 1.0498046875 m 1,0,-1
 59.580078125 70.98046875 l 1,1,-1
 632.98046875 70.98046875 l 1,2,-1
 633.919921875 1.0498046875 l 1,3,-1
 60.51953125 1.0498046875 l 1,0,-1
77.4404296875 685.23046875 m 1,4,-1
 147.940429688 685.23046875 l 1,5,-1
 147.940429688 132.405273438 l 1,6,-1
 77.4404296875 132.405273438 l 1,7,-1
 77.4404296875 685.23046875 l 1,4,-1
605.719726562 685.23046875 m 1,8,-1
 605.719726562 131.459960938 l 1,9,-1
 525.8203125 131.459960938 l 1,10,-1
 525.8203125 625.6953125 l 1,11,-1
 304.919921875 625.6953125 l 1,12,-1
 304.919921875 685.23046875 l 1,13,-1
 525.8203125 685.23046875 l 1,14,-1
 592.559570312 685.23046875 l 1,15,-1
 605.719726562 685.23046875 l 1,8,-1
EndSplineSet
Validated: 1
EndChar

StartChar: g
Encoding: 103 103 69
Width: 611
GlyphClass: 1
Flags: W
LayerCount: 3
Fore
SplineSet
209.559570312 673.40234375 m 1,0,-1
 289.919921875 673.40234375 l 1,1,-1
 289.919921875 435.397460938 l 1,2,-1
 209.559570312 435.397460938 l 1,3,-1
 209.559570312 673.40234375 l 1,0,-1
158.599609375 75.4873046875 m 1,4,-1
 529.040039062 75.4873046875 l 1,5,-1
 529.040039062 1.95703125 l 1,6,-1
 84.1201171875 1.95703125 l 1,7,-1
 84.1201171875 75.4873046875 l 1,8,-1
 84.1201171875 382.184570312 l 1,9,-1
 158.599609375 382.184570312 l 1,10,-1
 442.799804688 382.184570312 l 1,11,-1
 442.799804688 675.337890625 l 1,12,-1
 523.16015625 675.337890625 l 1,13,-1
 523.16015625 382.184570312 l 1,14,-1
 523.16015625 310.58984375 l 1,15,-1
 158.599609375 310.58984375 l 1,16,-1
 158.599609375 75.4873046875 l 1,4,-1
EndSplineSet
Validated: 1
EndChar

StartChar: h
Encoding: 104 104 70
Width: 483
GlyphClass: 1
Flags: W
LayerCount: 3
Fore
SplineSet
81 244 m 1,0,-1
 279 244 l 1,1,-1
 279 184 l 1,2,-1
 81 184 l 1,3,-1
 81 244 l 1,0,-1
81 132 m 1,4,-1
 281 132 l 1,5,-1
 281 70 l 1,6,-1
 81 70 l 1,7,-1
 81 132 l 1,4,-1
317 292 m 1,8,-1
 73 292 l 1,9,-1
 73 350 l 1,10,-1
 73 654 l 1,11,-1
 133 654 l 1,12,-1
 413 654 l 1,13,-1
 413 590 l 1,14,-1
 133 590 l 1,15,-1
 133 350 l 1,16,-1
 317 350 l 1,17,-1
 399 350 l 1,18,-1
 399 0 l 1,19,-1
 317 0 l 1,20,-1
 317 292 l 1,8,-1
EndSplineSet
Validated: 1
EndChar

StartChar: i
Encoding: 105 105 71
Width: 694
GlyphClass: 1
Flags: W
LayerCount: 3
Fore
SplineSet
64 0 m 1,0,-1
 64 701 l 1,1,-1
 147 701 l 1,2,-1
 147 558 l 1,3,-1
 147.5 701 l 1,4,5
 245.000976562 551.484375 245.000976562 551.484375 337.10546875 410.57421875 c 1,6,7
 379.309570312 640.081054688 379.309570312 640.081054688 627 705 c 1,8,-1
 651 624 l 1,9,10
 433.431640625 568.110351562 433.431640625 568.110351562 389.174804688 330.940429688 c 1,11,12
 501.7578125 158.821289062 501.7578125 158.821289062 606 0 c 1,13,-1
 507 0 l 1,14,-1
 147 558 l 1,15,-1
 147 0 l 1,16,-1
 64 0 l 1,0,-1
240 714 m 1,17,-1
 438 714 l 1,18,-1
 438 651 l 1,19,-1
 240 651 l 1,20,-1
 240 714 l 1,17,-1
EndSplineSet
Validated: 5
EndChar

StartChar: j
Encoding: 106 106 72
Width: 504
GlyphClass: 1
Flags: W
LayerCount: 3
Fore
SplineSet
186.33984375 639.01953125 m 128,-1,1
 186.33984375 665.059570312 186.33984375 665.059570312 203.540039062 683.66015625 c 128,-1,2
 220.740234375 702.259765625 220.740234375 702.259765625 246.110351562 702.259765625 c 0,3,4
 272.33984375 702.259765625 272.33984375 702.259765625 289.540039062 683.66015625 c 128,-1,5
 306.740234375 665.059570312 306.740234375 665.059570312 306.740234375 639.01953125 c 128,-1,6
 306.740234375 612.98046875 306.740234375 612.98046875 289.540039062 594.379882812 c 128,-1,7
 272.33984375 575.780273438 272.33984375 575.780273438 246.969726562 575.780273438 c 0,8,9
 220.740234375 575.780273438 220.740234375 575.780273438 203.540039062 594.379882812 c 128,-1,0
 186.33984375 612.98046875 186.33984375 612.98046875 186.33984375 639.01953125 c 128,-1,1
254.280273438 421.400390625 m 1,10,11
 316.200195312 548.809570312 316.200195312 548.809570312 378.120117188 676.219726562 c 1,12,13
 378.120117188 676.219726562 378.120117188 676.219726562 423.700195312 650.1796875 c 1,14,-1
 293.83984375 372.110351562 l 1,15,-1
 293.83984375 -0.8203125 l 1,16,-1
 211.280273438 -0.8203125 l 1,17,-1
 211.280273438 378.620117188 l 1,18,-1
 53.0400390625 650.1796875 l 1,19,-1
 94.3203125 679.940429688 l 1,20,-1
 254.280273438 421.400390625 l 1,10,11
254.280273438 421.400390625 m 1025,21,-1
EndSplineSet
Validated: 1
EndChar

StartChar: k
Encoding: 107 107 73
Width: 595
GlyphClass: 1
Flags: W
LayerCount: 3
Fore
SplineSet
248.875 1.3173828125 m 1,0,-1
 248.875 563.854492188 l 1,1,-1
 255.213867188 563.854492188 l 1,2,3
 252.041015625 564.07421875 252.041015625 564.07421875 248.875 564.334960938 c 2,4,-1
 127.1796875 518.040039062 l 1,5,-1
 127.1796875 343.063476562 l 1,6,-1
 58.3525390625 343.063476562 l 1,7,-1
 58.3525390625 491.857421875 l 1,8,-1
 58.3525390625 569.614257812 l 1,9,-1
 290.770507812 677.130859375 l 1,10,-1
 547.126953125 565.774414062 l 1,11,-1
 549.123046875 348.823242188 l 1,12,-1
 482.290039062 348.823242188 l 1,13,-1
 480.805664062 510.180664062 l 1,14,-1
 331.666992188 564.334960938 l 2,15,16
 328.423828125 564.07421875 328.423828125 564.07421875 325.186523438 563.854492188 c 1,17,-1
 332.665039062 563.854492188 l 1,18,-1
 332.665039062 1.3173828125 l 1,19,-1
 248.875 1.3173828125 l 1,0,-1
EndSplineSet
Validated: 1
EndChar

StartChar: l
Encoding: 108 108 74
Width: 414
GlyphClass: 1
Flags: W
LayerCount: 3
Fore
SplineSet
237 0 m 1,0,-1
 237 565 l 1,1,-1
 317 565 l 1,2,-1
 317 0 l 1,3,-1
 237 0 l 1,0,-1
172 598.784179688 m 1,4,-1
 172 357 l 1,5,-1
 99 357 l 1,6,-1
 98 628 l 1,7,8
 115 640 115 640 269 758 c 1,9,10
 269 758 269 758 319 714 c 1,11,-1
 172 598.784179688 l 1,4,-1
EndSplineSet
Validated: 1
EndChar

StartChar: m
Encoding: 109 109 75
Width: 466
GlyphClass: 1
Flags: W
LayerCount: 3
Fore
SplineSet
338 684 m 0,0,-1
 336 760 l 0,1,2
 73 686 73 686 88 368 c 24,3,-1
 168 362 l 0,4,5
 177 620 177 620 338 684 c 0,0,-1
295 0 m 1,6,-1
 295 565 l 1,7,-1
 375 565 l 1,8,-1
 375 0 l 1,9,-1
 295 0 l 1,6,-1
EndSplineSet
Validated: 41
EndChar

StartChar: n
Encoding: 110 110 76
Width: 744
GlyphClass: 1
Flags: W
LayerCount: 3
Fore
SplineSet
331 355 m 9,0,-1
 306 309 l 0,1,2
 524 259 524 259 652 97 c 24,3,-1
 673 160 l 0,4,5
 527 339 527 339 331 355 c 9,0,-1
366 572 m 0,6,-1
 406 651 l 0,7,8
 45 548 45 548 63 49 c 0,9,-1
 125 82 l 0,10,11
 138 479 138 479 366 572 c 0,6,-1
EndSplineSet
Validated: 41
EndChar

StartChar: o
Encoding: 111 111 77
Width: 723
GlyphClass: 1
Flags: W
LayerCount: 3
Fore
SplineSet
282.684570312 337.271484375 m 1,0,1
 264.6796875 58.5185546875 264.6796875 58.5185546875 57.650390625 93.53515625 c 1,2,-1
 61.669921875 0.6435546875 l 1,3,4
 380.254882812 -17.3515625 380.254882812 -17.3515625 360.155273438 274.455078125 c 1,5,-1
 544.0703125 275.092773438 l 1,6,-1
 544.0703125 0.15625 l 1,7,-1
 640.549804688 0.15625 l 1,8,-1
 640.549804688 275.426757812 l 1,9,-1
 640.549804688 333.7890625 l 1,10,-1
 640.549804688 380.477539062 l 1,11,-1
 363.169921875 380.477539062 l 1,12,-1
 363.169921875 595.44140625 l 1,13,-1
 646.580078125 595.44140625 l 1,14,-1
 646.580078125 661.583984375 l 1,15,-1
 282.76953125 661.583984375 l 1,16,-1
 282.76953125 647.965820312 l 1,17,-1
 282.76953125 595.44140625 l 1,18,-1
 282.76953125 380.477539062 l 1,19,-1
 282.76953125 344.48828125 l 1,20,-1
 282.76953125 338.65234375 l 1,21,-1
 282.684570312 337.271484375 l 1,0,1
282.8359375 350.291992188 m 1025,22,23
EndSplineSet
Validated: 41
EndChar

StartChar: p
Encoding: 112 112 78
Width: 623
GlyphClass: 1
Flags: W
LayerCount: 3
Fore
SplineSet
88 377 m 1,0,-1
 88 449 l 1025,1,-1
277 377 m 1,2,-1
 172 377 l 1,3,-1
 172 376 l 1,4,-1
 88 376 l 1,5,-1
 88 377 l 1,6,-1
 88 449 l 1,7,-1
 88 666 l 1,8,-1
 172 666 l 1,9,-1
 172 449 l 1,10,-1
 277 449 l 1,11,-1
 357 449 l 1,12,-1
 462 449 l 1,13,-1
 462 667 l 1,14,-1
 546 667 l 1,15,-1
 546 449 l 1,16,-1
 546 377 l 1,17,-1
 462 377 l 1,18,-1
 357 377 l 1,19,-1
 357 0 l 1,20,-1
 277 0 l 1,21,-1
 277 377 l 1,2,-1
EndSplineSet
Validated: 3
EndChar

StartChar: q
Encoding: 113 113 79
Width: 526
GlyphClass: 1
Flags: W
LayerCount: 3
Fore
SplineSet
319 246 m 1,0,-1
 75 246 l 1,1,-1
 75 310 l 1,2,-1
 75 662 l 1,3,-1
 134 662 l 1,4,-1
 135 662 l 1,5,-1
 392 662 l 1,6,-1
 392 598 l 1,7,-1
 392 525 l 1,8,-1
 448 525 l 1,9,-1
 448 478 l 1,10,-1
 276 478 l 1,11,-1
 276 525 l 1,12,-1
 333 525 l 1,13,-1
 333 598 l 1,14,-1
 135 598 l 1,15,-1
 135 310 l 1,16,-1
 319 310 l 1,17,-1
 401 310 l 1,18,-1
 401 1 l 1,19,-1
 319 1 l 1,20,-1
 319 246 l 1,0,-1
EndSplineSet
Validated: 1
EndChar

StartChar: r
Encoding: 114 114 80
Width: 512
GlyphClass: 1
Flags: W
LayerCount: 3
Fore
SplineSet
57 593 m 1,0,-1
 57 659 l 1,1,-1
 299 657 l 1,2,-1
 299 591 l 1,3,-1
 57 593 l 1,0,-1
355 297 m 1,4,-1
 211 297 l 1,5,-1
 211 187 l 1,6,-1
 141 187 l 1,7,-1
 141 297 l 1,8,-1
 141 373 l 1,9,-1
 141 591 l 1,10,-1
 211 591 l 1,11,-1
 211 373 l 1,12,-1
 427 373 l 1,13,-1
 427 297 l 1,14,-1
 427 0 l 1,15,-1
 355 0 l 1,16,-1
 355 297 l 1,4,-1
EndSplineSet
Validated: 1
EndChar

StartChar: s
Encoding: 115 115 81
Width: 786
GlyphClass: 1
Flags: W
LayerCount: 3
Fore
SplineSet
381 -2 m 1,0,-1
 381 67 l 1,1,-1
 518 67.78515625 l 1,2,-1
 518 605 l 1,3,-1
 233 605 l 1,4,-1
 233 434 l 1,5,-1
 319 434 l 1,6,-1
 319 361 l 1,7,-1
 233 361 l 1,8,-1
 152 361 l 1,9,-1
 66 361 l 1,10,-1
 66 434 l 1,11,-1
 152 434 l 1,12,-1
 152 605 l 1,13,-1
 152 683 l 1,14,-1
 233 683 l 1,15,-1
 518 683 l 1,16,-1
 593 683 l 1,17,-1
 593 605 l 1,18,-1
 593 68.21484375 l 1,19,-1
 730 69 l 1,20,-1
 730 0 l 1,21,-1
 381 -2 l 1,0,-1
EndSplineSet
Validated: 1
EndChar

StartChar: t
Encoding: 116 116 82
Width: 663
GlyphClass: 1
Flags: W
LayerCount: 3
Fore
SplineSet
294 673 m 1,0,-1
 294 748 l 1,1,-1
 607 748 l 1,2,-1
 607 673 l 1,3,-1
 294 673 l 1,0,-1
294 515 m 1,4,-1
 294 723 l 1,5,-1
 357 723 l 1,6,-1
 357 515 l 1,7,-1
 294 515 l 1,4,-1
71 352 m 1,8,-1
 401 352 l 1,9,-1
 401 280 l 1,10,-1
 71 280 l 1,11,-1
 71 352 l 1,8,-1
71 564 m 1,12,-1
 487 564 l 1,13,-1
 487 487 l 1,14,-1
 71 487 l 1,15,-1
 71 564 l 1,12,-1
71 0 m 1,16,-1
 71 564 l 1,17,-1
 155 564 l 1,18,-1
 155 0 l 1,19,-1
 71 0 l 1,16,-1
EndSplineSet
Validated: 5
EndChar

StartChar: u
Encoding: 117 117 83
Width: 809
GlyphClass: 1
Flags: W
LayerCount: 3
Fore
SplineSet
76.2001953125 0.2451171875 m 1,0,-1
 76.2001953125 333.7421875 l 1,1,-1
 149 333.7421875 l 1,2,-1
 161.48046875 333.7421875 l 1,3,-1
 371.559570312 334.775390625 l 1,4,-1
 371.559570312 592.900390625 l 1,5,-1
 72.0400390625 591.8671875 l 1,6,-1
 72.0400390625 675.5 l 1,7,-1
 361.16015625 675.5 l 1,8,-1
 475.559570312 675.5 l 1,9,-1
 475.559570312 591.8671875 l 1,10,-1
 475.559570312 333.7421875 l 1,11,-1
 652.360351562 333.7421875 l 1,12,-1
 664.83984375 333.7421875 l 1,13,-1
 737.639648438 333.7421875 l 1,14,-1
 737.639648438 0.2451171875 l 1,15,-1
 652.360351562 0.2451171875 l 1,16,-1
 652.360351562 252.174804688 l 1,17,-1
 161.48046875 252.174804688 l 1,18,-1
 161.48046875 0.2451171875 l 1,19,-1
 76.2001953125 0.2451171875 l 1,0,-1
EndSplineSet
Validated: 1
EndChar

StartChar: v
Encoding: 118 118 84
Width: 882
GlyphClass: 1
Flags: W
LayerCount: 3
Fore
SplineSet
55.96484375 395.799804688 m 17,0,-1
 55.96484375 309.48046875 l 1,1,-1
 167.615234375 309.48046875 l 1,2,-1
 167.615234375 79.6396484375 l 1,3,-1
 167.615234375 2.6796875 l 1,4,-1
 730.940429688 0.599609375 l 1,5,-1
 808.080078125 0.599609375 l 1,6,-1
 808.080078125 458.200195312 l 1,7,-1
 808.080078125 533.080078125 l 1,8,-1
 730.940429688 533.080078125 l 1,9,-1
 540.120117188 533.080078125 l 1,10,-1
 540.120117188 681.135742188 l 1,11,-1
 459.934570312 681.135742188 l 1,12,-1
 459.934570312 458.200195312 l 1,13,-1
 540.120117188 458.200195312 l 1,14,-1
 730.940429688 458.200195312 l 1,15,-1
 730.940429688 77.5595703125 l 1,16,-1
 243.740234375 79.373046875 l 1,17,-1
 243.740234375 309.48046875 l 1,18,-1
 358.434570312 309.48046875 l 1,19,-1
 358.434570312 395.799804688 l 1,20,-1
 55.96484375 395.799804688 l 17,0,-1
EndSplineSet
Validated: 9
EndChar

StartChar: w
Encoding: 119 119 85
Width: 384
GlyphClass: 1
Flags: W
LayerCount: 3
Fore
SplineSet
99 84 m 0,0,-1
 99 22 l 0,1,2
 341 91 341 91 326 407 c 24,3,-1
 269 406 l 0,4,5
 260 148 260 148 99 84 c 0,0,-1
146 662 m 1,6,-1
 144 263 l 1,7,-1
 70 263 l 1,8,-1
 72 662 l 1,9,-1
 146 662 l 1,6,-1
EndSplineSet
Validated: 41
EndChar

StartChar: x
Encoding: 120 120 86
Width: 545
GlyphClass: 1
Flags: W
LayerCount: 3
Fore
SplineSet
58 0 m 1,0,-1
 58 65 l 1,1,-1
 406 65 l 1,2,-1
 406 482 l 1,3,-1
 156.936523438 482 l 1,4,-1
 156 326 l 1,5,-1
 84 326 l 1,6,-1
 86 659 l 1,7,-1
 158 659 l 1,8,-1
 157.338867188 549 l 1,9,-1
 406 549 l 1,10,-1
 406 660 l 1,11,-1
 478 660 l 1,12,-1
 478 65 l 1,13,-1
 478 0 l 1,14,-1
 406 0 l 1,15,-1
 58 0 l 1,0,-1
EndSplineSet
Validated: 1
EndChar

StartChar: y
Encoding: 121 121 87
Width: 559
GlyphClass: 1
Flags: W
LayerCount: 3
Fore
SplineSet
450 0 m 1025,0,-1
370.373046875 0 m 1025,1,2
159 0 m 1,3,-1
 76 0 l 1,4,-1
 76 357 l 1,5,-1
 76 430 l 1,6,-1
 76 590 l 1,7,-1
 76 670 l 1,8,-1
 164 670 l 1,9,-1
 491 670 l 1,10,-1
 490 584 l 1,11,-1
 162.668945312 584 l 1,12,-1
 162.50390625 430 l 1,13,-1
 416 430 l 1,14,-1
 416 357 l 1,15,-1
 208.569335938 357 l 1,16,-1
 450 0 l 1,17,-1
 370.373046875 0 l 1,18,-1
 161.3828125 292.450195312 l 1,19,-1
 159 0 l 1,3,-1
EndSplineSet
Validated: 1
EndChar

StartChar: z
Encoding: 122 122 88
Width: 543
GlyphClass: 1
Flags: W
LayerCount: 3
Fore
SplineSet
350 266 m 1,0,-1
 432 266 l 1,1,-1
 432 191 l 1,2,-1
 432 0 l 1,3,-1
 350 0 l 1,4,-1
 350 191 l 1,5,-1
 156 191 l 1,6,-1
 136 191 l 1,7,-1
 74 191 l 1,8,-1
 74 408 l 1,9,-1
 74 479 l 1,10,-1
 74 483 l 1,11,-1
 368 483 l 1,12,-1
 368 608 l 1,13,-1
 76 608 l 1,14,-1
 76 681 l 1,15,-1
 450 681 l 1,16,-1
 450 669 l 1,17,-1
 450 608 l 1,18,-1
 450 483 l 1,19,-1
 450 431 l 1,20,-1
 450 408 l 1,21,-1
 156 408 l 1,22,-1
 156 266 l 1,23,-1
 350 266 l 1,0,-1
EndSplineSet
Validated: 1
EndChar

StartChar: braceleft
Encoding: 123 123 89
Width: 521
GlyphClass: 1
Flags: W
LayerCount: 3
Fore
SplineSet
140 576 m 2,0,-1
 140 580 l 2,1,2
 140 638 140 638 162 688.5 c 128,-1,3
 184 739 184 739 221.5 776.5 c 128,-1,4
 259 814 259 814 310 836 c 128,-1,5
 361 858 361 858 418 858 c 2,6,-1
 469 858 l 1,7,-1
 469 727 l 1,8,-1
 418 727 l 2,9,10
 388 727 388 727 361 715.5 c 128,-1,11
 334 704 334 704 314 684 c 128,-1,12
 294 664 294 664 282.5 637.5 c 128,-1,13
 271 611 271 611 271 581 c 2,14,-1
 271 576 l 2,15,16
 271 520 271 520 251.5 467.5 c 128,-1,17
 232 415 232 415 195 373 c 1,18,-1
 198 370 l 1,19,20
 234 328 234 328 252.5 277 c 128,-1,21
 271 226 271 226 271 171 c 0,22,23
 271 141 271 141 282.5 114 c 128,-1,24
 294 87 294 87 314 67 c 128,-1,25
 334 47 334 47 361 35.5 c 128,-1,26
 388 24 388 24 418 24 c 2,27,-1
 469 24 l 1,28,-1
 469 -107 l 1,29,-1
 418 -107 l 2,30,31
 361 -107 361 -107 310 -85 c 128,-1,32
 259 -63 259 -63 221.5 -25.5 c 128,-1,33
 184 12 184 12 162 62.5 c 128,-1,34
 140 113 140 113 140 171 c 0,35,36
 140 227 140 227 120.5 279 c 128,-1,37
 101 331 101 331 64 373 c 1,38,39
 101 415 101 415 120.5 467.5 c 128,-1,40
 140 520 140 520 140 576 c 2,0,-1
EndSplineSet
Validated: 1
EndChar

StartChar: bar
Encoding: 124 124 90
Width: 264
GlyphClass: 1
Flags: W
LayerCount: 3
Fore
SplineSet
80 0 m 1,0,-1
 80 751 l 1,1,-1
 183 751 l 1,2,-1
 183 0 l 1,3,-1
 80 0 l 1,0,-1
EndSplineSet
Validated: 1
EndChar

StartChar: braceright
Encoding: 125 125 91
Width: 521
GlyphClass: 1
Flags: W
LayerCount: 3
Fore
SplineSet
102 24 m 2,0,1
 132 24 132 24 159 35.5 c 128,-1,2
 186 47 186 47 206 67 c 128,-1,3
 226 87 226 87 237.5 114 c 128,-1,4
 249 141 249 141 249 171 c 0,5,6
 249 226 249 226 268 277 c 128,-1,7
 287 328 287 328 322 370 c 1,8,-1
 325 373 l 1,9,10
 288 415 288 415 268.5 467.5 c 128,-1,11
 249 520 249 520 249 576 c 2,12,-1
 249 581 l 2,13,14
 249 611 249 611 237.5 637.5 c 128,-1,15
 226 664 226 664 206 684 c 128,-1,16
 186 704 186 704 159 715.5 c 128,-1,17
 132 727 132 727 102 727 c 2,18,-1
 51 727 l 1,19,-1
 51 858 l 1,20,-1
 102 858 l 2,21,22
 160 858 160 858 210.5 836 c 128,-1,23
 261 814 261 814 298.5 776.5 c 128,-1,24
 336 739 336 739 358 688.5 c 128,-1,25
 380 638 380 638 380 580 c 2,26,-1
 380 576 l 2,27,28
 380 520 380 520 399.5 468 c 128,-1,29
 419 416 419 416 456 373 c 1,30,31
 419 331 419 331 399.5 279 c 128,-1,32
 380 227 380 227 380 171 c 0,33,34
 380 114 380 114 358 63 c 128,-1,35
 336 12 336 12 298.5 -25.5 c 128,-1,36
 261 -63 261 -63 210.5 -85 c 128,-1,37
 160 -107 160 -107 102 -107 c 2,38,-1
 51 -107 l 1,39,-1
 51 24 l 1,40,-1
 102 24 l 2,0,1
EndSplineSet
Validated: 1
EndChar

StartChar: exclamdown
Encoding: 161 161 93
Width: 694
GlyphClass: 1
Flags: W
LayerCount: 3
Fore
SplineSet
64 0 m 1,0,-1
 64 701 l 1,1,-1
 147 701 l 1,2,-1
 147 558 l 1,3,-1
 147.5 701 l 1,4,5
 245.000976562 551.484375 245.000976562 551.484375 337.10546875 410.57421875 c 1,6,7
 379.309570312 640.081054688 379.309570312 640.081054688 627 705 c 1,8,-1
 651 624 l 1,9,10
 433.431640625 568.110351562 433.431640625 568.110351562 389.174804688 330.940429688 c 1,11,12
 501.7578125 158.821289062 501.7578125 158.821289062 606 0 c 1,13,-1
 507 0 l 1,14,-1
 147 558 l 1,15,-1
 147 0 l 1,16,-1
 64 0 l 1,0,-1
240 714 m 1,17,-1
 438 714 l 1,18,-1
 438 651 l 1,19,-1
 240 651 l 1,20,-1
 240 714 l 1,17,-1
EndSplineSet
EndChar

StartChar: cent
Encoding: 162 162 94
Width: 759
GlyphClass: 1
Flags: W
LayerCount: 3
Fore
SplineSet
91 503 m 0,0,1
 107 546 107 546 135 579 c 128,-1,2
 163 612 163 612 198.5 634 c 128,-1,3
 234 656 234 656 276 667 c 128,-1,4
 318 678 318 678 362 678 c 2,5,-1
 437 678 l 1,6,-1
 437 751 l 1,7,-1
 495 751 l 1,8,-1
 495 678 l 1,9,-1
 689 678 l 1,10,-1
 689 571 l 1,11,-1
 495 571 l 1,12,-1
 495 181 l 1,13,-1
 689 181 l 1,14,-1
 689 73 l 1,15,-1
 495 73 l 1,16,-1
 495 0 l 1,17,-1
 437 0 l 1,18,-1
 437 73 l 1,19,-1
 362 73 l 2,20,21
 296 73 296 73 242 97.5 c 128,-1,22
 188 122 188 122 149.5 164 c 128,-1,23
 111 206 111 206 90 262 c 128,-1,24
 69 318 69 318 69 381 c 0,25,26
 68 442 68 442 91 503 c 0,0,1
362 181 m 2,27,-1
 437 181 l 1,28,-1
 437 571 l 1,29,-1
 362 571 l 2,30,31
 319 571 319 571 284.5 556 c 128,-1,32
 250 541 250 541 225.5 514.5 c 128,-1,33
 201 488 201 488 187.5 452.5 c 128,-1,34
 174 417 174 417 174 376 c 256,35,36
 174 335 174 335 188 299.5 c 128,-1,37
 202 264 202 264 227 237.5 c 128,-1,38
 252 211 252 211 286.5 196 c 128,-1,39
 321 181 321 181 362 181 c 2,27,-1
EndSplineSet
Validated: 33
EndChar

StartChar: sterling
Encoding: 163 163 95
Width: 788
GlyphClass: 1
Flags: W
LayerCount: 3
Fore
SplineSet
67 131 m 1,0,-1
 159 131 l 1,1,-1
 159 338 l 1,2,-1
 107 338 l 1,3,-1
 107 435 l 1,4,-1
 159 435 l 1,5,-1
 159 529 l 2,6,7
 159 583 159 583 175.5 624 c 128,-1,8
 192 665 192 665 222 693.5 c 128,-1,9
 252 722 252 722 294.5 736.5 c 128,-1,10
 337 751 337 751 389 751 c 2,11,-1
 618 751 l 1,12,-1
 618 620 l 1,13,-1
 409 620 l 2,14,15
 382 620 382 620 359 614.5 c 128,-1,16
 336 609 336 609 319 596 c 128,-1,17
 302 583 302 583 292.5 562.5 c 128,-1,18
 283 542 283 542 283 513 c 2,19,-1
 283 435 l 1,20,-1
 492 435 l 1,21,-1
 492 338 l 1,22,-1
 283 338 l 1,23,-1
 283 131 l 1,24,-1
 728 131 l 1,25,-1
 728 0 l 1,26,-1
 67 0 l 1,27,-1
 67 131 l 1,0,-1
EndSplineSet
Validated: 1
EndChar

StartChar: yen
Encoding: 165 165 96
Width: 818
GlyphClass: 1
Flags: W
LayerCount: 3
Fore
SplineSet
24 751 m 1,0,-1
 181 751 l 1,1,-1
 413 391 l 1,2,-1
 637 751 l 1,3,-1
 791 751 l 1,4,-1
 524 345 l 1,5,-1
 692 345 l 1,6,-1
 692 256 l 1,7,-1
 472 256 l 1,8,-1
 472 165 l 1,9,-1
 692 165 l 1,10,-1
 692 76 l 1,11,-1
 472 76 l 1,12,-1
 472 0 l 1,13,-1
 348 0 l 1,14,-1
 348 76 l 1,15,-1
 136 76 l 1,16,-1
 136 165 l 1,17,-1
 348 165 l 1,18,-1
 348 256 l 1,19,-1
 136 256 l 1,20,-1
 136 345 l 1,21,-1
 296 345 l 1,22,-1
 24 751 l 1,0,-1
EndSplineSet
Validated: 1
EndChar

StartChar: section
Encoding: 167 167 97
Width: 789
GlyphClass: 1
Flags: W
LayerCount: 3
Fore
SplineSet
695 95 m 0,0,1
 709 72 709 72 716 46 c 128,-1,2
 723 20 723 20 722 -6 c 0,3,4
 722 -55 722 -55 705.5 -93 c 128,-1,5
 689 -131 689 -131 660 -156.5 c 128,-1,6
 631 -182 631 -182 592 -195 c 128,-1,7
 553 -208 553 -208 507 -208 c 2,8,-1
 152 -208 l 1,9,-1
 152 -83 l 1,10,-1
 486 -83 l 2,11,12
 508 -83 508 -83 528 -78 c 128,-1,13
 548 -73 548 -73 563 -62 c 128,-1,14
 578 -51 578 -51 587 -34 c 128,-1,15
 596 -17 596 -17 596 7 c 0,16,17
 598 45 598 45 573 71 c 0,18,19
 559 85 559 85 543 90.5 c 128,-1,20
 527 96 527 96 507 96 c 2,21,-1
 290 96 l 2,22,23
 251 96 251 96 217.5 105 c 128,-1,24
 184 114 184 114 159 133 c 128,-1,25
 134 152 134 152 120 182 c 128,-1,26
 106 212 106 212 106 254 c 0,27,28
 106 292 106 292 119.5 327.5 c 128,-1,29
 133 363 133 363 167 383 c 1,30,31
 120 407 120 407 96 450 c 0,32,33
 68 497 68 497 70 553 c 0,34,35
 70 600 70 600 86.5 637 c 128,-1,36
 103 674 103 674 132 699.5 c 128,-1,37
 161 725 161 725 200 738 c 128,-1,38
 239 751 239 751 284 751 c 2,39,-1
 639 751 l 1,40,-1
 639 626 l 1,41,-1
 306 626 l 2,42,43
 284 626 284 626 264 621 c 128,-1,44
 244 616 244 616 228.5 605.5 c 128,-1,45
 213 595 213 595 203.5 577.5 c 128,-1,46
 194 560 194 560 194 536 c 0,47,48
 192 501 192 501 218 472 c 0,49,50
 243 447 243 447 283 447 c 2,51,-1
 501 447 l 2,52,53
 541 447 541 447 574.5 438.5 c 128,-1,54
 608 430 608 430 632.5 411 c 128,-1,55
 657 392 657 392 671 361.5 c 128,-1,56
 685 331 685 331 685 288 c 0,57,58
 686 250 686 250 669 212 c 0,59,60
 654 179 654 179 623 159 c 1,61,62
 669 137 669 137 695 95 c 0,0,1
550 214 m 0,63,64
 572 237 572 237 570 270 c 0,65,66
 572 304 572 304 548 329 c 0,67,68
 525 351 525 351 480 351 c 2,69,-1
 305 351 l 2,70,71
 260 351 260 351 241 329 c 0,72,73
 218 305 218 305 220 274 c 0,74,75
 218 239 218 239 243 214 c 0,76,77
 267 192 267 192 311 192 c 2,78,-1
 486 192 l 2,79,80
 528 192 528 192 550 214 c 0,63,64
EndSplineSet
Validated: 33
EndChar

StartChar: copyright
Encoding: 169 169 98
Width: 897
GlyphClass: 1
Flags: W
LayerCount: 3
Fore
SplineSet
348.189453125 266.249023438 m 5,0,-1
 609.19921875 266.249023438 l 5,1,-1
 609.19921875 210.01171875 l 5,2,-1
 348.189453125 210.01171875 l 5,3,-1
 348.189453125 266.249023438 l 5,0,-1
563.345703125 301.827148438 m 5,4,-1
 563.345703125 601.377929688 l 5,5,-1
 608.0234375 601.377929688 l 5,6,-1
 608.0234375 301.827148438 l 5,7,-1
 563.345703125 301.827148438 l 5,4,-1
248.252929688 555.469726562 m 5,8,-1
 248.252929688 600.803710938 l 5,9,-1
 297.634765625 600.803710938 l 5,10,-1
 518.668945312 600.803710938 l 5,11,-1
 518.668945312 555.469726562 l 5,12,-1
 297.634765625 555.469726562 l 5,13,-1
 297.634765625 192.794921875 l 5,14,-1
 248.252929688 192.794921875 l 5,15,-1
 248.252929688 555.469726562 l 5,8,-1
77 546 m 256,16,17
 99 600 99 600 135.5 643.5 c 128,-1,18
 172 687 172 687 218 717.5 c 128,-1,19
 264 748 264 748 318 765 c 128,-1,20
 372 782 372 782 430 782 c 0,21,22
 510 782 510 782 579.5 752 c 128,-1,23
 649 722 649 722 701 670 c 128,-1,24
 753 618 753 618 783 548 c 128,-1,25
 813 478 813 478 813 399 c 256,26,27
 813 320 813 320 782.5 250 c 128,-1,28
 752 180 752 180 700 128.5 c 128,-1,29
 648 77 648 77 578.5 47 c 128,-1,30
 509 17 509 17 431 17 c 0,31,32
 356 17 356 17 285.5 45.5 c 128,-1,33
 215 74 215 74 160 129 c 0,34,35
 119 170 119 170 92.5 220 c 128,-1,36
 66 270 66 270 55.5 324.5 c 128,-1,37
 45 379 45 379 50 435.5 c 128,-1,38
 55 492 55 492 77 546 c 256,16,17
122 401 m 256,39,40
 122 338 122 338 146 282 c 128,-1,41
 170 226 170 226 211.5 184.5 c 128,-1,42
 253 143 253 143 309 119 c 128,-1,43
 365 95 365 95 428 95 c 256,44,45
 491 95 491 95 547 119 c 128,-1,46
 603 143 603 143 644.5 184.5 c 128,-1,47
 686 226 686 226 710.5 282 c 128,-1,48
 735 338 735 338 735 401 c 256,49,50
 735 464 735 464 711 520 c 128,-1,51
 687 576 687 576 645.5 618 c 128,-1,52
 604 660 604 660 548 684 c 128,-1,53
 492 708 492 708 428 708 c 0,54,55
 365 708 365 708 309 684 c 128,-1,56
 253 660 253 660 211.5 618 c 128,-1,57
 170 576 170 576 146 520 c 128,-1,58
 122 464 122 464 122 401 c 256,39,40
EndSplineSet
EndChar

StartChar: guillemotleft
Encoding: 171 171 99
Width: 626
GlyphClass: 1
Flags: W
LayerCount: 3
Fore
SplineSet
201 383 m 1,0,-1
 366 219 l 1,1,-1
 292 146 l 1,2,-1
 55 383 l 1,3,-1
 292 621 l 1,4,-1
 366 548 l 1,5,-1
 201 383 l 1,0,-1
398 383 m 1,6,-1
 562 219 l 1,7,-1
 489 146 l 1,8,-1
 252 383 l 1,9,-1
 489 621 l 1,10,-1
 562 548 l 1,11,-1
 398 383 l 1,6,-1
EndSplineSet
Validated: 1
EndChar

StartChar: registered
Encoding: 174 174 101
Width: 694
GlyphClass: 1
Flags: W
LayerCount: 3
Fore
SplineSet
197.177734375 636.83984375 m 5,0,-1
 197.177734375 677.759765625 l 5,1,-1
 365.97265625 676.51953125 l 5,2,-1
 365.97265625 635.599609375 l 5,3,-1
 197.177734375 636.83984375 l 5,0,-1
408.032226562 453.3203125 m 1,4,-1
 307.592773438 453.3203125 l 1,5,-1
 307.592773438 385.120117188 l 1,6,-1
 258.767578125 385.120117188 l 1,7,-1
 258.767578125 453.3203125 l 1,8,-1
 258.767578125 500.440429688 l 1,9,-1
 258.767578125 635.599609375 l 1,10,-1
 307.592773438 635.599609375 l 1,11,-1
 307.592773438 500.440429688 l 1,12,-1
 458.252929688 500.440429688 l 1,13,-1
 458.252929688 453.3203125 l 1,14,-1
 458.252929688 269.1796875 l 1,15,-1
 408.032226562 269.1796875 l 1,16,-1
 408.032226562 453.3203125 l 1,4,-1
508 332 m 17,17,18
 476 297 476 297 433.5 278.5 c 128,-1,19
 391 260 391 260 346 260 c 0,20,21
 308 260 308 260 270.5 273.5 c 128,-1,22
 233 287 233 287 202 314 c 0,23,24
 169 343 169 343 150 381.5 c 128,-1,25
 131 420 131 420 128 461.5 c 128,-1,26
 125 503 125 503 137.5 544 c 128,-1,27
 150 585 150 585 178 619 c 0,28,29
 210 658 210 658 254 678 c 128,-1,30
 298 698 298 698 346 698 c 0,31,32
 382 698 382 698 417.5 686 c 128,-1,33
 453 674 453 674 483 650 c 0,34,35
 518 622 518 622 538.5 584.5 c 128,-1,36
 559 547 559 547 564 506 c 0,37,38
 568.558878505 466.489719626 568.558878505 466.489719626 558 423.5 c 4,39,40
 551 395 551 395 520 346 c 1,41,42
 520 346 520 346 508 332 c 17,17,18
347 758 m 256,43,44
 405 758 405 758 455.5 736 c 128,-1,45
 506 714 506 714 544 676 c 128,-1,46
 582 638 582 638 604 587.5 c 128,-1,47
 626 537 626 537 626 479 c 256,48,49
 626 421 626 421 604 370 c 128,-1,50
 582 319 582 319 544 281 c 128,-1,51
 506 243 506 243 455.5 221 c 128,-1,52
 405 199 405 199 347 199 c 256,53,54
 289 199 289 199 238 221 c 128,-1,55
 187 243 187 243 149 281 c 128,-1,56
 111 319 111 319 89 370 c 128,-1,57
 67 421 67 421 67 479 c 256,58,59
 67 537 67 537 89 587.5 c 128,-1,60
 111 638 111 638 149 676 c 128,-1,61
 187 714 187 714 238 736 c 128,-1,62
 289 758 289 758 347 758 c 256,43,44
EndSplineSet
EndChar

StartChar: degree
Encoding: 176 176 102
Width: 286
GlyphClass: 1
Flags: W
LayerCount: 3
Fore
SplineSet
143 747 m 0,0,1
 181 747 181 747 207.5 720.5 c 128,-1,2
 234 694 234 694 234 656 c 0,3,4
 234 637 234 637 227 620 c 128,-1,5
 220 603 220 603 207.5 590.5 c 128,-1,6
 195 578 195 578 178.5 571 c 128,-1,7
 162 564 162 564 143 564 c 256,8,9
 124 564 124 564 107 571 c 128,-1,10
 90 578 90 578 77.5 590.5 c 128,-1,11
 65 603 65 603 58 620 c 128,-1,12
 51 637 51 637 51 656 c 256,13,14
 51 675 51 675 58 691.5 c 128,-1,15
 65 708 65 708 77.5 720.5 c 128,-1,16
 90 733 90 733 107 740 c 128,-1,17
 124 747 124 747 143 747 c 0,0,1
143 625 m 0,18,19
 156 625 156 625 164.5 634 c 128,-1,20
 173 643 173 643 173 656 c 0,21,22
 173 676 173 676 154 684 c 0,23,24
 150 686 150 686 143 686 c 0,25,26
 130 686 130 686 121 677 c 0,27,28
 114 671 114 671 112.5 661.5 c 128,-1,29
 111 652 111 652 114 644 c 0,30,31
 122 625 122 625 143 625 c 0,18,19
EndSplineSet
Validated: 1
EndChar

StartChar: twosuperior
Encoding: 178 178 103
Width: 440
GlyphClass: 1
Flags: W
LayerCount: 3
Fore
SplineSet
138.306640625 298.989257812 m 1,0,-1
 367.286132812 298.989257812 l 1,1,-1
 367.286132812 360.607421875 l 1,2,-1
 198.629882812 360.607421875 l 1,3,-1
 330.067382812 502.197265625 l 1,4,-1
 327.088867188 531.0390625 l 1,5,-1
 294.334960938 529.728515625 l 1,6,-1
 139.497070312 384.936523438 l 1,7,-1
 139.497070312 683.118164062 l 24,8,9
 139.497070312 693.168945312 139.497070312 693.168945312 148.05859375 698.194335938 c 0,10,11
 155.875 702.783203125 155.875 702.783203125 167.78515625 701.471679688 c 24,12,-1
 358.354492188 701.471679688 l 1,13,-1
 358.354492188 752.6015625 l 1,14,-1
 167.040039062 752.9296875 l 0,15,16
 122.921875 753.901367188 122.921875 753.901367188 102.462890625 738.262695312 c 0,17,18
 79.2001953125 720.482421875 79.2001953125 720.482421875 76.966796875 683.118164062 c 24,19,-1
 76.966796875 298.989257812 l 1,20,-1
 138.306640625 298.989257812 l 1,0,-1
  Spiro
    138.307 298.989 o
    367.287 298.989 v
    367.287 360.607 v
    198.63 360.607 o
    330.066 502.197 v
    327.089 531.04 v
    294.334 529.729 v
    139.498 384.937 o
    139.498 683.118 v
    148.058 698.195 o
    167.785 701.472 ]
    358.354 701.472 v
    358.354 752.602 v
    167.041 752.929 [
    102.464 738.263 o
    76.9673 683.118 ]
    76.9673 298.989 v
    0 0 z
  EndSpiro
EndSplineSet
EndChar

StartChar: threesuperior
Encoding: 179 179 104
Width: 405
GlyphClass: 1
Flags: W
LayerCount: 3
Fore
SplineSet
154.963867188 485.110351562 m 1,0,1
 154.883789062 485.221679688 154.883789062 485.221679688 155.04296875 484.999023438 c 1,2,-1
 338.04296875 484.999023438 l 1,3,-1
 338.04296875 527.279296875 l 1,4,-1
 155.272460938 527.279296875 l 1,5,-1
 155.701171875 527.502929688 l 1,6,7
 231.745117188 629.262695312 231.745117188 629.262695312 307.741210938 730.698242188 c 1,8,9
 307.741210938 730.698242188 307.741210938 730.698242188 255.049804688 763.223632812 c 1,10,-1
 158.359375 634.255859375 l 1,11,-1
 61.66796875 505.287109375 l 1,12,13
 79.6572265625 482.35546875 79.6572265625 482.35546875 159.17578125 375.9609375 c 2,14,15
 159.17578125 375.9609375 159.17578125 375.9609375 255.049804688 248.067382812 c 1,16,-1
 307.741210938 280.591796875 l 1,17,-1
 155.04296875 484.999023438 l 1,18,-1
 154.963867188 485.110351562 l 1,0,1
194.01171875 415.831054688 m 1025,19,20
194.104492188 415.8828125 m 1025,21,22
EndSplineSet
EndChar

StartChar: periodcentered
Encoding: 183 183 105
Width: 290
GlyphClass: 1
Flags: W
LayerCount: 3
Fore
SplineSet
81 -98 m 1,0,-1
 81 -14 l 1025,1,-1
198 -14 m 1,2,-1
 198 -98 l 1025,3,-1
81 -98 m 1,4,-1
 80 903 l 1,5,-1
 204 903 l 1,6,-1
 198 -98 l 1,7,-1
 81 -98 l 1,4,-1
EndSplineSet
EndChar

StartChar: onesuperior
Encoding: 185 185 106
Width: 394
GlyphClass: 1
Flags: W
LayerCount: 3
Fore
SplineSet
61.3798828125 538.032226562 m 1,0,-1
 252.274414062 779.8515625 l 1,1,-1
 296.358398438 745.006835938 l 1,2,-1
 138.680664062 545.401367188 l 1,3,-1
 260.852539062 384.236328125 l 1,4,-1
 260.852539062 524.295898438 l 1,5,-1
 317.63671875 524.295898438 l 1,6,-1
 317.63671875 309.328125 l 1,7,-1
 317.63671875 274.30078125 l 1,8,-1
 260.852539062 274.30078125 l 1,9,-1
 260.852539062 274.599609375 l 1,10,-1
 61.3798828125 538.032226562 l 1,0,-1
EndSplineSet
EndChar

StartChar: guillemotright
Encoding: 187 187 107
Width: 626
GlyphClass: 1
Flags: W
LayerCount: 3
Fore
SplineSet
570 383 m 1,0,-1
 333 146 l 1,1,-1
 260 219 l 1,2,-1
 424 383 l 1,3,-1
 260 548 l 1,4,-1
 333 621 l 1,5,-1
 570 383 l 1,0,-1
374 383 m 1,6,-1
 136 146 l 1,7,-1
 63 219 l 1,8,-1
 227 383 l 1,9,-1
 63 548 l 1,10,-1
 136 621 l 1,11,-1
 374 383 l 1,6,-1
EndSplineSet
Validated: 1
EndChar

StartChar: questiondown
Encoding: 191 191 108
Width: 819
GlyphClass: 1
Flags: W
LayerCount: 3
Fore
SplineSet
620 619 m 0,0,1
 589 619 589 619 569 639 c 0,2,3
 548 660 548 660 550 688 c 0,4,5
 548 718 548 718 569 740 c 0,6,7
 589 759 589 759 620 759 c 0,8,9
 649 759 649 759 669.5 738 c 128,-1,10
 690 717 690 717 690 688 c 0,11,12
 691 674 691 674 685.5 661.5 c 128,-1,13
 680 649 680 649 670 639 c 0,14,15
 650 619 650 619 620 619 c 0,0,1
754 131 m 1,16,-1
 754 0 l 1,17,-1
 294 0 l 2,18,19
 246 0 246 0 203 14 c 128,-1,20
 160 28 160 28 124 60 c 0,21,22
 94 90 94 90 80 127 c 0,23,24
 65 168 65 168 65 211.5 c 128,-1,25
 65 255 65 255 80 297 c 0,26,27
 93 330 93 330 115 354 c 128,-1,28
 137 378 137 378 165 394 c 128,-1,29
 193 410 193 410 225.5 417.5 c 128,-1,30
 258 425 258 425 292 425 c 2,31,-1
 512 425 l 2,32,33
 560 425 560 425 560 468 c 2,34,-1
 560 509 l 1,35,-1
 684 509 l 1,36,-1
 684 465 l 2,37,38
 684 425 684 425 671 396.5 c 128,-1,39
 658 368 658 368 635.5 349.5 c 128,-1,40
 613 331 613 331 581.5 322.5 c 128,-1,41
 550 314 550 314 512 314 c 2,42,-1
 294 314 l 2,43,44
 274 314 274 314 257 309 c 128,-1,45
 240 304 240 304 225 290 c 0,46,47
 211 277 211 277 204.5 259.5 c 128,-1,48
 198 242 198 242 199 223 c 0,49,50
 198 204 198 204 204.5 186.5 c 128,-1,51
 211 169 211 169 225 156 c 0,52,53
 254 131 254 131 294 131 c 2,54,-1
 754 131 l 1,16,-1
EndSplineSet
Validated: 33
EndChar

StartChar: Agrave
Encoding: 192 192 109
Width: 869
GlyphClass: 1
Flags: W
LayerCount: 3
Fore
SplineSet
14 -1 m 1,0,-1
 335 654 l 2,1,2
 349 682 349 682 375.5 698.5 c 128,-1,3
 402 715 402 715 433 715 c 0,4,5
 465 715 465 715 492.5 698 c 128,-1,6
 520 681 520 681 534 652 c 2,7,-1
 855 -1 l 1,8,-1
 701 -1 l 1,9,-1
 632 140 l 1,10,-1
 236 140 l 1,11,-1
 168 -1 l 1,12,-1
 14 -1 l 1,0,-1
303 277 m 1,13,-1
 565 277 l 1,14,-1
 434 545 l 1,15,-1
 303 277 l 1,13,-1
459 948 m 1,16,-1
 534 762 l 1,17,-1
 464 762 l 1,18,-1
 334 948 l 1,19,-1
 459 948 l 1,16,-1
EndSplineSet
Validated: 1
EndChar

StartChar: Aacute
Encoding: 193 193 110
Width: 869
GlyphClass: 1
Flags: W
LayerCount: 3
Fore
SplineSet
14 -1 m 1,0,-1
 335 654 l 2,1,2
 349 682 349 682 375.5 698.5 c 128,-1,3
 402 715 402 715 433 715 c 0,4,5
 465 715 465 715 492.5 698 c 128,-1,6
 520 681 520 681 534 652 c 2,7,-1
 855 -1 l 1,8,-1
 701 -1 l 1,9,-1
 632 140 l 1,10,-1
 236 140 l 1,11,-1
 168 -1 l 1,12,-1
 14 -1 l 1,0,-1
303 277 m 1,13,-1
 565 277 l 1,14,-1
 434 545 l 1,15,-1
 303 277 l 1,13,-1
334 762 m 1,16,-1
 409 948 l 1,17,-1
 534 948 l 1,18,-1
 405 762 l 1,19,-1
 334 762 l 1,16,-1
EndSplineSet
Validated: 1
EndChar

StartChar: Acircumflex
Encoding: 194 194 111
Width: 869
GlyphClass: 1
Flags: W
LayerCount: 3
Fore
SplineSet
335 654 m 2,0,1
 349 682 349 682 375.5 698.5 c 128,-1,2
 402 715 402 715 433 715 c 0,3,4
 465 715 465 715 492.5 698 c 128,-1,5
 520 681 520 681 534 652 c 2,6,-1
 855 -1 l 1,7,-1
 701 -1 l 1,8,-1
 632 140 l 1,9,-1
 236 140 l 1,10,-1
 168 -1 l 1,11,-1
 14 -1 l 1,12,-1
 335 654 l 2,0,1
303 277 m 1,13,-1
 565 277 l 1,14,-1
 434 545 l 1,15,-1
 303 277 l 1,13,-1
272 762 m 1,16,-1
 402 948 l 1,17,-1
 467 948 l 1,18,-1
 596 762 l 1,19,-1
 471 762 l 1,20,-1
 434 854 l 1,21,-1
 397 762 l 1,22,-1
 272 762 l 1,16,-1
EndSplineSet
Validated: 1
EndChar

StartChar: Atilde
Encoding: 195 195 112
Width: 869
GlyphClass: 1
Flags: W
LayerCount: 3
Fore
SplineSet
335 654 m 2,0,1
 349 682 349 682 375.5 698.5 c 128,-1,2
 402 715 402 715 433 715 c 0,3,4
 465 715 465 715 492.5 698 c 128,-1,5
 520 681 520 681 534 652 c 2,6,-1
 855 -1 l 1,7,-1
 701 -1 l 1,8,-1
 632 140 l 1,9,-1
 236 140 l 1,10,-1
 168 -1 l 1,11,-1
 14 -1 l 1,12,-1
 335 654 l 2,0,1
362 905 m 0,13,14
 385 905 385 905 405.5 897.5 c 128,-1,15
 426 890 426 890 444 881 c 128,-1,16
 462 872 462 872 478.5 864.5 c 128,-1,17
 495 857 495 857 510 857 c 0,18,19
 530 857 530 857 542 869.5 c 128,-1,20
 554 882 554 882 552 905 c 1,21,-1
 623 905 l 1,22,23
 629 842 629 842 602 802 c 128,-1,24
 575 762 575 762 512 762 c 0,25,26
 487 762 487 762 467.5 769.5 c 128,-1,27
 448 777 448 777 430.5 785.5 c 128,-1,28
 413 794 413 794 395.5 801.5 c 128,-1,29
 378 809 378 809 357 809 c 0,30,31
 337 809 337 809 326 797.5 c 128,-1,32
 315 786 315 786 315 761 c 1,33,-1
 244 761 l 1,34,35
 242 828 242 828 275.5 866.5 c 128,-1,36
 309 905 309 905 362 905 c 0,13,14
303 277 m 1,37,-1
 565 277 l 1,38,-1
 434 545 l 1,39,-1
 303 277 l 1,37,-1
EndSplineSet
Validated: 33
EndChar

StartChar: Adieresis
Encoding: 196 196 113
Width: 869
GlyphClass: 1
Flags: W
LayerCount: 3
Fore
SplineSet
14 -1 m 1,0,-1
 335 654 l 2,1,2
 349 682 349 682 375.5 698.5 c 128,-1,3
 402 715 402 715 433 715 c 0,4,5
 465 715 465 715 492.5 698 c 128,-1,6
 520 681 520 681 534 652 c 2,7,-1
 855 -1 l 1,8,-1
 701 -1 l 1,9,-1
 632 140 l 1,10,-1
 236 140 l 1,11,-1
 168 -1 l 1,12,-1
 14 -1 l 1,0,-1
565 277 m 1,13,-1
 434 545 l 1,14,-1
 303 277 l 1,15,-1
 565 277 l 1,13,-1
460 838 m 256,16,17
 460 870 460 870 481 892 c 128,-1,18
 502 914 502 914 534 914 c 0,19,20
 565 914 565 914 587 892 c 128,-1,21
 609 870 609 870 609 838 c 0,22,23
 609 807 609 807 587 785 c 128,-1,24
 565 763 565 763 534 762 c 0,25,26
 502 764 502 764 481 785 c 128,-1,27
 460 806 460 806 460 838 c 256,16,17
260 838 m 256,28,29
 260 870 260 870 281.5 892 c 128,-1,30
 303 914 303 914 335 914 c 256,31,32
 367 914 367 914 388 891.5 c 128,-1,33
 409 869 409 869 409 838 c 256,34,35
 409 807 409 807 387.5 785.5 c 128,-1,36
 366 764 366 764 335 762 c 0,37,38
 303 762 303 762 281.5 784 c 128,-1,39
 260 806 260 806 260 838 c 256,28,29
EndSplineSet
Validated: 1
EndChar

StartChar: Aring
Encoding: 197 197 114
Width: 869
GlyphClass: 1
Flags: W
LayerCount: 3
Fore
SplineSet
14 -1 m 1,0,-1
 335 654 l 2,1,2
 349 682 349 682 375.5 698.5 c 128,-1,3
 402 715 402 715 433 715 c 0,4,5
 465 715 465 715 492.5 698 c 128,-1,6
 520 681 520 681 534 652 c 2,7,-1
 855 -1 l 1,8,-1
 701 -1 l 1,9,-1
 632 140 l 1,10,-1
 236 140 l 1,11,-1
 168 -1 l 1,12,-1
 14 -1 l 1,0,-1
433 992 m 256,13,14
 457 992 457 992 478 983 c 128,-1,15
 499 974 499 974 515 958 c 128,-1,16
 531 942 531 942 540 921 c 128,-1,17
 549 900 549 900 549 876 c 256,18,19
 549 852 549 852 539.5 831.5 c 128,-1,20
 530 811 530 811 514.5 795.5 c 128,-1,21
 499 780 499 780 478 771 c 128,-1,22
 457 762 457 762 433 762 c 0,23,24
 410 762 410 762 389.5 771.5 c 128,-1,25
 369 781 369 781 353.5 796.5 c 128,-1,26
 338 812 338 812 329 832.5 c 128,-1,27
 320 853 320 853 320 876 c 0,28,29
 320 900 320 900 328.5 921 c 128,-1,30
 337 942 337 942 352.5 957.5 c 128,-1,31
 368 973 368 973 388.5 982.5 c 128,-1,32
 409 992 409 992 433 992 c 256,13,14
303 277 m 1,33,-1
 565 277 l 1,34,-1
 434 545 l 1,35,-1
 303 277 l 1,33,-1
392 876 m 0,36,37
 392 859 392 859 404 847 c 128,-1,38
 416 835 416 835 433 834 c 0,39,40
 451 834 451 834 463.5 846.5 c 128,-1,41
 476 859 476 859 477 876 c 0,42,43
 477 894 477 894 464 906.5 c 128,-1,44
 451 919 451 919 433 920 c 0,45,46
 416 919 416 919 403.5 906 c 128,-1,47
 391 893 391 893 392 876 c 0,36,37
EndSplineSet
Validated: 33
EndChar

StartChar: AE
Encoding: 198 198 115
Width: 1351
GlyphClass: 1
Flags: W
LayerCount: 3
Fore
SplineSet
714 699 m 1,0,-1
 1291 699 l 1,1,-1
 1291 562 l 1,2,-1
 851 562 l 1,3,-1
 851 137 l 1,4,-1
 1291 137 l 1,5,-1
 1291 -1 l 1,6,-1
 695 -1 l 1,7,-1
 696 140 l 1,8,-1
 300 140 l 1,9,-1
 162 -1 l 1,10,-1
 8 -1 l 1,11,-1
 714 699 l 1,0,-1
912 418 m 1,12,-1
 1258 418 l 1,13,-1
 1258 280 l 1,14,-1
 912 280 l 1,15,-1
 912 418 l 1,12,-1
696 277 m 1,16,-1
 697 545 l 1,17,-1
 435 277 l 1,18,-1
 696 277 l 1,16,-1
EndSplineSet
Validated: 1
EndChar

StartChar: Ccedilla
Encoding: 199 199 116
Width: 782
GlyphClass: 1
Flags: W
LayerCount: 3
Fore
SplineSet
361 699 m 2,0,-1
 738 699 l 1,1,-1
 738 562 l 1,2,-1
 361 562 l 2,3,4
 325 562 325 562 294 548.5 c 128,-1,5
 263 535 263 535 239.5 511.5 c 128,-1,6
 216 488 216 488 202.5 457 c 128,-1,7
 189 426 189 426 189 390 c 2,8,-1
 189 308 l 2,9,10
 189 273 189 273 202.5 242 c 128,-1,11
 216 211 216 211 239.5 187.5 c 128,-1,12
 263 164 263 164 294 150.5 c 128,-1,13
 325 137 325 137 361 137 c 2,14,-1
 738 137 l 1,15,-1
 738 -1 l 1,16,-1
 507 -1 l 1,17,-1
 485 -36 l 1,18,19
 493 -34 493 -34 501.5 -33 c 128,-1,20
 510 -32 510 -32 518 -32 c 0,21,22
 561 -32 561 -32 591.5 -55.5 c 128,-1,23
 622 -79 622 -79 622 -124 c 0,24,25
 622 -154 622 -154 609.5 -176 c 128,-1,26
 597 -198 597 -198 577 -212 c 128,-1,27
 557 -226 557 -226 531.5 -232.5 c 128,-1,28
 506 -239 506 -239 479 -239 c 0,29,30
 444 -239 444 -239 410 -229 c 128,-1,31
 376 -219 376 -219 346 -199 c 1,32,-1
 371 -139 l 1,33,34
 408 -165 408 -165 454 -167 c 0,35,36
 477 -167 477 -167 493.5 -156.5 c 128,-1,37
 510 -146 510 -146 510 -123 c 0,38,39
 509 -107 509 -107 497.5 -96 c 128,-1,40
 486 -85 486 -85 469 -85 c 0,41,42
 457 -85 457 -85 445 -87.5 c 128,-1,43
 433 -90 433 -90 422 -96 c 1,44,-1
 377 -69 l 1,45,-1
 424 -1 l 1,46,-1
 361 -1 l 2,47,48
 297 -1 297 -1 241 23.5 c 128,-1,49
 185 48 185 48 143 90 c 128,-1,50
 101 132 101 132 76.5 188 c 128,-1,51
 52 244 52 244 52 308 c 2,52,-1
 52 390 l 2,53,54
 52 454 52 454 76.5 510 c 128,-1,55
 101 566 101 566 143 608 c 128,-1,56
 185 650 185 650 241 674.5 c 128,-1,57
 297 699 297 699 361 699 c 2,0,-1
EndSplineSet
Validated: 1
EndChar

StartChar: Egrave
Encoding: 200 200 117
Width: 719
GlyphClass: 1
Flags: W
LayerCount: 3
Fore
SplineSet
80 699 m 1,0,-1
 657 699 l 1,1,-1
 657 562 l 1,2,-1
 217 562 l 1,3,-1
 217 137 l 1,4,-1
 657 137 l 1,5,-1
 657 -1 l 1,6,-1
 80 -1 l 1,7,-1
 80 699 l 1,0,-1
279 418 m 1,8,-1
 624 418 l 1,9,-1
 624 280 l 1,10,-1
 279 280 l 1,11,-1
 279 418 l 1,8,-1
376 948 m 1,12,-1
 451 762 l 1,13,-1
 381 762 l 1,14,-1
 251 948 l 1,15,-1
 376 948 l 1,12,-1
EndSplineSet
Validated: 1
EndChar

StartChar: Eacute
Encoding: 201 201 118
Width: 719
GlyphClass: 1
Flags: W
LayerCount: 3
Fore
SplineSet
80 699 m 1,0,-1
 657 699 l 1,1,-1
 657 562 l 1,2,-1
 217 562 l 1,3,-1
 217 137 l 1,4,-1
 657 137 l 1,5,-1
 657 -1 l 1,6,-1
 80 -1 l 1,7,-1
 80 699 l 1,0,-1
279 418 m 1,8,-1
 624 418 l 1,9,-1
 624 280 l 1,10,-1
 279 280 l 1,11,-1
 279 418 l 1,8,-1
344 948 m 1,12,-1
 469 948 l 1,13,-1
 339 762 l 1,14,-1
 269 762 l 1,15,-1
 344 948 l 1,12,-1
EndSplineSet
Validated: 1
EndChar

StartChar: Ecircumflex
Encoding: 202 202 119
Width: 719
GlyphClass: 1
Flags: W
LayerCount: 3
Fore
SplineSet
80 -1 m 1,0,-1
 80 699 l 1,1,-1
 657 699 l 1,2,-1
 657 562 l 1,3,-1
 217 562 l 1,4,-1
 217 137 l 1,5,-1
 657 137 l 1,6,-1
 657 -1 l 1,7,-1
 80 -1 l 1,0,-1
624 418 m 1,8,-1
 624 280 l 1,9,-1
 279 280 l 1,10,-1
 279 418 l 1,11,-1
 624 418 l 1,8,-1
207 762 m 1,12,-1
 336 948 l 1,13,-1
 401 948 l 1,14,-1
 531 762 l 1,15,-1
 405 762 l 1,16,-1
 369 854 l 1,17,-1
 332 762 l 1,18,-1
 207 762 l 1,12,-1
EndSplineSet
Validated: 1
EndChar

StartChar: Edieresis
Encoding: 203 203 120
Width: 719
GlyphClass: 1
Flags: W
LayerCount: 3
Fore
SplineSet
80 699 m 1,0,-1
 657 699 l 1,1,-1
 657 562 l 1,2,-1
 217 562 l 1,3,-1
 217 137 l 1,4,-1
 657 137 l 1,5,-1
 657 -1 l 1,6,-1
 80 -1 l 1,7,-1
 80 699 l 1,0,-1
624 418 m 1,8,-1
 624 280 l 1,9,-1
 279 280 l 1,10,-1
 279 418 l 1,11,-1
 624 418 l 1,8,-1
394 838 m 0,12,13
 394 869 394 869 415 891.5 c 128,-1,14
 436 914 436 914 468 914 c 256,15,16
 500 914 500 914 521.5 892 c 128,-1,17
 543 870 543 870 543 838 c 0,18,19
 543 807 543 807 521.5 785 c 128,-1,20
 500 763 500 763 468 762 c 0,21,22
 437 764 437 764 415.5 785 c 128,-1,23
 394 806 394 806 394 838 c 0,12,13
194 838 m 0,24,25
 194 870 194 870 215.5 892 c 128,-1,26
 237 914 237 914 269 914 c 256,27,28
 301 914 301 914 322 892 c 128,-1,29
 343 870 343 870 343 838 c 256,30,31
 343 806 343 806 322 785 c 128,-1,32
 301 764 301 764 269 762 c 0,33,34
 238 762 238 762 216 785 c 128,-1,35
 194 808 194 808 194 838 c 0,24,25
EndSplineSet
Validated: 1
EndChar

StartChar: Igrave
Encoding: 204 204 121
Width: 299
GlyphClass: 1
Flags: W
LayerCount: 3
Fore
SplineSet
178 762 m 1,0,-1
 49 948 l 1,1,-1
 174 948 l 1,2,-1
 249 762 l 1,3,-1
 178 762 l 1,0,-1
80 -1 m 1,4,-1
 80 699 l 1,5,-1
 218 699 l 1,6,-1
 218 -1 l 1,7,-1
 80 -1 l 1,4,-1
EndSplineSet
Validated: 1
EndChar

StartChar: Iacute
Encoding: 205 205 122
Width: 299
GlyphClass: 1
Flags: W
LayerCount: 3
Fore
SplineSet
120 762 m 1,0,-1
 49 762 l 1,1,-1
 124 948 l 1,2,-1
 249 948 l 1,3,-1
 120 762 l 1,0,-1
80 -1 m 1,4,-1
 80 699 l 1,5,-1
 218 699 l 1,6,-1
 218 -1 l 1,7,-1
 80 -1 l 1,4,-1
EndSplineSet
Validated: 1
EndChar

StartChar: Icircumflex
Encoding: 206 206 123
Width: 298
GlyphClass: 1
Flags: W
LayerCount: 3
Fore
SplineSet
80 -1 m 1,0,-1
 80 699 l 1,1,-1
 218 699 l 1,2,-1
 218 -1 l 1,3,-1
 80 -1 l 1,0,-1
-13 762 m 1,4,-1
 116 948 l 1,5,-1
 181 948 l 1,6,-1
 311 762 l 1,7,-1
 186 762 l 1,8,-1
 149 854 l 1,9,-1
 112 762 l 1,10,-1
 -13 762 l 1,4,-1
EndSplineSet
Validated: 1
EndChar

StartChar: Idieresis
Encoding: 207 207 124
Width: 297
GlyphClass: 1
Flags: W
LayerCount: 3
Fore
SplineSet
248 914 m 0,0,1
 280 914 280 914 301.5 892 c 128,-1,2
 323 870 323 870 323 838 c 0,3,4
 323 807 323 807 301.5 785 c 128,-1,5
 280 763 280 763 248 762 c 0,6,7
 216 764 216 764 195 785 c 128,-1,8
 174 806 174 806 174 838 c 0,9,10
 174 868 174 868 195 892 c 0,11,12
 217 914 217 914 248 914 c 0,0,1
123 838 m 0,13,14
 123 806 123 806 102 785 c 128,-1,15
 81 764 81 764 49 762 c 0,16,17
 18 762 18 762 -4 785 c 128,-1,18
 -26 808 -26 808 -26 838 c 0,19,20
 -26 870 -26 870 -4.5 892 c 128,-1,21
 17 914 17 914 49 914 c 0,22,23
 80 914 80 914 102 892 c 0,24,25
 123 868 123 868 123 838 c 0,13,14
80 -1 m 1,26,-1
 80 699 l 1,27,-1
 217 699 l 1,28,-1
 217 -1 l 1,29,-1
 80 -1 l 1,26,-1
EndSplineSet
Validated: 1
EndChar

StartChar: Ntilde
Encoding: 209 209 125
Width: 841
GlyphClass: 1
Flags: W
LayerCount: 3
Fore
SplineSet
240 699 m 1,0,-1
 623 206 l 1,1,-1
 623 699 l 1,2,-1
 761 699 l 1,3,-1
 761 -1 l 1,4,-1
 608 -1 l 1,5,-1
 217 487 l 1,6,-1
 217 -1 l 1,7,-1
 80 -1 l 1,8,-1
 80 699 l 1,9,-1
 240 699 l 1,0,-1
348 903 m 0,10,11
 371 903 371 903 391.5 895.5 c 128,-1,12
 412 888 412 888 430 879 c 128,-1,13
 448 870 448 870 464.5 862.5 c 128,-1,14
 481 855 481 855 496 855 c 0,15,16
 516 855 516 855 528 867.5 c 128,-1,17
 540 880 540 880 538 903 c 1,18,-1
 609 904 l 1,19,20
 615 840 615 840 588 800.5 c 128,-1,21
 561 761 561 761 498 761 c 2,22,-1
 496 761 l 2,23,24
 471 761 471 761 452 768 c 128,-1,25
 433 775 433 775 416 783.5 c 128,-1,26
 399 792 399 792 381.5 799 c 128,-1,27
 364 806 364 806 343 806 c 0,28,29
 323 806 323 806 312 795 c 128,-1,30
 301 784 301 784 301 759 c 1,31,-1
 231 759 l 1,32,33
 228 826 228 826 261.5 864.5 c 128,-1,34
 295 903 295 903 348 903 c 0,10,11
EndSplineSet
Validated: 33
EndChar

StartChar: Ograve
Encoding: 210 210 126
Width: 866
GlyphClass: 1
Flags: W
LayerCount: 3
Fore
SplineSet
462 762 m 1,0,-1
 333 948 l 1,1,-1
 458 948 l 1,2,-1
 533 762 l 1,3,-1
 462 762 l 1,0,-1
504 699 m 2,4,5
 568 699 568 699 624.5 674.5 c 128,-1,6
 681 650 681 650 723 608 c 128,-1,7
 765 566 765 566 789 510 c 128,-1,8
 813 454 813 454 813 390 c 2,9,-1
 813 308 l 2,10,11
 813 244 813 244 789 188 c 128,-1,12
 765 132 765 132 723 90 c 128,-1,13
 681 48 681 48 624.5 23.5 c 128,-1,14
 568 -1 568 -1 504 -1 c 2,15,-1
 361 -1 l 2,16,17
 297 -1 297 -1 241 23.5 c 128,-1,18
 185 48 185 48 143 90 c 128,-1,19
 101 132 101 132 76.5 188 c 128,-1,20
 52 244 52 244 52 308 c 2,21,-1
 52 390 l 2,22,23
 52 454 52 454 76.5 510 c 128,-1,24
 101 566 101 566 143 608 c 128,-1,25
 185 650 185 650 241 674.5 c 128,-1,26
 297 699 297 699 361 699 c 2,27,-1
 504 699 l 2,4,5
676 390 m 2,28,29
 676 426 676 426 662.5 457 c 128,-1,30
 649 488 649 488 625.5 511.5 c 128,-1,31
 602 535 602 535 571 548.5 c 128,-1,32
 540 562 540 562 504 562 c 2,33,-1
 361 562 l 2,34,35
 325 562 325 562 294 548.5 c 128,-1,36
 263 535 263 535 239.5 511.5 c 128,-1,37
 216 488 216 488 202.5 457 c 128,-1,38
 189 426 189 426 189 390 c 2,39,-1
 189 308 l 2,40,41
 189 273 189 273 202.5 242 c 128,-1,42
 216 211 216 211 239.5 187.5 c 128,-1,43
 263 164 263 164 294 150.5 c 128,-1,44
 325 137 325 137 361 137 c 2,45,-1
 504 137 l 2,46,47
 540 137 540 137 571 150.5 c 128,-1,48
 602 164 602 164 625.5 187.5 c 128,-1,49
 649 211 649 211 662.5 242 c 128,-1,50
 676 273 676 273 676 308 c 2,51,-1
 676 390 l 2,28,29
EndSplineSet
Validated: 1
EndChar

StartChar: Oacute
Encoding: 211 211 127
Width: 866
GlyphClass: 1
Flags: W
LayerCount: 3
Fore
SplineSet
404 765 m 1,0,-1
 333 764 l 1,1,-1
 408 950 l 1,2,-1
 533 951 l 1,3,-1
 404 765 l 1,0,-1
504 699 m 2,4,5
 568 699 568 699 624.5 674.5 c 128,-1,6
 681 650 681 650 723 608 c 128,-1,7
 765 566 765 566 789 510 c 128,-1,8
 813 454 813 454 813 390 c 2,9,-1
 813 308 l 2,10,11
 813 244 813 244 789 188 c 128,-1,12
 765 132 765 132 723 90 c 128,-1,13
 681 48 681 48 624.5 23.5 c 128,-1,14
 568 -1 568 -1 504 -1 c 2,15,-1
 361 -1 l 2,16,17
 297 -1 297 -1 241 23.5 c 128,-1,18
 185 48 185 48 143 90 c 128,-1,19
 101 132 101 132 76.5 188 c 128,-1,20
 52 244 52 244 52 308 c 2,21,-1
 52 390 l 2,22,23
 52 454 52 454 76.5 510 c 128,-1,24
 101 566 101 566 143 608 c 128,-1,25
 185 650 185 650 241 674.5 c 128,-1,26
 297 699 297 699 361 699 c 2,27,-1
 504 699 l 2,4,5
676 390 m 2,28,29
 676 426 676 426 662.5 457 c 128,-1,30
 649 488 649 488 625.5 511.5 c 128,-1,31
 602 535 602 535 571 548.5 c 128,-1,32
 540 562 540 562 504 562 c 2,33,-1
 361 562 l 2,34,35
 325 562 325 562 294 548.5 c 128,-1,36
 263 535 263 535 239.5 511.5 c 128,-1,37
 216 488 216 488 202.5 457 c 128,-1,38
 189 426 189 426 189 390 c 2,39,-1
 189 308 l 2,40,41
 189 273 189 273 202.5 242 c 128,-1,42
 216 211 216 211 239.5 187.5 c 128,-1,43
 263 164 263 164 294 150.5 c 128,-1,44
 325 137 325 137 361 137 c 2,45,-1
 504 137 l 2,46,47
 540 137 540 137 571 150.5 c 128,-1,48
 602 164 602 164 625.5 187.5 c 128,-1,49
 649 211 649 211 662.5 242 c 128,-1,50
 676 273 676 273 676 308 c 2,51,-1
 676 390 l 2,28,29
EndSplineSet
Validated: 1
EndChar

StartChar: Ocircumflex
Encoding: 212 212 128
Width: 866
GlyphClass: 1
Flags: W
LayerCount: 3
Fore
SplineSet
361 699 m 2,0,-1
 504 699 l 2,1,2
 568 699 568 699 624.5 674.5 c 128,-1,3
 681 650 681 650 723 608 c 128,-1,4
 765 566 765 566 789 510 c 128,-1,5
 813 454 813 454 813 390 c 2,6,-1
 813 308 l 2,7,8
 813 244 813 244 789 188 c 128,-1,9
 765 132 765 132 723 90 c 128,-1,10
 681 48 681 48 624.5 23.5 c 128,-1,11
 568 -1 568 -1 504 -1 c 2,12,-1
 361 -1 l 2,13,14
 297 -1 297 -1 241 23.5 c 128,-1,15
 185 48 185 48 143 90 c 128,-1,16
 101 132 101 132 76.5 188 c 128,-1,17
 52 244 52 244 52 308 c 2,18,-1
 52 390 l 2,19,20
 52 454 52 454 76.5 510 c 128,-1,21
 101 566 101 566 143 608 c 128,-1,22
 185 650 185 650 241 674.5 c 128,-1,23
 297 699 297 699 361 699 c 2,0,-1
189 390 m 2,24,-1
 189 308 l 2,25,26
 189 273 189 273 202.5 242 c 128,-1,27
 216 211 216 211 239.5 187.5 c 128,-1,28
 263 164 263 164 294 150.5 c 128,-1,29
 325 137 325 137 361 137 c 2,30,-1
 504 137 l 2,31,32
 540 137 540 137 571 150.5 c 128,-1,33
 602 164 602 164 625.5 187.5 c 128,-1,34
 649 211 649 211 662.5 242 c 128,-1,35
 676 273 676 273 676 308 c 2,36,-1
 676 390 l 2,37,38
 676 426 676 426 662.5 457 c 128,-1,39
 649 488 649 488 625.5 511.5 c 128,-1,40
 602 535 602 535 571 548.5 c 128,-1,41
 540 562 540 562 504 562 c 2,42,-1
 361 562 l 2,43,44
 325 562 325 562 294 548.5 c 128,-1,45
 263 535 263 535 239.5 511.5 c 128,-1,46
 216 488 216 488 202.5 457 c 128,-1,47
 189 426 189 426 189 390 c 2,24,-1
271 762 m 1,48,-1
 400 948 l 1,49,-1
 465 948 l 1,50,-1
 595 762 l 1,51,-1
 470 762 l 1,52,-1
 433 854 l 1,53,-1
 396 762 l 1,54,-1
 271 762 l 1,48,-1
EndSplineSet
Validated: 1
EndChar

StartChar: Otilde
Encoding: 213 213 129
Width: 866
GlyphClass: 1
Flags: W
LayerCount: 3
Fore
SplineSet
243 761 m 1,0,1
 240 828 240 828 273.5 866.5 c 128,-1,2
 307 905 307 905 361 905 c 0,3,4
 384 905 384 905 404.5 897.5 c 128,-1,5
 425 890 425 890 443 881 c 128,-1,6
 461 872 461 872 477 864.5 c 128,-1,7
 493 857 493 857 508 857 c 0,8,9
 528 857 528 857 540.5 869.5 c 128,-1,10
 553 882 553 882 551 905 c 1,11,-1
 622 905 l 1,12,13
 628 842 628 842 601 802 c 128,-1,14
 574 762 574 762 510 762 c 0,15,16
 485 762 485 762 465.5 769.5 c 128,-1,17
 446 777 446 777 429 785.5 c 128,-1,18
 412 794 412 794 394.5 801.5 c 128,-1,19
 377 809 377 809 355 809 c 0,20,21
 314 809 314 809 314 761 c 1,22,-1
 243 761 l 1,0,1
504 699 m 2,23,24
 568 699 568 699 624.5 674.5 c 128,-1,25
 681 650 681 650 723 608 c 128,-1,26
 765 566 765 566 789 510 c 128,-1,27
 813 454 813 454 813 390 c 2,28,-1
 813 308 l 2,29,30
 813 244 813 244 789 188 c 128,-1,31
 765 132 765 132 723 90 c 128,-1,32
 681 48 681 48 624.5 23.5 c 128,-1,33
 568 -1 568 -1 504 -1 c 2,34,-1
 361 -1 l 2,35,36
 297 -1 297 -1 241 23.5 c 128,-1,37
 185 48 185 48 143 90 c 128,-1,38
 101 132 101 132 76.5 188 c 128,-1,39
 52 244 52 244 52 308 c 2,40,-1
 52 390 l 2,41,42
 52 454 52 454 76.5 510 c 128,-1,43
 101 566 101 566 143 608 c 128,-1,44
 185 650 185 650 241 674.5 c 128,-1,45
 297 699 297 699 361 699 c 2,46,-1
 504 699 l 2,23,24
676 390 m 2,47,48
 676 426 676 426 662.5 457 c 128,-1,49
 649 488 649 488 625.5 511.5 c 128,-1,50
 602 535 602 535 571 548.5 c 128,-1,51
 540 562 540 562 504 562 c 2,52,-1
 361 562 l 2,53,54
 325 562 325 562 294 548.5 c 128,-1,55
 263 535 263 535 239.5 511.5 c 128,-1,56
 216 488 216 488 202.5 457 c 128,-1,57
 189 426 189 426 189 390 c 2,58,-1
 189 308 l 2,59,60
 189 273 189 273 202.5 242 c 128,-1,61
 216 211 216 211 239.5 187.5 c 128,-1,62
 263 164 263 164 294 150.5 c 128,-1,63
 325 137 325 137 361 137 c 2,64,-1
 504 137 l 2,65,66
 540 137 540 137 571 150.5 c 128,-1,67
 602 164 602 164 625.5 187.5 c 128,-1,68
 649 211 649 211 662.5 242 c 128,-1,69
 676 273 676 273 676 308 c 2,70,-1
 676 390 l 2,47,48
EndSplineSet
Validated: 33
EndChar

StartChar: Odieresis
Encoding: 214 214 130
Width: 866
GlyphClass: 1
Flags: W
LayerCount: 3
Fore
SplineSet
532 762 m 0,0,1
 501 764 501 764 480 785 c 0,2,3
 457 808 457 808 459 838 c 0,4,5
 458 868 458 868 480 892 c 0,6,7
 502 914 502 914 532 914 c 0,8,9
 564 914 564 914 585.5 892 c 128,-1,10
 607 870 607 870 607 838 c 0,11,12
 607 807 607 807 585.5 785 c 128,-1,13
 564 763 564 763 532 762 c 0,0,1
333 762 m 0,14,15
 302 762 302 762 280 785 c 128,-1,16
 258 808 258 808 258 838 c 0,17,18
 258 870 258 870 279.5 892 c 128,-1,19
 301 914 301 914 333 914 c 256,20,21
 365 914 365 914 386 892 c 128,-1,22
 407 870 407 870 407 838 c 256,23,24
 407 806 407 806 386 785 c 128,-1,25
 365 764 365 764 333 762 c 0,14,15
504 699 m 2,26,27
 568 699 568 699 624.5 674.5 c 128,-1,28
 681 650 681 650 723 608 c 128,-1,29
 765 566 765 566 789 510 c 128,-1,30
 813 454 813 454 813 390 c 2,31,-1
 813 308 l 2,32,33
 813 244 813 244 789 188 c 128,-1,34
 765 132 765 132 723 90 c 128,-1,35
 681 48 681 48 624.5 23.5 c 128,-1,36
 568 -1 568 -1 504 -1 c 2,37,-1
 361 -1 l 2,38,39
 297 -1 297 -1 241 23.5 c 128,-1,40
 185 48 185 48 143 90 c 128,-1,41
 101 132 101 132 76.5 188 c 128,-1,42
 52 244 52 244 52 308 c 2,43,-1
 52 390 l 2,44,45
 52 454 52 454 76.5 510 c 128,-1,46
 101 566 101 566 143 608 c 128,-1,47
 185 650 185 650 241 674.5 c 128,-1,48
 297 699 297 699 361 699 c 2,49,-1
 504 699 l 2,26,27
676 390 m 2,50,51
 676 426 676 426 662.5 457 c 128,-1,52
 649 488 649 488 625.5 511.5 c 128,-1,53
 602 535 602 535 571 548.5 c 128,-1,54
 540 562 540 562 504 562 c 2,55,-1
 361 562 l 2,56,57
 325 562 325 562 294 548.5 c 128,-1,58
 263 535 263 535 239.5 511.5 c 128,-1,59
 216 488 216 488 202.5 457 c 128,-1,60
 189 426 189 426 189 390 c 2,61,-1
 189 308 l 2,62,63
 189 273 189 273 202.5 242 c 128,-1,64
 216 211 216 211 239.5 187.5 c 128,-1,65
 263 164 263 164 294 150.5 c 128,-1,66
 325 137 325 137 361 137 c 2,67,-1
 504 137 l 2,68,69
 540 137 540 137 571 150.5 c 128,-1,70
 602 164 602 164 625.5 187.5 c 128,-1,71
 649 211 649 211 662.5 242 c 128,-1,72
 676 273 676 273 676 308 c 2,73,-1
 676 390 l 2,50,51
EndSplineSet
Validated: 33
EndChar

StartChar: multiply
Encoding: 215 215 131
Width: 391
GlyphClass: 1
Flags: W
LayerCount: 3
Fore
SplineSet
59 456 m 1,0,-1
 121 518 l 1,1,-1
 195 444 l 1,2,-1
 269 518 l 1,3,-1
 331 456 l 1,4,-1
 257 382 l 1,5,-1
 331 308 l 1,6,-1
 269 246 l 1,7,-1
 195 320 l 1,8,-1
 121 246 l 1,9,-1
 59 308 l 1,10,-1
 133 382 l 1,11,-1
 59 456 l 1,0,-1
EndSplineSet
Validated: 1
EndChar

StartChar: Oslash
Encoding: 216 216 132
Width: 866
GlyphClass: 1
Flags: W
LayerCount: 3
Fore
SplineSet
634 670 m 1,0,1
 675 651 675 651 708 622 c 128,-1,2
 741 593 741 593 764.5 556.5 c 128,-1,3
 788 520 788 520 801 477.5 c 128,-1,4
 814 435 814 435 814 390 c 2,5,-1
 814 308 l 2,6,7
 814 244 814 244 789.5 188 c 128,-1,8
 765 132 765 132 723 90 c 128,-1,9
 681 48 681 48 624.5 23.5 c 128,-1,10
 568 -1 568 -1 504 -1 c 2,11,-1
 361 -1 l 2,12,13
 343 -1 343 -1 323 2 c 1,14,-1
 310 -27 l 1,15,-1
 207 -27 l 1,16,-1
 232 28 l 1,17,18
 191 47 191 47 157.5 76 c 128,-1,19
 124 105 124 105 100.5 141.5 c 128,-1,20
 77 178 77 178 64.5 220.5 c 128,-1,21
 52 263 52 263 52 308 c 2,22,-1
 52 390 l 2,23,24
 52 454 52 454 76.5 510 c 128,-1,25
 101 566 101 566 143 608 c 128,-1,26
 185 650 185 650 241 674.5 c 128,-1,27
 297 699 297 699 361 699 c 2,28,-1
 504 699 l 2,29,30
 524 699 524 699 542 696 c 1,31,-1
 555 725 l 1,32,-1
 659 725 l 1,33,-1
 634 670 l 1,0,1
480 562 m 1,34,-1
 361 562 l 2,35,36
 325 562 325 562 294 548.5 c 128,-1,37
 263 535 263 535 239.5 511.5 c 128,-1,38
 216 488 216 488 202.5 457 c 128,-1,39
 189 426 189 426 189 390 c 2,40,-1
 189 308 l 2,41,42
 189 257 189 257 216.5 215 c 128,-1,43
 244 173 244 173 290 152 c 1,44,-1
 480 562 l 1,34,-1
676 390 m 2,45,46
 676 441 676 441 649 483 c 128,-1,47
 622 525 622 525 576 546 c 1,48,-1
 386 137 l 1,49,-1
 504 137 l 2,50,51
 540 137 540 137 571 150.5 c 128,-1,52
 602 164 602 164 625.5 187.5 c 128,-1,53
 649 211 649 211 662.5 242 c 128,-1,54
 676 273 676 273 676 308 c 2,55,-1
 676 390 l 2,45,46
EndSplineSet
Validated: 1
EndChar

StartChar: Ugrave
Encoding: 217 217 133
Width: 876
GlyphClass: 1
Flags: W
LayerCount: 3
Fore
SplineSet
66 699 m 1,0,-1
 203 699 l 1,1,-1
 203 308 l 2,2,3
 203 273 203 273 216.5 242 c 128,-1,4
 230 211 230 211 253.5 187.5 c 128,-1,5
 277 164 277 164 308 150.5 c 128,-1,6
 339 137 339 137 375 137 c 2,7,-1
 500 137 l 2,8,9
 536 137 536 137 567 150.5 c 128,-1,10
 598 164 598 164 621.5 187.5 c 128,-1,11
 645 211 645 211 658.5 242 c 128,-1,12
 672 273 672 273 672 308 c 2,13,-1
 672 699 l 1,14,-1
 810 699 l 1,15,-1
 810 308 l 2,16,17
 810 244 810 244 785.5 188 c 128,-1,18
 761 132 761 132 719 90 c 128,-1,19
 677 48 677 48 620.5 23.5 c 128,-1,20
 564 -1 564 -1 500 -1 c 2,21,-1
 375 -1 l 2,22,23
 311 -1 311 -1 255 23.5 c 128,-1,24
 199 48 199 48 157 90 c 128,-1,25
 115 132 115 132 90.5 188 c 128,-1,26
 66 244 66 244 66 308 c 2,27,-1
 66 699 l 1,0,-1
338 948 m 1,28,-1
 463 948 l 1,29,-1
 538 762 l 1,30,-1
 467 762 l 1,31,-1
 338 948 l 1,28,-1
EndSplineSet
Validated: 1
EndChar

StartChar: Uacute
Encoding: 218 218 134
Width: 876
GlyphClass: 1
Flags: W
LayerCount: 3
Fore
SplineSet
203 699 m 1,0,-1
 203 308 l 2,1,2
 203 273 203 273 216.5 242 c 128,-1,3
 230 211 230 211 253.5 187.5 c 128,-1,4
 277 164 277 164 308 150.5 c 128,-1,5
 339 137 339 137 375 137 c 2,6,-1
 500 137 l 2,7,8
 536 137 536 137 567 150.5 c 128,-1,9
 598 164 598 164 621.5 187.5 c 128,-1,10
 645 211 645 211 658.5 242 c 128,-1,11
 672 273 672 273 672 308 c 2,12,-1
 672 699 l 1,13,-1
 809 699 l 1,14,-1
 809 308 l 2,15,16
 809 244 809 244 785 188 c 128,-1,17
 761 132 761 132 719 90 c 128,-1,18
 677 48 677 48 620.5 23.5 c 128,-1,19
 564 -1 564 -1 500 -1 c 2,20,-1
 375 -1 l 2,21,22
 311 -1 311 -1 255 23.5 c 128,-1,23
 199 48 199 48 157 90 c 128,-1,24
 115 132 115 132 90.5 188 c 128,-1,25
 66 244 66 244 66 308 c 2,26,-1
 66 699 l 1,27,-1
 203 699 l 1,0,-1
413 948 m 1,28,-1
 538 948 l 1,29,-1
 408 762 l 1,30,-1
 338 762 l 1,31,-1
 413 948 l 1,28,-1
EndSplineSet
Validated: 1
EndChar

StartChar: Ucircumflex
Encoding: 219 219 135
Width: 876
GlyphClass: 1
Flags: W
LayerCount: 3
Fore
SplineSet
66 308 m 2,0,-1
 66 699 l 1,1,-1
 203 699 l 1,2,-1
 203 308 l 2,3,4
 203 273 203 273 216.5 242 c 128,-1,5
 230 211 230 211 253.5 187.5 c 128,-1,6
 277 164 277 164 308 150.5 c 128,-1,7
 339 137 339 137 375 137 c 2,8,-1
 500 137 l 2,9,10
 536 137 536 137 567 150.5 c 128,-1,11
 598 164 598 164 621.5 187.5 c 128,-1,12
 645 211 645 211 658.5 242 c 128,-1,13
 672 273 672 273 672 308 c 2,14,-1
 672 699 l 1,15,-1
 810 699 l 1,16,-1
 810 308 l 2,17,18
 810 244 810 244 785.5 188 c 128,-1,19
 761 132 761 132 719 90 c 128,-1,20
 677 48 677 48 620.5 23.5 c 128,-1,21
 564 -1 564 -1 500 -1 c 2,22,-1
 375 -1 l 2,23,24
 311 -1 311 -1 255 23.5 c 128,-1,25
 199 48 199 48 157 90 c 128,-1,26
 115 132 115 132 90.5 188 c 128,-1,27
 66 244 66 244 66 308 c 2,0,-1
405 948 m 1,28,-1
 470 948 l 1,29,-1
 600 762 l 1,30,-1
 475 762 l 1,31,-1
 438 854 l 1,32,-1
 401 762 l 1,33,-1
 276 762 l 1,34,-1
 405 948 l 1,28,-1
EndSplineSet
Validated: 1
EndChar

StartChar: Udieresis
Encoding: 220 220 136
Width: 876
GlyphClass: 1
Flags: W
LayerCount: 3
Fore
SplineSet
203 699 m 1,0,-1
 203 308 l 2,1,2
 203 273 203 273 216.5 242 c 128,-1,3
 230 211 230 211 253.5 187.5 c 128,-1,4
 277 164 277 164 308 150.5 c 128,-1,5
 339 137 339 137 375 137 c 2,6,-1
 500 137 l 2,7,8
 536 137 536 137 567 150.5 c 128,-1,9
 598 164 598 164 621.5 187.5 c 128,-1,10
 645 211 645 211 658.5 242 c 128,-1,11
 672 273 672 273 672 308 c 2,12,-1
 672 699 l 1,13,-1
 809 699 l 1,14,-1
 809 308 l 2,15,16
 809 244 809 244 785 188 c 128,-1,17
 761 132 761 132 719 90 c 128,-1,18
 677 48 677 48 620.5 23.5 c 128,-1,19
 564 -1 564 -1 500 -1 c 2,20,-1
 375 -1 l 2,21,22
 311 -1 311 -1 255 23.5 c 128,-1,23
 199 48 199 48 157 90 c 128,-1,24
 115 132 115 132 90.5 188 c 128,-1,25
 66 244 66 244 66 308 c 2,26,-1
 66 699 l 1,27,-1
 203 699 l 1,0,-1
464 838 m 256,28,29
 464 869 464 869 485 891 c 128,-1,30
 506 913 506 913 537 914 c 0,31,32
 569 914 569 914 590.5 892 c 128,-1,33
 612 870 612 870 612 838 c 0,34,35
 612 807 612 807 590.5 785 c 128,-1,36
 569 763 569 763 537 762 c 0,37,38
 506 764 506 764 485 785.5 c 128,-1,39
 464 807 464 807 464 838 c 256,28,29
339 914 m 0,40,41
 371 914 371 914 393 892 c 0,42,43
 410 875 410 875 414 852.5 c 128,-1,44
 418 830 418 830 409 809 c 0,45,46
 400 787 400 787 380.5 774.5 c 128,-1,47
 361 762 361 762 338 762 c 0,48,49
 307 762 307 762 285 784.5 c 128,-1,50
 263 807 263 807 263 838 c 0,51,52
 263 870 263 870 285.5 892 c 128,-1,53
 308 914 308 914 339 914 c 0,40,41
EndSplineSet
Validated: 33
EndChar

StartChar: Yacute
Encoding: 221 221 137
Width: 785
GlyphClass: 1
Flags: W
LayerCount: 3
Fore
SplineSet
7 699 m 1,0,-1
 162 699 l 1,1,-1
 392 411 l 1,2,-1
 622 699 l 1,3,-1
 777 699 l 1,4,-1
 461 317 l 1,5,-1
 461 -1 l 1,6,-1
 324 -1 l 1,7,-1
 324 317 l 1,8,-1
 7 699 l 1,0,-1
389 948 m 1,9,-1
 514 948 l 1,10,-1
 385 762 l 1,11,-1
 314 762 l 1,12,-1
 389 948 l 1,9,-1
EndSplineSet
Validated: 1
EndChar

StartChar: agrave
Encoding: 224 224 138
Width: 732
GlyphClass: 1
Flags: W
LayerCount: 3
Fore
SplineSet
402 566 m 1,0,-1
 273 752 l 1,1,-1
 398 752 l 1,2,-1
 473 566 l 1,3,-1
 402 566 l 1,0,-1
659 518 m 1,4,-1
 659 -1 l 1,5,-1
 294 -1 l 2,6,7
 243 -1 243 -1 198 18.5 c 128,-1,8
 153 38 153 38 120 71 c 128,-1,9
 87 104 87 104 67.5 149 c 128,-1,10
 48 194 48 194 48 245 c 2,11,-1
 48 272 l 2,12,13
 48 323 48 323 67.5 368 c 128,-1,14
 87 413 87 413 120 446 c 128,-1,15
 153 479 153 479 198 498.5 c 128,-1,16
 243 518 243 518 294 518 c 2,17,-1
 659 518 l 1,4,-1
522 381 m 1,18,-1
 294 381 l 2,19,20
 272 381 272 381 252 372.5 c 128,-1,21
 232 364 232 364 217 349 c 128,-1,22
 202 334 202 334 193.5 314.5 c 128,-1,23
 185 295 185 295 185 272 c 2,24,-1
 185 245 l 2,25,26
 185 223 185 223 193.5 203 c 128,-1,27
 202 183 202 183 217 168.5 c 128,-1,28
 232 154 232 154 252 145.5 c 128,-1,29
 272 137 272 137 294 137 c 2,30,-1
 522 137 l 1,31,-1
 522 381 l 1,18,-1
EndSplineSet
Validated: 1
EndChar

StartChar: aacute
Encoding: 225 225 139
Width: 732
GlyphClass: 1
Flags: W
LayerCount: 3
Fore
SplineSet
324 566 m 1,0,-1
 253 566 l 1,1,-1
 328 752 l 1,2,-1
 454 752 l 1,3,-1
 324 566 l 1,0,-1
659 518 m 1,4,-1
 659 -1 l 1,5,-1
 294 -1 l 2,6,7
 243 -1 243 -1 198 18.5 c 128,-1,8
 153 38 153 38 120 71 c 128,-1,9
 87 104 87 104 67.5 149 c 128,-1,10
 48 194 48 194 48 245 c 2,11,-1
 48 272 l 2,12,13
 48 323 48 323 67.5 368 c 128,-1,14
 87 413 87 413 120 446 c 128,-1,15
 153 479 153 479 198 498.5 c 128,-1,16
 243 518 243 518 294 518 c 2,17,-1
 659 518 l 1,4,-1
522 381 m 1,18,-1
 294 381 l 2,19,20
 272 381 272 381 252 372.5 c 128,-1,21
 232 364 232 364 217 349 c 128,-1,22
 202 334 202 334 193.5 314.5 c 128,-1,23
 185 295 185 295 185 272 c 2,24,-1
 185 245 l 2,25,26
 185 223 185 223 193.5 203 c 128,-1,27
 202 183 202 183 217 168.5 c 128,-1,28
 232 154 232 154 252 145.5 c 128,-1,29
 272 137 272 137 294 137 c 2,30,-1
 522 137 l 1,31,-1
 522 381 l 1,18,-1
EndSplineSet
Validated: 1
EndChar

StartChar: acircumflex
Encoding: 226 226 140
Width: 732
GlyphClass: 1
Flags: W
LayerCount: 3
Fore
SplineSet
294 518 m 2,0,-1
 659 518 l 1,1,-1
 659 -1 l 1,2,-1
 294 -1 l 2,3,4
 243 -1 243 -1 198 18.5 c 128,-1,5
 153 38 153 38 120 71 c 128,-1,6
 87 104 87 104 67.5 149 c 128,-1,7
 48 194 48 194 48 245 c 2,8,-1
 48 272 l 2,9,10
 48 323 48 323 67.5 368 c 128,-1,11
 87 413 87 413 120 446 c 128,-1,12
 153 479 153 479 198 498.5 c 128,-1,13
 243 518 243 518 294 518 c 2,0,-1
185 245 m 2,14,15
 185 223 185 223 193.5 203 c 128,-1,16
 202 183 202 183 217 168.5 c 128,-1,17
 232 154 232 154 252 145.5 c 128,-1,18
 272 137 272 137 294 137 c 2,19,-1
 522 137 l 1,20,-1
 522 381 l 1,21,-1
 294 381 l 2,22,23
 272 381 272 381 252 372.5 c 128,-1,24
 232 364 232 364 217 349 c 128,-1,25
 202 334 202 334 193.5 314.5 c 128,-1,26
 185 295 185 295 185 272 c 2,27,-1
 185 245 l 2,14,15
321 752 m 1,28,-1
 386 752 l 1,29,-1
 515 566 l 1,30,-1
 390 566 l 1,31,-1
 353 658 l 1,32,-1
 317 566 l 1,33,-1
 191 566 l 1,34,-1
 321 752 l 1,28,-1
EndSplineSet
Validated: 1
EndChar

StartChar: atilde
Encoding: 227 227 141
Width: 732
GlyphClass: 1
Flags: W
LayerCount: 3
Fore
SplineSet
185 565 m 1,0,1
 183 632 183 632 216.5 670.5 c 128,-1,2
 250 709 250 709 303 709 c 0,3,4
 326 709 326 709 346.5 701.5 c 128,-1,5
 367 694 367 694 385 685 c 128,-1,6
 403 676 403 676 419.5 668.5 c 128,-1,7
 436 661 436 661 451 661 c 0,8,9
 471 661 471 661 483.5 673.5 c 128,-1,10
 496 686 496 686 494 709 c 1,11,-1
 564 709 l 1,12,13
 570 646 570 646 543 606 c 128,-1,14
 516 566 516 566 453 566 c 0,15,16
 428 566 428 566 408.5 573 c 128,-1,17
 389 580 389 580 371.5 589 c 128,-1,18
 354 598 354 598 336.5 605 c 128,-1,19
 319 612 319 612 298 612 c 0,20,21
 278 612 278 612 267 601 c 128,-1,22
 256 590 256 590 256 565 c 1,23,-1
 185 565 l 1,0,1
659 518 m 1,24,-1
 659 -1 l 1,25,-1
 294 -1 l 2,26,27
 243 -1 243 -1 198 18.5 c 128,-1,28
 153 38 153 38 120 71 c 128,-1,29
 87 104 87 104 67.5 149 c 128,-1,30
 48 194 48 194 48 245 c 2,31,-1
 48 272 l 2,32,33
 48 323 48 323 67.5 368 c 128,-1,34
 87 413 87 413 120 446 c 128,-1,35
 153 479 153 479 198 498.5 c 128,-1,36
 243 518 243 518 294 518 c 2,37,-1
 659 518 l 1,24,-1
522 381 m 1,38,-1
 294 381 l 2,39,40
 272 381 272 381 252 372.5 c 128,-1,41
 232 364 232 364 217 349 c 128,-1,42
 202 334 202 334 193.5 314.5 c 128,-1,43
 185 295 185 295 185 272 c 2,44,-1
 185 245 l 2,45,46
 185 223 185 223 193.5 203 c 128,-1,47
 202 183 202 183 217 168.5 c 128,-1,48
 232 154 232 154 252 145.5 c 128,-1,49
 272 137 272 137 294 137 c 2,50,-1
 522 137 l 1,51,-1
 522 381 l 1,38,-1
EndSplineSet
Validated: 33
EndChar

StartChar: adieresis
Encoding: 228 228 142
Width: 732
GlyphClass: 1
Flags: W
LayerCount: 3
Fore
SplineSet
453 566 m 0,0,1
 422 567 422 567 400.5 589 c 128,-1,2
 379 611 379 611 379 642 c 256,3,4
 379 673 379 673 400.5 695 c 128,-1,5
 422 717 422 717 453 718 c 0,6,7
 484 717 484 717 506 695.5 c 128,-1,8
 528 674 528 674 528 642 c 0,9,10
 528 611 528 611 506 589 c 128,-1,11
 484 567 484 567 453 566 c 0,0,1
254 566 m 0,12,13
 222 566 222 566 200.5 588 c 128,-1,14
 179 610 179 610 179 642 c 256,15,16
 179 674 179 674 201.5 696 c 128,-1,17
 224 718 224 718 255 718 c 256,18,19
 286 718 286 718 309 695 c 0,20,21
 325 679 325 679 329.5 656.5 c 128,-1,22
 334 634 334 634 325 612 c 0,23,24
 316 591 316 591 296.5 578.5 c 128,-1,25
 277 566 277 566 254 566 c 0,12,13
659 518 m 1,26,-1
 659 -1 l 1,27,-1
 294 -1 l 2,28,29
 243 -1 243 -1 198 18.5 c 128,-1,30
 153 38 153 38 120 71 c 128,-1,31
 87 104 87 104 67.5 149 c 128,-1,32
 48 194 48 194 48 245 c 2,33,-1
 48 272 l 2,34,35
 48 323 48 323 67.5 368 c 128,-1,36
 87 413 87 413 120 446 c 128,-1,37
 153 479 153 479 198 498.5 c 128,-1,38
 243 518 243 518 294 518 c 2,39,-1
 659 518 l 1,26,-1
522 381 m 1,40,-1
 294 381 l 2,41,42
 272 381 272 381 252 372.5 c 128,-1,43
 232 364 232 364 217 349 c 128,-1,44
 202 334 202 334 193.5 314.5 c 128,-1,45
 185 295 185 295 185 272 c 2,46,-1
 185 245 l 2,47,48
 185 223 185 223 193.5 203 c 128,-1,49
 202 183 202 183 217 168.5 c 128,-1,50
 232 154 232 154 252 145.5 c 128,-1,51
 272 137 272 137 294 137 c 2,52,-1
 522 137 l 1,53,-1
 522 381 l 1,40,-1
EndSplineSet
Validated: 33
EndChar

StartChar: aring
Encoding: 229 229 143
Width: 732
GlyphClass: 1
Flags: W
LayerCount: 3
Fore
SplineSet
381 566 m 0,0,1
 358 566 358 566 337.5 575.5 c 128,-1,2
 317 585 317 585 301.5 600.5 c 128,-1,3
 286 616 286 616 276.5 636.5 c 128,-1,4
 267 657 267 657 267 680 c 0,5,6
 267 704 267 704 276 725 c 128,-1,7
 285 746 285 746 301 762 c 128,-1,8
 317 778 317 778 337.5 787 c 128,-1,9
 358 796 358 796 382 796 c 0,10,11
 429 796 429 796 463 762 c 0,12,13
 488 737 488 737 495 703 c 128,-1,14
 502 669 502 669 488 637 c 256,15,16
 474 605 474 605 445 585.5 c 128,-1,17
 416 566 416 566 381 566 c 0,0,1
381 724 m 0,18,19
 364 723 364 723 351.5 710 c 128,-1,20
 339 697 339 697 339 680 c 0,21,22
 340 663 340 663 352 651 c 128,-1,23
 364 639 364 639 381 638 c 0,24,25
 398 638 398 638 411 650 c 128,-1,26
 424 662 424 662 425 680 c 0,27,28
 424 698 424 698 411.5 710.5 c 128,-1,29
 399 723 399 723 381 724 c 0,18,19
659 518 m 1,30,-1
 659 -1 l 1,31,-1
 294 -1 l 2,32,33
 243 -1 243 -1 198 18.5 c 128,-1,34
 153 38 153 38 120 71 c 128,-1,35
 87 104 87 104 67.5 149 c 128,-1,36
 48 194 48 194 48 245 c 2,37,-1
 48 272 l 2,38,39
 48 323 48 323 67.5 368 c 128,-1,40
 87 413 87 413 120 446 c 128,-1,41
 153 479 153 479 198 498.5 c 128,-1,42
 243 518 243 518 294 518 c 2,43,-1
 659 518 l 1,30,-1
522 381 m 1,44,-1
 294 381 l 2,45,46
 272 381 272 381 252 372.5 c 128,-1,47
 232 364 232 364 217 349 c 128,-1,48
 202 334 202 334 193.5 314.5 c 128,-1,49
 185 295 185 295 185 272 c 2,50,-1
 185 245 l 2,51,52
 185 223 185 223 193.5 203 c 128,-1,53
 202 183 202 183 217 168.5 c 128,-1,54
 232 154 232 154 252 145.5 c 128,-1,55
 272 137 272 137 294 137 c 2,56,-1
 522 137 l 1,57,-1
 522 381 l 1,44,-1
EndSplineSet
Validated: 33
EndChar

StartChar: ae
Encoding: 230 230 144
Width: 1193
GlyphClass: 1
Flags: W
LayerCount: 3
Fore
SplineSet
48 245 m 2,0,-1
 48 272 l 2,1,2
 48 323 48 323 67.5 368 c 128,-1,3
 87 413 87 413 120 446 c 128,-1,4
 153 479 153 479 198 498.5 c 128,-1,5
 243 518 243 518 294 518 c 2,6,-1
 659 518 l 1,7,-1
 659 493 l 1,8,9
 709 518 709 518 768 518 c 2,10,-1
 898 518 l 2,11,12
 948 518 948 518 992.5 499 c 128,-1,13
 1037 480 1037 480 1070 447 c 128,-1,14
 1103 414 1103 414 1122 369.5 c 128,-1,15
 1141 325 1141 325 1141 275 c 2,16,-1
 1141 228 l 1,17,-1
 660 228 l 1,18,19
 667 188 667 188 697 162.5 c 128,-1,20
 727 137 727 137 768 137 c 2,21,-1
 1114 137 l 1,22,-1
 1114 -1 l 1,23,-1
 768 -1 l 2,24,25
 711 -1 711 -1 659 25 c 1,26,-1
 659 -1 l 1,27,-1
 294 -1 l 2,28,29
 243 -1 243 -1 198 18.5 c 128,-1,30
 153 38 153 38 120 71 c 128,-1,31
 87 104 87 104 67.5 149 c 128,-1,32
 48 194 48 194 48 245 c 2,0,-1
294 137 m 2,33,-1
 522 137 l 1,34,-1
 522 381 l 1,35,-1
 294 381 l 2,36,37
 272 381 272 381 252 372.5 c 128,-1,38
 232 364 232 364 217 349 c 128,-1,39
 202 334 202 334 193.5 314.5 c 128,-1,40
 185 295 185 295 185 272 c 2,41,-1
 185 245 l 2,42,43
 185 223 185 223 193.5 203 c 128,-1,44
 202 183 202 183 217 168.5 c 128,-1,45
 232 154 232 154 252 145.5 c 128,-1,46
 272 137 272 137 294 137 c 2,33,-1
660 290 m 1,47,-1
 1004 290 l 1,48,49
 998 315 998 315 984 336 c 0,50,51
 973 353 973 353 951 367 c 128,-1,52
 929 381 929 381 892 381 c 2,53,-1
 768 381 l 2,54,55
 727 381 727 381 697 355.5 c 128,-1,56
 667 330 667 330 660 290 c 1,47,-1
EndSplineSet
Validated: 1
EndChar

StartChar: ccedilla
Encoding: 231 231 145
Width: 712
GlyphClass: 1
Flags: W
LayerCount: 3
Fore
SplineSet
294 518 m 2,0,-1
 659 518 l 1,1,-1
 659 380 l 1,2,-1
 294 380 l 2,3,4
 272 380 272 380 252 371.5 c 128,-1,5
 232 363 232 363 217 348.5 c 128,-1,6
 202 334 202 334 193.5 314.5 c 128,-1,7
 185 295 185 295 185 272 c 2,8,-1
 185 245 l 2,9,10
 185 223 185 223 193.5 203 c 128,-1,11
 202 183 202 183 217 168.5 c 128,-1,12
 232 154 232 154 252 145.5 c 128,-1,13
 272 137 272 137 294 137 c 2,14,-1
 659 137 l 1,15,-1
 659 -1 l 1,16,-1
 419 -1 l 1,17,-1
 397 -36 l 1,18,19
 405 -34 405 -34 413.5 -33 c 128,-1,20
 422 -32 422 -32 430 -32 c 0,21,22
 474 -32 474 -32 504 -55.5 c 128,-1,23
 534 -79 534 -79 534 -124 c 0,24,25
 534 -156 534 -156 521.5 -177.5 c 128,-1,26
 509 -199 509 -199 488 -213 c 128,-1,27
 467 -227 467 -227 440.5 -233 c 128,-1,28
 414 -239 414 -239 387 -239 c 0,29,30
 316 -239 316 -239 258 -199 c 1,31,-1
 284 -139 l 1,32,33
 320 -165 320 -165 366 -167 c 0,34,35
 389 -167 389 -167 405.5 -156.5 c 128,-1,36
 422 -146 422 -146 422 -123 c 0,37,38
 421 -107 421 -107 409.5 -96 c 128,-1,39
 398 -85 398 -85 381 -85 c 0,40,41
 369 -85 369 -85 357 -87.5 c 128,-1,42
 345 -90 345 -90 334 -96 c 1,43,-1
 289 -69 l 1,44,-1
 337 -1 l 1,45,-1
 294 -1 l 2,46,47
 243 -1 243 -1 198.5 18.5 c 128,-1,48
 154 38 154 38 120.5 71 c 128,-1,49
 87 104 87 104 67.5 149 c 128,-1,50
 48 194 48 194 48 245 c 2,51,-1
 48 272 l 2,52,53
 48 323 48 323 67.5 367.5 c 128,-1,54
 87 412 87 412 120.5 445.5 c 128,-1,55
 154 479 154 479 198.5 498.5 c 128,-1,56
 243 518 243 518 294 518 c 2,0,-1
EndSplineSet
Validated: 1
EndChar

StartChar: egrave
Encoding: 232 232 146
Width: 719
GlyphClass: 1
Flags: W
LayerCount: 3
Fore
SplineSet
397 566 m 1,0,-1
 268 752 l 1,1,-1
 393 752 l 1,2,-1
 468 566 l 1,3,-1
 397 566 l 1,0,-1
668 228 m 1,4,-1
 187 228 l 1,5,6
 193 188 193 188 223.5 162.5 c 128,-1,7
 254 137 254 137 294 137 c 2,8,-1
 641 137 l 1,9,-1
 641 -1 l 1,10,-1
 294 -1 l 2,11,12
 243 -1 243 -1 198 18.5 c 128,-1,13
 153 38 153 38 120 71 c 128,-1,14
 87 104 87 104 67.5 149 c 128,-1,15
 48 194 48 194 48 245 c 2,16,-1
 48 272 l 2,17,18
 48 323 48 323 67.5 368 c 128,-1,19
 87 413 87 413 120 446 c 128,-1,20
 153 479 153 479 198 498.5 c 128,-1,21
 243 518 243 518 294 518 c 2,22,-1
 424 518 l 2,23,24
 475 518 475 518 519.5 499 c 128,-1,25
 564 480 564 480 597 447 c 128,-1,26
 630 414 630 414 649 369.5 c 128,-1,27
 668 325 668 325 668 275 c 2,28,-1
 668 228 l 1,4,-1
531 290 m 1,29,30
 525 315 525 315 511 336 c 0,31,32
 499 353 499 353 477 367 c 128,-1,33
 455 381 455 381 418 381 c 2,34,-1
 294 381 l 2,35,36
 254 381 254 381 223.5 355.5 c 128,-1,37
 193 330 193 330 187 290 c 1,38,-1
 531 290 l 1,29,30
EndSplineSet
Validated: 1
EndChar

StartChar: eacute
Encoding: 233 233 147
Width: 719
GlyphClass: 1
Flags: W
LayerCount: 3
Fore
SplineSet
330 566 m 1,0,-1
 260 566 l 1,1,-1
 335 752 l 1,2,-1
 460 752 l 1,3,-1
 330 566 l 1,0,-1
668 228 m 1,4,-1
 187 228 l 1,5,6
 193 188 193 188 223.5 162.5 c 128,-1,7
 254 137 254 137 294 137 c 2,8,-1
 641 137 l 1,9,-1
 641 -1 l 1,10,-1
 294 -1 l 2,11,12
 243 -1 243 -1 198 18.5 c 128,-1,13
 153 38 153 38 120 71 c 128,-1,14
 87 104 87 104 67.5 149 c 128,-1,15
 48 194 48 194 48 245 c 2,16,-1
 48 272 l 2,17,18
 48 323 48 323 67.5 368 c 128,-1,19
 87 413 87 413 120 446 c 128,-1,20
 153 479 153 479 198 498.5 c 128,-1,21
 243 518 243 518 294 518 c 2,22,-1
 424 518 l 2,23,24
 475 518 475 518 519.5 499 c 128,-1,25
 564 480 564 480 597 447 c 128,-1,26
 630 414 630 414 649 370 c 128,-1,27
 668 326 668 326 668 275 c 2,28,-1
 668 228 l 1,4,-1
531 290 m 1,29,30
 525 315 525 315 511 336 c 0,31,32
 499 353 499 353 477 367 c 128,-1,33
 455 381 455 381 419 381 c 2,34,-1
 294 381 l 2,35,36
 254 381 254 381 223.5 355.5 c 128,-1,37
 193 330 193 330 187 290 c 1,38,-1
 531 290 l 1,29,30
EndSplineSet
Validated: 1
EndChar

StartChar: ecircumflex
Encoding: 234 234 148
Width: 719
GlyphClass: 1
Flags: W
LayerCount: 3
Fore
SplineSet
48 245 m 2,0,-1
 48 272 l 2,1,2
 48 323 48 323 67.5 368 c 128,-1,3
 87 413 87 413 120 446 c 128,-1,4
 153 479 153 479 198 498.5 c 128,-1,5
 243 518 243 518 294 518 c 2,6,-1
 424 518 l 2,7,8
 475 518 475 518 519.5 499 c 128,-1,9
 564 480 564 480 597 447 c 128,-1,10
 630 414 630 414 649 369.5 c 128,-1,11
 668 325 668 325 668 275 c 2,12,-1
 668 228 l 1,13,-1
 187 228 l 1,14,15
 193 188 193 188 223.5 162.5 c 128,-1,16
 254 137 254 137 294 137 c 2,17,-1
 641 137 l 1,18,-1
 641 -1 l 1,19,-1
 294 -1 l 2,20,21
 243 -1 243 -1 198 18.5 c 128,-1,22
 153 38 153 38 120 71 c 128,-1,23
 87 104 87 104 67.5 149 c 128,-1,24
 48 194 48 194 48 245 c 2,0,-1
321 752 m 1,25,-1
 386 752 l 1,26,-1
 515 566 l 1,27,-1
 390 566 l 1,28,-1
 353 658 l 1,29,-1
 316 566 l 1,30,-1
 191 566 l 1,31,-1
 321 752 l 1,25,-1
187 290 m 1,32,-1
 531 290 l 1,33,34
 525 315 525 315 511 336 c 0,35,36
 499 353 499 353 477 367 c 128,-1,37
 455 381 455 381 418 381 c 2,38,-1
 294 381 l 2,39,40
 254 381 254 381 223.5 355.5 c 128,-1,41
 193 330 193 330 187 290 c 1,32,-1
EndSplineSet
Validated: 1
EndChar

StartChar: edieresis
Encoding: 235 235 149
Width: 719
GlyphClass: 1
Flags: W
LayerCount: 3
Fore
SplineSet
458 566 m 0,0,1
 426 567 426 567 405 589 c 128,-1,2
 384 611 384 611 384 642 c 256,3,4
 384 673 384 673 405 695 c 128,-1,5
 426 717 426 717 458 718 c 0,6,7
 489 717 489 717 510.5 695.5 c 128,-1,8
 532 674 532 674 532 642 c 0,9,10
 532 611 532 611 510.5 589 c 128,-1,11
 489 567 489 567 458 566 c 0,0,1
258 566 m 0,12,13
 227 566 227 566 205 588.5 c 128,-1,14
 183 611 183 611 183 642 c 0,15,16
 183 665 183 665 196 684.5 c 128,-1,17
 209 704 209 704 231 712 c 0,18,19
 245 718 245 718 259 718 c 0,20,21
 274 718 274 718 288 712 c 128,-1,22
 302 706 302 706 313 695 c 0,23,24
 330 679 330 679 334 656.5 c 128,-1,25
 338 634 338 634 329 612 c 0,26,27
 320 591 320 591 300.5 578.5 c 128,-1,28
 281 566 281 566 258 566 c 0,12,13
668 228 m 1,29,-1
 187 228 l 1,30,31
 193 188 193 188 223.5 162.5 c 128,-1,32
 254 137 254 137 294 137 c 2,33,-1
 641 137 l 1,34,-1
 641 -1 l 1,35,-1
 294 -1 l 2,36,37
 243 -1 243 -1 198 18.5 c 128,-1,38
 153 38 153 38 120 71 c 128,-1,39
 87 104 87 104 67.5 149 c 128,-1,40
 48 194 48 194 48 245 c 2,41,-1
 48 272 l 2,42,43
 48 323 48 323 67.5 368 c 128,-1,44
 87 413 87 413 120 446 c 128,-1,45
 153 479 153 479 198 498.5 c 128,-1,46
 243 518 243 518 294 518 c 2,47,-1
 424 518 l 2,48,49
 475 518 475 518 519.5 499 c 128,-1,50
 564 480 564 480 597 447 c 128,-1,51
 630 414 630 414 649 369.5 c 128,-1,52
 668 325 668 325 668 275 c 2,53,-1
 668 228 l 1,29,-1
531 290 m 1,54,55
 525 315 525 315 511 336 c 0,56,57
 499 353 499 353 477 367 c 128,-1,58
 455 381 455 381 419 381 c 2,59,-1
 294 381 l 2,60,61
 254 381 254 381 223.5 355.5 c 128,-1,62
 193 330 193 330 187 290 c 1,63,-1
 531 290 l 1,54,55
EndSplineSet
Validated: 33
EndChar

StartChar: igrave
Encoding: 236 236 150
Width: 285
GlyphClass: 1
Flags: W
LayerCount: 3
Fore
SplineSet
171 566 m 1,0,-1
 42 752 l 1,1,-1
 167 752 l 1,2,-1
 242 566 l 1,3,-1
 171 566 l 1,0,-1
73 -1 m 1,4,-1
 73 518 l 1,5,-1
 211 518 l 1,6,-1
 211 -1 l 1,7,-1
 73 -1 l 1,4,-1
EndSplineSet
Validated: 1
EndChar

StartChar: iacute
Encoding: 237 237 151
Width: 285
GlyphClass: 1
Flags: W
LayerCount: 3
Fore
SplineSet
113 566 m 1,0,-1
 42 566 l 1,1,-1
 117 752 l 1,2,-1
 242 752 l 1,3,-1
 113 566 l 1,0,-1
73 -1 m 1,4,-1
 73 518 l 1,5,-1
 211 518 l 1,6,-1
 211 -1 l 1,7,-1
 73 -1 l 1,4,-1
EndSplineSet
Validated: 1
EndChar

StartChar: icircumflex
Encoding: 238 238 152
Width: 284
GlyphClass: 1
Flags: W
LayerCount: 3
Fore
SplineSet
73 -1 m 1,0,-1
 73 518 l 1,1,-1
 211 518 l 1,2,-1
 211 -1 l 1,3,-1
 73 -1 l 1,0,-1
-20 566 m 1,4,-1
 109 752 l 1,5,-1
 174 752 l 1,6,-1
 304 566 l 1,7,-1
 179 566 l 1,8,-1
 142 658 l 1,9,-1
 105 566 l 1,10,-1
 -20 566 l 1,4,-1
EndSplineSet
Validated: 1
EndChar

StartChar: idieresis
Encoding: 239 239 153
Width: 283
GlyphClass: 1
Flags: W
LayerCount: 3
Fore
SplineSet
241 718 m 0,0,1
 273 717 273 717 294.5 695.5 c 128,-1,2
 316 674 316 674 316 642 c 0,3,4
 316 611 316 611 294.5 589 c 128,-1,5
 273 567 273 567 241 566 c 0,6,7
 210 567 210 567 188.5 589 c 128,-1,8
 167 611 167 611 167 642 c 256,9,10
 167 673 167 673 188.5 695 c 128,-1,11
 210 717 210 717 241 718 c 0,0,1
116 642 m 0,12,13
 116 610 116 610 95 589 c 128,-1,14
 74 568 74 568 42 566 c 0,15,16
 11 566 11 566 -11 587.5 c 128,-1,17
 -33 609 -33 609 -33 640 c 256,18,19
 -33 671 -33 671 -12 692.5 c 128,-1,20
 9 714 9 714 40 715 c 256,21,22
 71 716 71 716 93 694.5 c 128,-1,23
 115 673 115 673 116 642 c 0,12,13
73 -1 m 1,24,-1
 73 518 l 1,25,-1
 210 518 l 1,26,-1
 210 -1 l 1,27,-1
 73 -1 l 1,24,-1
EndSplineSet
Validated: 33
EndChar

StartChar: ntilde
Encoding: 241 241 154
Width: 733
GlyphClass: 1
Flags: W
LayerCount: 3
Fore
SplineSet
307 518 m 2,0,-1
 426 518 l 2,1,2
 477 518 477 518 522 498.5 c 128,-1,3
 567 479 567 479 600 446 c 128,-1,4
 633 413 633 413 652.5 368 c 128,-1,5
 672 323 672 323 672 272 c 2,6,-1
 672 -1 l 1,7,-1
 535 -1 l 1,8,-1
 535 272 l 2,9,10
 535 295 535 295 526.5 314.5 c 128,-1,11
 518 334 518 334 503 349 c 128,-1,12
 488 364 488 364 468.5 372.5 c 128,-1,13
 449 381 449 381 426 381 c 2,14,-1
 307 381 l 2,15,16
 285 381 285 381 265 372.5 c 128,-1,17
 245 364 245 364 230 349 c 128,-1,18
 215 334 215 334 206.5 314.5 c 128,-1,19
 198 295 198 295 198 272 c 2,20,-1
 198 -1 l 1,21,-1
 61 -1 l 1,22,-1
 61 272 l 2,23,24
 61 323 61 323 80.5 368 c 128,-1,25
 100 413 100 413 133 446 c 128,-1,26
 166 479 166 479 211 498.5 c 128,-1,27
 256 518 256 518 307 518 c 2,0,-1
295 709 m 0,28,29
 318 709 318 709 338.5 701.5 c 128,-1,30
 359 694 359 694 377 685 c 128,-1,31
 395 676 395 676 411 668.5 c 128,-1,32
 427 661 427 661 442 661 c 0,33,34
 462 661 462 661 474.5 673.5 c 128,-1,35
 487 686 487 686 485 709 c 1,36,-1
 555 709 l 1,37,38
 561 646 561 646 534 606 c 128,-1,39
 507 566 507 566 444 566 c 0,40,41
 419 566 419 566 399.5 573 c 128,-1,42
 380 580 380 580 362.5 589 c 128,-1,43
 345 598 345 598 327.5 605 c 128,-1,44
 310 612 310 612 289 612 c 0,45,46
 269 612 269 612 258 601 c 128,-1,47
 247 590 247 590 247 565 c 1,48,-1
 176 565 l 1,49,50
 174 632 174 632 207.5 670.5 c 128,-1,51
 241 709 241 709 295 709 c 0,28,29
EndSplineSet
Validated: 33
EndChar

StartChar: ograve
Encoding: 242 242 155
Width: 730
GlyphClass: 1
Flags: W
LayerCount: 3
Fore
SplineSet
394 566 m 1,0,-1
 265 752 l 1,1,-1
 390 752 l 1,2,-1
 465 566 l 1,3,-1
 394 566 l 1,0,-1
435 518 m 2,4,5
 486 518 486 518 531 498.5 c 128,-1,6
 576 479 576 479 609 446 c 128,-1,7
 642 413 642 413 661.5 368 c 128,-1,8
 681 323 681 323 681 272 c 2,9,-1
 681 245 l 2,10,11
 681 194 681 194 661.5 149 c 128,-1,12
 642 104 642 104 609 71 c 128,-1,13
 576 38 576 38 531 18.5 c 128,-1,14
 486 -1 486 -1 435 -1 c 2,15,-1
 294 -1 l 2,16,17
 243 -1 243 -1 198 18.5 c 128,-1,18
 153 38 153 38 120 71 c 128,-1,19
 87 104 87 104 67.5 149 c 128,-1,20
 48 194 48 194 48 245 c 2,21,-1
 48 272 l 2,22,23
 48 323 48 323 67.5 368 c 128,-1,24
 87 413 87 413 120 446 c 128,-1,25
 153 479 153 479 198 498.5 c 128,-1,26
 243 518 243 518 294 518 c 2,27,-1
 435 518 l 2,4,5
544 272 m 2,28,29
 544 295 544 295 535.5 314.5 c 128,-1,30
 527 334 527 334 512 349 c 128,-1,31
 497 364 497 364 477.5 372.5 c 128,-1,32
 458 381 458 381 435 381 c 2,33,-1
 294 381 l 2,34,35
 272 381 272 381 252 372.5 c 128,-1,36
 232 364 232 364 217 349 c 128,-1,37
 202 334 202 334 193.5 314.5 c 128,-1,38
 185 295 185 295 185 272 c 2,39,-1
 185 245 l 2,40,41
 185 223 185 223 193.5 203 c 128,-1,42
 202 183 202 183 217 168.5 c 128,-1,43
 232 154 232 154 252 145.5 c 128,-1,44
 272 137 272 137 294 137 c 2,45,-1
 435 137 l 2,46,47
 458 137 458 137 477.5 145.5 c 128,-1,48
 497 154 497 154 512 168.5 c 128,-1,49
 527 183 527 183 535.5 203 c 128,-1,50
 544 223 544 223 544 245 c 2,51,-1
 544 272 l 2,28,29
EndSplineSet
Validated: 1
EndChar

StartChar: oacute
Encoding: 243 243 156
Width: 730
GlyphClass: 1
Flags: W
LayerCount: 3
Fore
SplineSet
335 566 m 1,0,-1
 265 566 l 1,1,-1
 340 752 l 1,2,-1
 465 752 l 1,3,-1
 335 566 l 1,0,-1
435 518 m 2,4,5
 486 518 486 518 531 498.5 c 128,-1,6
 576 479 576 479 609 446 c 128,-1,7
 642 413 642 413 661.5 368 c 128,-1,8
 681 323 681 323 681 272 c 2,9,-1
 681 245 l 2,10,11
 681 194 681 194 661.5 149 c 128,-1,12
 642 104 642 104 609 71 c 128,-1,13
 576 38 576 38 531 18.5 c 128,-1,14
 486 -1 486 -1 435 -1 c 2,15,-1
 294 -1 l 2,16,17
 243 -1 243 -1 198 18.5 c 128,-1,18
 153 38 153 38 120 71 c 128,-1,19
 87 104 87 104 67.5 149 c 128,-1,20
 48 194 48 194 48 245 c 2,21,-1
 48 272 l 2,22,23
 48 323 48 323 67.5 368 c 128,-1,24
 87 413 87 413 120 446 c 128,-1,25
 153 479 153 479 198 498.5 c 128,-1,26
 243 518 243 518 294 518 c 2,27,-1
 435 518 l 2,4,5
544 272 m 2,28,29
 544 295 544 295 535.5 314.5 c 128,-1,30
 527 334 527 334 512 349 c 128,-1,31
 497 364 497 364 477.5 372.5 c 128,-1,32
 458 381 458 381 435 381 c 2,33,-1
 294 381 l 2,34,35
 272 381 272 381 252 372.5 c 128,-1,36
 232 364 232 364 217 349 c 128,-1,37
 202 334 202 334 193.5 314.5 c 128,-1,38
 185 295 185 295 185 272 c 2,39,-1
 185 245 l 2,40,41
 185 223 185 223 193.5 203 c 128,-1,42
 202 183 202 183 217 168.5 c 128,-1,43
 232 154 232 154 252 145.5 c 128,-1,44
 272 137 272 137 294 137 c 2,45,-1
 435 137 l 2,46,47
 458 137 458 137 477.5 145.5 c 128,-1,48
 497 154 497 154 512 168.5 c 128,-1,49
 527 183 527 183 535.5 203 c 128,-1,50
 544 223 544 223 544 245 c 2,51,-1
 544 272 l 2,28,29
EndSplineSet
Validated: 1
EndChar

StartChar: ocircumflex
Encoding: 244 244 157
Width: 730
GlyphClass: 1
Flags: W
LayerCount: 3
Fore
SplineSet
294 518 m 2,0,-1
 435 518 l 2,1,2
 486 518 486 518 531 498.5 c 128,-1,3
 576 479 576 479 609 446 c 128,-1,4
 642 413 642 413 661.5 368 c 128,-1,5
 681 323 681 323 681 272 c 2,6,-1
 681 245 l 2,7,8
 681 194 681 194 661.5 149 c 128,-1,9
 642 104 642 104 609 71 c 128,-1,10
 576 38 576 38 531 18.5 c 128,-1,11
 486 -1 486 -1 435 -1 c 2,12,-1
 294 -1 l 2,13,14
 243 -1 243 -1 198 18.5 c 128,-1,15
 153 38 153 38 120 71 c 128,-1,16
 87 104 87 104 67.5 149 c 128,-1,17
 48 194 48 194 48 245 c 2,18,-1
 48 272 l 2,19,20
 48 323 48 323 67.5 368 c 128,-1,21
 87 413 87 413 120 446 c 128,-1,22
 153 479 153 479 198 498.5 c 128,-1,23
 243 518 243 518 294 518 c 2,0,-1
185 272 m 2,24,-1
 185 245 l 2,25,26
 185 223 185 223 193.5 203 c 128,-1,27
 202 183 202 183 217 168.5 c 128,-1,28
 232 154 232 154 252 145.5 c 128,-1,29
 272 137 272 137 294 137 c 2,30,-1
 435 137 l 2,31,32
 458 137 458 137 477.5 145.5 c 128,-1,33
 497 154 497 154 512 168.5 c 128,-1,34
 527 183 527 183 535.5 203 c 128,-1,35
 544 223 544 223 544 245 c 2,36,-1
 544 272 l 2,37,38
 544 295 544 295 535.5 314.5 c 128,-1,39
 527 334 527 334 512 349 c 128,-1,40
 497 364 497 364 477.5 372.5 c 128,-1,41
 458 381 458 381 435 381 c 2,42,-1
 294 381 l 2,43,44
 272 381 272 381 252 372.5 c 128,-1,45
 232 364 232 364 217 349 c 128,-1,46
 202 334 202 334 193.5 314.5 c 128,-1,47
 185 295 185 295 185 272 c 2,24,-1
203 566 m 1,48,-1
 332 752 l 1,49,-1
 397 752 l 1,50,-1
 527 566 l 1,51,-1
 401 566 l 1,52,-1
 365 658 l 1,53,-1
 328 566 l 1,54,-1
 203 566 l 1,48,-1
EndSplineSet
Validated: 1
EndChar

StartChar: otilde
Encoding: 245 245 158
Width: 730
GlyphClass: 1
Flags: W
LayerCount: 3
Fore
SplineSet
175 565 m 1,0,1
 172 632 172 632 205.5 670.5 c 128,-1,2
 239 709 239 709 293 709 c 0,3,4
 316 709 316 709 336.5 701.5 c 128,-1,5
 357 694 357 694 375 685 c 128,-1,6
 393 676 393 676 409 668.5 c 128,-1,7
 425 661 425 661 440 661 c 0,8,9
 460 661 460 661 472.5 673.5 c 128,-1,10
 485 686 485 686 483 709 c 1,11,-1
 554 709 l 1,12,13
 560 646 560 646 533 606 c 128,-1,14
 506 566 506 566 442 566 c 0,15,16
 417 566 417 566 397.5 573 c 128,-1,17
 378 580 378 580 361 589 c 128,-1,18
 344 598 344 598 326.5 605 c 128,-1,19
 309 612 309 612 287 612 c 0,20,21
 246 612 246 612 246 565 c 1,22,-1
 175 565 l 1,0,1
435 518 m 2,23,24
 486 518 486 518 531 498.5 c 128,-1,25
 576 479 576 479 609 446 c 128,-1,26
 642 413 642 413 661.5 368 c 128,-1,27
 681 323 681 323 681 272 c 2,28,-1
 681 245 l 2,29,30
 681 194 681 194 661.5 149 c 128,-1,31
 642 104 642 104 609 71 c 128,-1,32
 576 38 576 38 531 18.5 c 128,-1,33
 486 -1 486 -1 435 -1 c 2,34,-1
 294 -1 l 2,35,36
 243 -1 243 -1 198 18.5 c 128,-1,37
 153 38 153 38 120 71 c 128,-1,38
 87 104 87 104 67.5 149 c 128,-1,39
 48 194 48 194 48 245 c 2,40,-1
 48 272 l 2,41,42
 48 323 48 323 67.5 368 c 128,-1,43
 87 413 87 413 120 446 c 128,-1,44
 153 479 153 479 198 498.5 c 128,-1,45
 243 518 243 518 294 518 c 2,46,-1
 435 518 l 2,23,24
544 272 m 2,47,48
 544 295 544 295 535.5 314.5 c 128,-1,49
 527 334 527 334 512 349 c 128,-1,50
 497 364 497 364 477.5 372.5 c 128,-1,51
 458 381 458 381 435 381 c 2,52,-1
 294 381 l 2,53,54
 272 381 272 381 252 372.5 c 128,-1,55
 232 364 232 364 217 349 c 128,-1,56
 202 334 202 334 193.5 314.5 c 128,-1,57
 185 295 185 295 185 272 c 2,58,-1
 185 245 l 2,59,60
 185 223 185 223 193.5 203 c 128,-1,61
 202 183 202 183 217 168.5 c 128,-1,62
 232 154 232 154 252 145.5 c 128,-1,63
 272 137 272 137 294 137 c 2,64,-1
 435 137 l 2,65,66
 458 137 458 137 477.5 145.5 c 128,-1,67
 497 154 497 154 512 168.5 c 128,-1,68
 527 183 527 183 535.5 203 c 128,-1,69
 544 223 544 223 544 245 c 2,70,-1
 544 272 l 2,47,48
EndSplineSet
Validated: 33
EndChar

StartChar: odieresis
Encoding: 246 246 159
Width: 730
GlyphClass: 1
Flags: W
LayerCount: 3
Fore
SplineSet
464 566 m 0,0,1
 433 567 433 567 411.5 589 c 128,-1,2
 390 611 390 611 390 642 c 256,3,4
 390 673 390 673 411.5 695 c 128,-1,5
 433 717 433 717 464 718 c 0,6,7
 496 717 496 717 517.5 695.5 c 128,-1,8
 539 674 539 674 539 642 c 0,9,10
 539 611 539 611 517.5 589 c 128,-1,11
 496 567 496 567 464 566 c 0,0,1
265 566 m 0,12,13
 234 566 234 566 212 588.5 c 128,-1,14
 190 611 190 611 190 642 c 0,15,16
 190 674 190 674 212.5 696 c 128,-1,17
 235 718 235 718 266 718 c 256,18,19
 297 718 297 718 320 695 c 0,20,21
 337 679 337 679 341 656.5 c 128,-1,22
 345 634 345 634 336 612 c 0,23,24
 327 591 327 591 307.5 578.5 c 128,-1,25
 288 566 288 566 265 566 c 0,12,13
435 518 m 2,26,27
 486 518 486 518 531 498.5 c 128,-1,28
 576 479 576 479 609 446 c 128,-1,29
 642 413 642 413 661.5 368 c 128,-1,30
 681 323 681 323 681 272 c 2,31,-1
 681 245 l 2,32,33
 681 194 681 194 661.5 149 c 128,-1,34
 642 104 642 104 609 71 c 128,-1,35
 576 38 576 38 531 18.5 c 128,-1,36
 486 -1 486 -1 435 -1 c 2,37,-1
 294 -1 l 2,38,39
 243 -1 243 -1 198 18.5 c 128,-1,40
 153 38 153 38 120 71 c 128,-1,41
 87 104 87 104 67.5 149 c 128,-1,42
 48 194 48 194 48 245 c 2,43,-1
 48 272 l 2,44,45
 48 323 48 323 67.5 368 c 128,-1,46
 87 413 87 413 120 446 c 128,-1,47
 153 479 153 479 198 498.5 c 128,-1,48
 243 518 243 518 294 518 c 2,49,-1
 435 518 l 2,26,27
544 272 m 2,50,51
 544 295 544 295 535.5 314.5 c 128,-1,52
 527 334 527 334 512 349 c 128,-1,53
 497 364 497 364 477.5 372.5 c 128,-1,54
 458 381 458 381 435 381 c 2,55,-1
 294 381 l 2,56,57
 272 381 272 381 252 372.5 c 128,-1,58
 232 364 232 364 217 349 c 128,-1,59
 202 334 202 334 193.5 314.5 c 128,-1,60
 185 295 185 295 185 272 c 2,61,-1
 185 245 l 2,62,63
 185 223 185 223 193.5 203 c 128,-1,64
 202 183 202 183 217 168.5 c 128,-1,65
 232 154 232 154 252 145.5 c 128,-1,66
 272 137 272 137 294 137 c 2,67,-1
 435 137 l 2,68,69
 458 137 458 137 477.5 145.5 c 128,-1,70
 497 154 497 154 512 168.5 c 128,-1,71
 527 183 527 183 535.5 203 c 128,-1,72
 544 223 544 223 544 245 c 2,73,-1
 544 272 l 2,50,51
EndSplineSet
Validated: 33
EndChar

StartChar: oslash
Encoding: 248 248 160
Width: 730
GlyphClass: 1
Flags: W
LayerCount: 3
Fore
SplineSet
548 491 m 1,0,1
 610 459 610 459 645.5 400 c 128,-1,2
 681 341 681 341 681 272 c 2,3,-1
 681 245 l 2,4,5
 681 194 681 194 661.5 149.5 c 128,-1,6
 642 105 642 105 609 71.5 c 128,-1,7
 576 38 576 38 531 18.5 c 128,-1,8
 486 -1 486 -1 435 -1 c 2,9,-1
 294 -1 l 2,10,11
 288 -1 288 -1 282 -0.5 c 128,-1,12
 276 0 276 0 269 1 c 1,13,-1
 242 -47 l 1,14,-1
 139 -47 l 1,15,-1
 181 27 l 1,16,17
 119 59 119 59 83.5 117.5 c 128,-1,18
 48 176 48 176 48 245 c 2,19,-1
 48 272 l 2,20,21
 48 323 48 323 67.5 368 c 128,-1,22
 87 413 87 413 120 446 c 128,-1,23
 153 479 153 479 198 498.5 c 128,-1,24
 243 518 243 518 294 518 c 2,25,-1
 435 518 l 2,26,27
 442 518 442 518 448 518 c 128,-1,28
 454 518 454 518 460 517 c 1,29,-1
 487 565 l 1,30,-1
 591 565 l 1,31,-1
 548 491 l 1,0,1
383 381 m 1,32,-1
 294 381 l 2,33,34
 272 381 272 381 252 372.5 c 128,-1,35
 232 364 232 364 217 349 c 128,-1,36
 202 334 202 334 193.5 314.5 c 128,-1,37
 185 295 185 295 185 272 c 2,38,-1
 185 245 l 2,39,40
 185 213 185 213 202.5 186.5 c 128,-1,41
 220 160 220 160 249 146 c 1,42,-1
 383 381 l 1,32,-1
544 272 m 2,43,44
 544 304 544 304 526.5 331 c 128,-1,45
 509 358 509 358 480 371 c 1,46,-1
 347 137 l 1,47,-1
 435 137 l 2,48,49
 458 137 458 137 477.5 145.5 c 128,-1,50
 497 154 497 154 512 168.5 c 128,-1,51
 527 183 527 183 535.5 203 c 128,-1,52
 544 223 544 223 544 245 c 2,53,-1
 544 272 l 2,43,44
EndSplineSet
Validated: 1
EndChar

StartChar: ugrave
Encoding: 249 249 161
Width: 731
GlyphClass: 1
Flags: W
LayerCount: 3
Fore
SplineSet
60 518 m 1,0,-1
 197 518 l 1,1,-1
 197 245 l 2,2,3
 197 223 197 223 205.5 203 c 128,-1,4
 214 183 214 183 229 168.5 c 128,-1,5
 244 154 244 154 264 145.5 c 128,-1,6
 284 137 284 137 306 137 c 2,7,-1
 425 137 l 2,8,9
 448 137 448 137 467.5 145.5 c 128,-1,10
 487 154 487 154 502 168.5 c 128,-1,11
 517 183 517 183 525.5 203 c 128,-1,12
 534 223 534 223 534 245 c 2,13,-1
 534 518 l 1,14,-1
 671 518 l 1,15,-1
 671 245 l 2,16,17
 671 194 671 194 651.5 149.5 c 128,-1,18
 632 105 632 105 599 71.5 c 128,-1,19
 566 38 566 38 521 18.5 c 128,-1,20
 476 -1 476 -1 425 -1 c 2,21,-1
 306 -1 l 2,22,23
 255 -1 255 -1 210 18.5 c 128,-1,24
 165 38 165 38 132 71.5 c 128,-1,25
 99 105 99 105 79.5 149.5 c 128,-1,26
 60 194 60 194 60 245 c 2,27,-1
 60 518 l 1,0,-1
265 752 m 1,28,-1
 391 752 l 1,29,-1
 466 566 l 1,30,-1
 395 566 l 1,31,-1
 265 752 l 1,28,-1
EndSplineSet
Validated: 1
EndChar

StartChar: uacute
Encoding: 250 250 162
Width: 731
GlyphClass: 1
Flags: W
LayerCount: 3
Fore
SplineSet
197 518 m 1,0,-1
 197 245 l 2,1,2
 197 223 197 223 205.5 203 c 128,-1,3
 214 183 214 183 229 168.5 c 128,-1,4
 244 154 244 154 264 145.5 c 128,-1,5
 284 137 284 137 306 137 c 2,6,-1
 425 137 l 2,7,8
 448 137 448 137 467.5 145.5 c 128,-1,9
 487 154 487 154 502 168.5 c 128,-1,10
 517 183 517 183 525.5 203 c 128,-1,11
 534 223 534 223 534 245 c 2,12,-1
 534 518 l 1,13,-1
 671 518 l 1,14,-1
 671 245 l 2,15,16
 671 194 671 194 651.5 149.5 c 128,-1,17
 632 105 632 105 599 71.5 c 128,-1,18
 566 38 566 38 521 18.5 c 128,-1,19
 476 -1 476 -1 425 -1 c 2,20,-1
 306 -1 l 2,21,22
 255 -1 255 -1 210 18.5 c 128,-1,23
 165 38 165 38 132 71.5 c 128,-1,24
 99 105 99 105 79.5 149.5 c 128,-1,25
 60 194 60 194 60 245 c 2,26,-1
 60 518 l 1,27,-1
 197 518 l 1,0,-1
340 752 m 1,28,-1
 466 752 l 1,29,-1
 336 566 l 1,30,-1
 265 566 l 1,31,-1
 340 752 l 1,28,-1
EndSplineSet
Validated: 1
EndChar

StartChar: ucircumflex
Encoding: 251 251 163
Width: 731
GlyphClass: 1
Flags: W
LayerCount: 3
Fore
SplineSet
60 245 m 2,0,-1
 60 518 l 1,1,-1
 197 518 l 1,2,-1
 197 245 l 2,3,4
 197 223 197 223 205.5 203 c 128,-1,5
 214 183 214 183 229 168.5 c 128,-1,6
 244 154 244 154 264 145.5 c 128,-1,7
 284 137 284 137 306 137 c 2,8,-1
 425 137 l 2,9,10
 448 137 448 137 467.5 145.5 c 128,-1,11
 487 154 487 154 502 168.5 c 128,-1,12
 517 183 517 183 525.5 203 c 128,-1,13
 534 223 534 223 534 245 c 2,14,-1
 534 518 l 1,15,-1
 671 518 l 1,16,-1
 671 245 l 2,17,18
 671 194 671 194 651.5 149.5 c 128,-1,19
 632 105 632 105 599 71.5 c 128,-1,20
 566 38 566 38 521 18.5 c 128,-1,21
 476 -1 476 -1 425 -1 c 2,22,-1
 306 -1 l 2,23,24
 255 -1 255 -1 210 18.5 c 128,-1,25
 165 38 165 38 132 71.5 c 128,-1,26
 99 105 99 105 79.5 149.5 c 128,-1,27
 60 194 60 194 60 245 c 2,0,-1
333 752 m 1,28,-1
 398 752 l 1,29,-1
 527 566 l 1,30,-1
 402 566 l 1,31,-1
 365 658 l 1,32,-1
 329 566 l 1,33,-1
 203 566 l 1,34,-1
 333 752 l 1,28,-1
EndSplineSet
Validated: 1
EndChar

StartChar: udieresis
Encoding: 252 252 164
Width: 731
GlyphClass: 1
Flags: W
LayerCount: 3
Fore
SplineSet
60 518 m 1,0,-1
 197 518 l 1,1,-1
 197 245 l 2,2,3
 197 223 197 223 205.5 203 c 128,-1,4
 214 183 214 183 229 168.5 c 128,-1,5
 244 154 244 154 264 145.5 c 128,-1,6
 284 137 284 137 306 137 c 2,7,-1
 425 137 l 2,8,9
 448 137 448 137 467.5 145.5 c 128,-1,10
 487 154 487 154 502 168.5 c 128,-1,11
 517 183 517 183 525.5 203 c 128,-1,12
 534 223 534 223 534 245 c 2,13,-1
 534 518 l 1,14,-1
 671 518 l 1,15,-1
 671 245 l 2,16,17
 671 194 671 194 651.5 149.5 c 128,-1,18
 632 105 632 105 599 71.5 c 128,-1,19
 566 38 566 38 521 18.5 c 128,-1,20
 476 -1 476 -1 425 -1 c 2,21,-1
 306 -1 l 2,22,23
 255 -1 255 -1 210 18.5 c 128,-1,24
 165 38 165 38 132 71.5 c 128,-1,25
 99 105 99 105 79.5 149.5 c 128,-1,26
 60 194 60 194 60 245 c 2,27,-1
 60 518 l 1,0,-1
391 642 m 256,28,29
 391 673 391 673 412.5 695 c 128,-1,30
 434 717 434 717 465 718 c 0,31,32
 496 717 496 717 518 695.5 c 128,-1,33
 540 674 540 674 540 642 c 0,34,35
 540 611 540 611 518 589 c 128,-1,36
 496 567 496 567 465 566 c 0,37,38
 434 567 434 567 412.5 589 c 128,-1,39
 391 611 391 611 391 642 c 256,28,29
267 718 m 256,40,41
 298 718 298 718 321 695 c 0,42,43
 337 679 337 679 341.5 656.5 c 128,-1,44
 346 634 346 634 337 612 c 0,45,46
 328 591 328 591 308.5 578.5 c 128,-1,47
 289 566 289 566 266 566 c 0,48,49
 234 566 234 566 212.5 588 c 128,-1,50
 191 610 191 610 191 642 c 256,51,52
 191 674 191 674 213.5 696 c 128,-1,53
 236 718 236 718 267 718 c 256,40,41
EndSplineSet
Validated: 33
EndChar

StartChar: yacute
Encoding: 253 253 165
Width: 744
GlyphClass: 1
Flags: W
LayerCount: 3
Fore
SplineSet
60 518 m 1,0,-1
 197 518 l 1,1,-1
 197 245 l 2,2,3
 197 223 197 223 205.5 203 c 128,-1,4
 214 183 214 183 229 168.5 c 128,-1,5
 244 154 244 154 264 145.5 c 128,-1,6
 284 137 284 137 306 137 c 2,7,-1
 425 137 l 2,8,9
 448 137 448 137 467.5 145.5 c 128,-1,10
 487 154 487 154 502 168.5 c 128,-1,11
 517 183 517 183 525.5 203 c 128,-1,12
 534 223 534 223 534 245 c 2,13,-1
 534 518 l 1,14,-1
 671 518 l 1,15,-1
 671 6 l 2,16,17
 671 -45 671 -45 651.5 -90 c 128,-1,18
 632 -135 632 -135 599 -168 c 128,-1,19
 566 -201 566 -201 521 -220.5 c 128,-1,20
 476 -240 476 -240 425 -240 c 2,21,-1
 119 -240 l 1,22,-1
 119 -103 l 1,23,-1
 425 -103 l 2,24,25
 448 -103 448 -103 467.5 -94.5 c 128,-1,26
 487 -86 487 -86 502 -71 c 128,-1,27
 517 -56 517 -56 525.5 -36.5 c 128,-1,28
 534 -17 534 -17 534 6 c 2,29,-1
 534 25 l 1,30,31
 482 -1 482 -1 425 -1 c 2,32,-1
 306 -1 l 2,33,34
 255 -1 255 -1 210 18.5 c 128,-1,35
 165 38 165 38 132 71.5 c 128,-1,36
 99 105 99 105 79.5 149.5 c 128,-1,37
 60 194 60 194 60 245 c 2,38,-1
 60 518 l 1,0,-1
340 752 m 1,39,-1
 466 752 l 1,40,-1
 336 566 l 1,41,-1
 265 566 l 1,42,-1
 340 752 l 1,39,-1
EndSplineSet
Validated: 1
EndChar

StartChar: ydieresis
Encoding: 255 255 166
Width: 744
GlyphClass: 1
Flags: W
LayerCount: 3
Fore
SplineSet
60 518 m 1,0,-1
 197 518 l 1,1,-1
 197 245 l 2,2,3
 197 223 197 223 205.5 203 c 128,-1,4
 214 183 214 183 229 168.5 c 128,-1,5
 244 154 244 154 264 145.5 c 128,-1,6
 284 137 284 137 306 137 c 2,7,-1
 425 137 l 2,8,9
 448 137 448 137 467.5 145.5 c 128,-1,10
 487 154 487 154 502 168.5 c 128,-1,11
 517 183 517 183 525.5 203 c 128,-1,12
 534 223 534 223 534 245 c 2,13,-1
 534 518 l 1,14,-1
 671 518 l 1,15,-1
 671 6 l 2,16,17
 671 -45 671 -45 651.5 -90 c 128,-1,18
 632 -135 632 -135 599 -168 c 128,-1,19
 566 -201 566 -201 521 -220.5 c 128,-1,20
 476 -240 476 -240 425 -240 c 2,21,-1
 119 -240 l 1,22,-1
 119 -103 l 1,23,-1
 425 -103 l 2,24,25
 448 -103 448 -103 467.5 -94.5 c 128,-1,26
 487 -86 487 -86 502 -71 c 128,-1,27
 517 -56 517 -56 525.5 -36.5 c 128,-1,28
 534 -17 534 -17 534 6 c 2,29,-1
 534 25 l 1,30,31
 482 -1 482 -1 425 -1 c 2,32,-1
 306 -1 l 2,33,34
 255 -1 255 -1 210 18.5 c 128,-1,35
 165 38 165 38 132 71.5 c 128,-1,36
 99 105 99 105 79.5 149.5 c 128,-1,37
 60 194 60 194 60 245 c 2,38,-1
 60 518 l 1,0,-1
391 642 m 256,39,40
 391 673 391 673 412.5 695 c 128,-1,41
 434 717 434 717 465 718 c 0,42,43
 497 717 497 717 518.5 695.5 c 128,-1,44
 540 674 540 674 540 642 c 0,45,46
 540 611 540 611 518.5 589 c 128,-1,47
 497 567 497 567 465 566 c 0,48,49
 434 567 434 567 412.5 589 c 128,-1,50
 391 611 391 611 391 642 c 256,39,40
191 642 m 256,51,52
 191 674 191 674 213.5 696 c 128,-1,53
 236 718 236 718 267 718 c 256,54,55
 298 718 298 718 321 695 c 0,56,57
 337 679 337 679 341.5 656.5 c 128,-1,58
 346 634 346 634 337 612 c 0,59,60
 328 591 328 591 308.5 578.5 c 128,-1,61
 289 566 289 566 266 566 c 0,62,63
 234 566 234 566 213 589 c 0,64,65
 191 610 191 610 191 642 c 256,51,52
EndSplineSet
Validated: 33
EndChar

StartChar: dotlessi
Encoding: 305 305 167
Width: 284
GlyphClass: 1
Flags: W
LayerCount: 3
Fore
SplineSet
73 -1 m 1,0,-1
 73 518 l 1,1,-1
 210 518 l 1,2,-1
 210 -1 l 1,3,-1
 73 -1 l 1,0,-1
EndSplineSet
Validated: 1
EndChar

StartChar: OE
Encoding: 338 338 168
Width: 1314
GlyphClass: 1
Flags: W
LayerCount: 3
Fore
SplineSet
52 308 m 2,0,-1
 52 390 l 2,1,2
 52 454 52 454 76.5 510 c 128,-1,3
 101 566 101 566 143 608 c 128,-1,4
 185 650 185 650 241 674.5 c 128,-1,5
 297 699 297 699 361 699 c 2,6,-1
 504 699 l 2,7,8
 599 699 599 699 676 646 c 1,9,-1
 676 699 l 1,10,-1
 1253 699 l 1,11,-1
 1253 562 l 1,12,-1
 813 562 l 1,13,-1
 813 137 l 1,14,-1
 1253 137 l 1,15,-1
 1253 -1 l 1,16,-1
 676 -1 l 1,17,-1
 676 52 l 1,18,19
 599 -1 599 -1 504 -1 c 2,20,-1
 361 -1 l 2,21,22
 297 -1 297 -1 241 23.5 c 128,-1,23
 185 48 185 48 143 90 c 128,-1,24
 101 132 101 132 76.5 188 c 128,-1,25
 52 244 52 244 52 308 c 2,0,-1
189 390 m 2,26,-1
 189 308 l 2,27,28
 189 273 189 273 202.5 242 c 128,-1,29
 216 211 216 211 239.5 187.5 c 128,-1,30
 263 164 263 164 294 150.5 c 128,-1,31
 325 137 325 137 361 137 c 2,32,-1
 504 137 l 2,33,34
 540 137 540 137 571 150.5 c 128,-1,35
 602 164 602 164 625.5 187.5 c 128,-1,36
 649 211 649 211 662.5 242 c 128,-1,37
 676 273 676 273 676 308 c 2,38,-1
 676 390 l 2,39,40
 676 426 676 426 662.5 457 c 128,-1,41
 649 488 649 488 625.5 511.5 c 128,-1,42
 602 535 602 535 571 548.5 c 128,-1,43
 540 562 540 562 504 562 c 2,44,-1
 361 562 l 2,45,46
 325 562 325 562 294 548.5 c 128,-1,47
 263 535 263 535 239.5 511.5 c 128,-1,48
 216 488 216 488 202.5 457 c 128,-1,49
 189 426 189 426 189 390 c 2,26,-1
1221 418 m 1,50,-1
 1221 280 l 1,51,-1
 875 280 l 1,52,-1
 875 418 l 1,53,-1
 1221 418 l 1,50,-1
EndSplineSet
Validated: 1
EndChar

StartChar: oe
Encoding: 339 339 169
Width: 1219
GlyphClass: 1
Flags: W
LayerCount: 3
Fore
SplineSet
294 518 m 2,0,-1
 435 518 l 2,1,2
 486 518 486 518 532.5 498 c 128,-1,3
 579 478 579 478 614 441 c 1,4,5
 649 478 649 478 696 498 c 128,-1,6
 743 518 743 518 794 518 c 2,7,-1
 924 518 l 2,8,9
 975 518 975 518 1019 499 c 128,-1,10
 1063 480 1063 480 1096 447 c 128,-1,11
 1129 414 1129 414 1148 370 c 128,-1,12
 1167 326 1167 326 1167 275 c 2,13,-1
 1167 228 l 1,14,-1
 686 228 l 1,15,16
 693 188 693 188 723 162.5 c 128,-1,17
 753 137 753 137 793 137 c 2,18,-1
 1140 137 l 1,19,-1
 1140 -1 l 1,20,-1
 793 -1 l 2,21,22
 742 -1 742 -1 695.5 19 c 128,-1,23
 649 39 649 39 614 77 c 1,24,25
 579 39 579 39 532.5 19 c 128,-1,26
 486 -1 486 -1 435 -1 c 2,27,-1
 294 -1 l 2,28,29
 243 -1 243 -1 198 18.5 c 128,-1,30
 153 38 153 38 120 71 c 128,-1,31
 87 104 87 104 67.5 149 c 128,-1,32
 48 194 48 194 48 245 c 2,33,-1
 48 272 l 2,34,35
 48 323 48 323 67.5 368 c 128,-1,36
 87 413 87 413 120 446 c 128,-1,37
 153 479 153 479 198 498.5 c 128,-1,38
 243 518 243 518 294 518 c 2,0,-1
185 245 m 2,39,40
 185 223 185 223 193.5 203 c 128,-1,41
 202 183 202 183 217 168.5 c 128,-1,42
 232 154 232 154 252 145.5 c 128,-1,43
 272 137 272 137 294 137 c 2,44,-1
 435 137 l 2,45,46
 458 137 458 137 477.5 145.5 c 128,-1,47
 497 154 497 154 512 168.5 c 128,-1,48
 527 183 527 183 535.5 203 c 128,-1,49
 544 223 544 223 544 245 c 2,50,-1
 544 272 l 2,51,52
 544 295 544 295 535.5 314.5 c 128,-1,53
 527 334 527 334 512 349 c 128,-1,54
 497 364 497 364 477.5 372.5 c 128,-1,55
 458 381 458 381 435 381 c 2,56,-1
 294 381 l 2,57,58
 272 381 272 381 252 372.5 c 128,-1,59
 232 364 232 364 217 349 c 128,-1,60
 202 334 202 334 193.5 314.5 c 128,-1,61
 185 295 185 295 185 272 c 2,62,-1
 185 245 l 2,39,40
1030 290 m 1,63,64
 1024 315 1024 315 1010 336 c 0,65,66
 998 353 998 353 976 367 c 128,-1,67
 954 381 954 381 918 381 c 2,68,-1
 794 381 l 2,69,70
 753 381 753 381 723 355.5 c 128,-1,71
 693 330 693 330 686 290 c 1,72,-1
 1030 290 l 1,63,64
EndSplineSet
Validated: 1
EndChar

StartChar: Scaron
Encoding: 352 352 170
Width: 800
GlyphClass: 1
Flags: W
LayerCount: 3
Fore
SplineSet
49 137 m 1,0,-1
 500 137 l 2,1,2
 546 137 546 137 577 158 c 128,-1,3
 608 179 608 179 608 209 c 0,4,5
 608 281 608 281 500 281 c 2,6,-1
 315 281 l 2,7,8
 259 281 259 281 213.5 296 c 128,-1,9
 168 311 168 311 136 338 c 128,-1,10
 104 365 104 365 86.5 403.5 c 128,-1,11
 69 442 69 442 69 490 c 0,12,13
 69 534 69 534 88 572 c 128,-1,14
 107 610 107 610 140 638.5 c 128,-1,15
 173 667 173 667 218 683 c 128,-1,16
 263 699 263 699 315 699 c 2,17,-1
 735 699 l 1,18,-1
 735 562 l 1,19,-1
 315 562 l 2,20,21
 269 562 269 562 237.5 541 c 128,-1,22
 206 520 206 520 206 490 c 0,23,24
 206 418 206 418 315 418 c 2,25,-1
 500 418 l 2,26,27
 556 418 556 418 601.5 403 c 128,-1,28
 647 388 647 388 679 361 c 128,-1,29
 711 334 711 334 728.5 295.5 c 128,-1,30
 746 257 746 257 746 209 c 0,31,32
 746 165 746 165 727 127 c 128,-1,33
 708 89 708 89 675 60.5 c 128,-1,34
 642 32 642 32 597 16 c 128,-1,35
 552 0 552 0 500 0 c 2,36,-1
 49 0 l 1,37,-1
 49 137 l 1,0,-1
361 948 m 1,38,-1
 397 857 l 1,39,-1
 434 948 l 1,40,-1
 559 948 l 1,41,-1
 430 762 l 1,42,-1
 365 762 l 1,43,-1
 235 948 l 1,44,-1
 361 948 l 1,38,-1
EndSplineSet
Validated: 1
EndChar

StartChar: scaron
Encoding: 353 353 171
Width: 706
GlyphClass: 1
Flags: W
LayerCount: 3
Fore
SplineSet
203 518 m 2,0,-1
 615 518 l 1,1,-1
 615 381 l 1,2,-1
 241 381 l 2,3,4
 222 381 222 381 208.5 368 c 128,-1,5
 195 355 195 355 195 335 c 0,6,7
 195 316 195 316 208.5 303 c 128,-1,8
 222 290 222 290 241 290 c 2,9,-1
 515 290 l 2,10,11
 545 290 545 290 571.5 278.5 c 128,-1,12
 598 267 598 267 617.5 247.5 c 128,-1,13
 637 228 637 228 648.5 201.5 c 128,-1,14
 660 175 660 175 660 145 c 256,15,16
 660 115 660 115 648.5 88 c 128,-1,17
 637 61 637 61 617.5 41.5 c 128,-1,18
 598 22 598 22 571.5 10.5 c 128,-1,19
 545 -1 545 -1 515 -1 c 2,20,-1
 58 -1 l 1,21,-1
 58 137 l 1,22,-1
 477 137 l 2,23,24
 504 137 504 137 517 159 c 0,25,26
 530 182 530 182 517 205 c 0,27,28
 511 216 511 216 500 222 c 128,-1,29
 489 228 489 228 477 228 c 2,30,-1
 203 228 l 2,31,32
 173 228 173 228 146.5 239.5 c 128,-1,33
 120 251 120 251 100.5 270.5 c 128,-1,34
 81 290 81 290 69.5 316.5 c 128,-1,35
 58 343 58 343 58 373 c 256,36,37
 58 403 58 403 69.5 429.5 c 128,-1,38
 81 456 81 456 100.5 475.5 c 128,-1,39
 120 495 120 495 146.5 506.5 c 128,-1,40
 173 518 173 518 203 518 c 2,0,-1
322 752 m 1,41,-1
 359 661 l 1,42,-1
 396 752 l 1,43,-1
 521 752 l 1,44,-1
 391 566 l 1,45,-1
 326 566 l 1,46,-1
 197 752 l 1,47,-1
 322 752 l 1,41,-1
EndSplineSet
Validated: 33
EndChar

StartChar: Ydieresis
Encoding: 376 376 172
Width: 785
GlyphClass: 1
Flags: W
LayerCount: 3
Fore
SplineSet
7 699 m 1,0,-1
 162 699 l 1,1,-1
 392 411 l 1,2,-1
 622 699 l 1,3,-1
 777 699 l 1,4,-1
 461 317 l 1,5,-1
 461 -1 l 1,6,-1
 324 -1 l 1,7,-1
 324 317 l 1,8,-1
 7 699 l 1,0,-1
492 914 m 0,9,10
 523 914 523 914 545 892 c 128,-1,11
 567 870 567 870 567 838 c 0,12,13
 567 807 567 807 545 785 c 128,-1,14
 523 763 523 763 492 762 c 0,15,16
 461 764 461 764 439.5 785.5 c 128,-1,17
 418 807 418 807 418 838 c 256,18,19
 418 869 418 869 439.5 891 c 128,-1,20
 461 913 461 913 492 914 c 0,9,10
218 838 m 0,21,22
 218 861 218 861 230.5 880.5 c 128,-1,23
 243 900 243 900 265 908 c 0,24,25
 279 914 279 914 294 914 c 0,26,27
 324 914 324 914 348 892 c 0,28,29
 364 875 364 875 368 852.5 c 128,-1,30
 372 830 372 830 363 809 c 0,31,32
 354 787 354 787 335 774.5 c 128,-1,33
 316 762 316 762 293 762 c 0,34,35
 278 762 278 762 264 768 c 128,-1,36
 250 774 250 774 239 785 c 0,37,38
 216 808 216 808 218 838 c 0,21,22
EndSplineSet
Validated: 33
EndChar

StartChar: Zcaron
Encoding: 381 381 173
Width: 683
GlyphClass: 1
Flags: W
LayerCount: 3
Fore
SplineSet
54 101 m 2,0,-1
 440 562 l 1,1,-1
 42 562 l 1,2,-1
 42 699 l 1,3,-1
 575 699 l 2,4,5
 593 699 593 699 608.5 690 c 128,-1,6
 624 681 624 681 632 664 c 0,7,8
 641 648 641 648 640 630 c 128,-1,9
 639 612 639 612 628 597 c 2,10,-1
 242 137 l 1,11,-1
 640 137 l 1,12,-1
 640 -1 l 1,13,-1
 107 -1 l 2,14,15
 89 -1 89 -1 73.5 8.5 c 128,-1,16
 58 18 58 18 50 34 c 0,17,18
 41 51 41 51 42 68.5 c 128,-1,19
 43 86 43 86 54 101 c 2,0,-1
179 948 m 1,20,-1
 304 948 l 1,21,-1
 341 857 l 1,22,-1
 378 948 l 1,23,-1
 503 948 l 1,24,-1
 374 762 l 1,25,-1
 308 762 l 1,26,-1
 179 948 l 1,20,-1
EndSplineSet
Validated: 33
EndChar

StartChar: zcaron
Encoding: 382 382 174
Width: 648
GlyphClass: 1
Flags: W
LayerCount: 3
Fore
SplineSet
55 95 m 1,0,-1
 380 381 l 1,1,-1
 61 381 l 1,2,-1
 61 518 l 1,3,-1
 545 518 l 2,4,5
 562 518 562 518 576 509.5 c 128,-1,6
 590 501 590 501 598 485 c 0,7,8
 606 470 606 470 604.5 453.5 c 128,-1,9
 603 437 603 437 593 423 c 2,10,-1
 268 137 l 1,11,-1
 587 137 l 1,12,-1
 587 -1 l 1,13,-1
 103 -1 l 2,14,15
 86 -1 86 -1 71.5 8 c 128,-1,16
 57 17 57 17 49 32 c 0,17,18
 33 66 33 66 55 95 c 1,0,-1
162 752 m 1,19,-1
 287 752 l 1,20,-1
 324 661 l 1,21,-1
 361 752 l 1,22,-1
 486 752 l 1,23,-1
 356 566 l 1,24,-1
 291 566 l 1,25,-1
 162 752 l 1,19,-1
EndSplineSet
Validated: 33
EndChar

StartChar: endash
Encoding: 8211 8211 175
Width: 651
GlyphClass: 1
Flags: W
LayerCount: 3
Fore
SplineSet
49 331 m 1,0,-1
 49 434 l 1,1,-1
 602 434 l 1,2,-1
 602 331 l 1,3,-1
 49 331 l 1,0,-1
EndSplineSet
Validated: 1
EndChar

StartChar: emdash
Encoding: 8212 8212 176
Width: 935
GlyphClass: 1
Flags: W
LayerCount: 3
Fore
SplineSet
49 331 m 1,0,-1
 49 434 l 1,1,-1
 886 434 l 1,2,-1
 886 331 l 1,3,-1
 49 331 l 1,0,-1
EndSplineSet
Validated: 1
EndChar

StartChar: quoteleft
Encoding: 8216 8216 177
Width: 244
GlyphClass: 1
Flags: W
LayerCount: 3
Fore
SplineSet
183 751 m 1,0,-1
 183 483 l 1,1,-1
 98 483 l 1,2,-1
 46 751 l 1,3,-1
 183 751 l 1,0,-1
EndSplineSet
Validated: 1
EndChar

StartChar: quoteright
Encoding: 8217 8217 178
Width: 244
GlyphClass: 1
Flags: W
LayerCount: 3
Fore
SplineSet
197 751 m 1,0,-1
 146 483 l 1,1,-1
 60 483 l 1,2,-1
 60 751 l 1,3,-1
 197 751 l 1,0,-1
EndSplineSet
Validated: 1
EndChar

StartChar: quotesinglbase
Encoding: 8218 8218 179
Width: 238
GlyphClass: 1
Flags: W
LayerCount: 3
Fore
SplineSet
186 147 m 1,0,-1
 135 -122 l 1,1,-1
 54 -122 l 1,2,-1
 54 147 l 1,3,-1
 186 147 l 1,0,-1
EndSplineSet
Validated: 1
EndChar

StartChar: quotedblleft
Encoding: 8220 8220 180
Width: 464
GlyphClass: 1
Flags: W
LayerCount: 3
Fore
SplineSet
247 390 m 1,0,-1
 388 390 l 1,1,-1
 388 189 l 1,2,-1
 247 189 l 1,3,-1
 247 390 l 1,0,-1
61 648 m 1,4,-1
 205 648 l 1,5,-1
 205 453 l 1,6,-1
 61 453 l 1,7,-1
 61 648 l 1,4,-1
EndSplineSet
Validated: 1
EndChar

StartChar: quotedblright
Encoding: 8221 8221 181
Width: 464
GlyphClass: 1
Flags: W
LayerCount: 3
Fore
SplineSet
61 400 m 5,0,-1
 202 400 l 5,1,-1
 202 199 l 5,2,-1
 61 199 l 5,3,-1
 61 400 l 5,0,-1
253 652 m 5,4,-1
 397 652 l 5,5,-1
 397 457 l 5,6,-1
 253 457 l 5,7,-1
 253 652 l 5,4,-1
EndSplineSet
Validated: 1
EndChar

StartChar: quotedblbase
Encoding: 8222 8222 182
Width: 458
GlyphClass: 1
Flags: W
LayerCount: 3
Fore
SplineSet
274 -122 m 1,0,-1
 274 147 l 1,1,-1
 406 147 l 1,2,-1
 355 -122 l 1,3,-1
 274 -122 l 1,0,-1
186 147 m 1,4,-1
 135 -122 l 1,5,-1
 54 -122 l 1,6,-1
 54 147 l 1,7,-1
 186 147 l 1,4,-1
EndSplineSet
Validated: 1
EndChar

StartChar: dagger
Encoding: 8224 8224 183
Width: 477
GlyphClass: 1
Flags: W
LayerCount: 3
Fore
SplineSet
187 550 m 1,0,-1
 187 659 l 1,1,-1
 290 659 l 1,2,-1
 290 550 l 1,3,-1
 417 550 l 1,4,-1
 417 447 l 1,5,-1
 290 447 l 1,6,-1
 290 106 l 1,7,-1
 187 106 l 1,8,-1
 187 447 l 1,9,-1
 60 447 l 1,10,-1
 60 550 l 1,11,-1
 187 550 l 1,0,-1
EndSplineSet
Validated: 1
EndChar

StartChar: bullet
Encoding: 8226 8226 184
Width: 419
GlyphClass: 1
Flags: W
LayerCount: 3
Fore
SplineSet
346 441 m 0,0,1
 358 414 358 414 358 383 c 0,2,3
 358 351 358 351 345.5 323.5 c 128,-1,4
 333 296 333 296 312 276.5 c 128,-1,5
 291 257 291 257 263 246 c 128,-1,6
 235 235 235 235 203 235 c 0,7,8
 189 235 189 235 176 238 c 128,-1,9
 163 241 163 241 151 246 c 0,10,11
 109 265 109 265 85 301 c 128,-1,12
 61 337 61 337 61 383 c 0,13,14
 61 412 61 412 71.5 440 c 128,-1,15
 82 468 82 468 104 488 c 0,16,17
 124 509 124 509 151.5 520.5 c 128,-1,18
 179 532 179 532 208 532 c 0,19,20
 253 532 253 532 290.5 507 c 128,-1,21
 328 482 328 482 346 441 c 0,0,1
EndSplineSet
Validated: 1
EndChar

StartChar: ellipsis
Encoding: 8230 8230 185
Width: 1326
GlyphClass: 1
Flags: W
LayerCount: 3
Fore
SplineSet
120 132 m 0,0,1
 150 132 150 132 171 112.5 c 128,-1,2
 192 93 192 93 192 62 c 0,3,4
 192 30 192 30 170.5 11 c 128,-1,5
 149 -8 149 -8 117 -8 c 0,6,7
 88 -8 88 -8 69.5 13 c 128,-1,8
 51 34 51 34 51 62 c 0,9,10
 51 91 51 91 71 111.5 c 128,-1,11
 91 132 91 132 120 132 c 0,0,1
662 132 m 256,12,13
 692 132 692 132 712.5 112 c 128,-1,14
 733 92 733 92 733 62 c 0,15,16
 733 30 733 30 711 11 c 128,-1,17
 689 -8 689 -8 658 -8 c 0,18,19
 629 -8 629 -8 610.5 13 c 128,-1,20
 592 34 592 34 592 62 c 0,21,22
 592 93 592 93 612 112.5 c 128,-1,23
 632 132 632 132 662 132 c 256,12,13
1254 112 m 0,24,25
 1264 102 1264 102 1269.5 89 c 128,-1,26
 1275 76 1275 76 1274 62 c 0,27,28
 1275 48 1275 48 1269.5 35 c 128,-1,29
 1264 22 1264 22 1254 12 c 0,30,31
 1242 1 1242 1 1229.5 -3.5 c 128,-1,32
 1217 -8 1217 -8 1200 -8 c 0,33,34
 1172 -8 1172 -8 1154 12 c 0,35,36
 1144 22 1144 22 1138.5 35 c 128,-1,37
 1133 48 1133 48 1134 62 c 0,38,39
 1133 91 1133 91 1154 112 c 0,40,41
 1165 123 1165 123 1177.5 127.5 c 128,-1,42
 1190 132 1190 132 1206 132 c 0,43,44
 1220 132 1220 132 1232 126.5 c 128,-1,45
 1244 121 1244 121 1254 112 c 0,24,25
EndSplineSet
Validated: 33
EndChar

StartChar: guilsinglleft
Encoding: 8249 8249 186
Width: 427
GlyphClass: 1
Flags: W
LayerCount: 3
Fore
SplineSet
70 553 m 5,0,-1
 70 620 l 5,1,-1
 140 620 l 5,2,-1
 275 620 l 5,3,-1
 357 620 l 5,4,-1
 357 553 l 5,5,-1
 357 457 l 5,6,-1
 275 457 l 5,7,-1
 275 553 l 5,8,-1
 140 553 l 5,9,-1
 140 213.119140625 l 5,10,-1
 275 213.119140625 l 5,11,-1
 275 309 l 5,12,-1
 357 309 l 5,13,-1
 357 213.119140625 l 5,14,-1
 357 146.119140625 l 5,15,-1
 357 146 l 5,16,-1
 275 146 l 5,17,-1
 275 146.119140625 l 5,18,-1
 140 146.119140625 l 5,19,-1
 140 146 l 5,20,-1
 70 146 l 5,21,-1
 70 146.119140625 l 5,22,-1
 70 213.119140625 l 5,23,-1
 70 553 l 5,0,-1
EndSplineSet
EndChar

StartChar: guilsinglright
Encoding: 8250 8250 187
Width: 427
GlyphClass: 1
Flags: W
LayerCount: 3
Fore
SplineSet
355 553 m 1,0,-1
 355 620 l 1,1,-1
 285 620 l 1,2,-1
 150 620 l 1,3,-1
 68 620 l 1,4,-1
 68 553 l 1,5,-1
 68 457 l 1,6,-1
 150 457 l 1,7,-1
 150 553 l 1,8,-1
 285 553 l 1,9,-1
 285 213.119140625 l 1,10,-1
 150 213.119140625 l 1,11,-1
 150 309 l 1,12,-1
 68 309 l 1,13,-1
 68 213.119140625 l 1,14,-1
 68 146.119140625 l 1,15,-1
 68 146 l 1,16,-1
 150 146 l 1,17,-1
 150 146.119140625 l 1,18,-1
 285 146.119140625 l 1,19,-1
 285 146 l 1,20,-1
 355 146 l 1,21,-1
 355 146.119140625 l 1,22,-1
 355 213.119140625 l 1,23,-1
 355 553 l 1,0,-1
EndSplineSet
EndChar

StartChar: uni2070
Encoding: 8304 8304 188
Width: 602
GlyphClass: 1
Flags: W
LayerCount: 3
Fore
SplineSet
519 624 m 0,0,1
 537 581 537 581 537 532 c 0,2,3
 537 482 537 482 518.5 438.5 c 128,-1,4
 500 395 500 395 468 363 c 128,-1,5
 436 331 436 331 393 312.5 c 128,-1,6
 350 294 350 294 301 294 c 0,7,8
 251 294 251 294 207.5 313 c 128,-1,9
 164 332 164 332 132.5 364 c 128,-1,10
 101 396 101 396 83 439.5 c 128,-1,11
 65 483 65 483 65 532 c 0,12,13
 65 583 65 583 83.5 625 c 128,-1,14
 102 667 102 667 134 697 c 128,-1,15
 166 727 166 727 209 744 c 128,-1,16
 252 761 252 761 301 761 c 0,17,18
 372 761 372 761 431 725 c 128,-1,19
 490 689 490 689 519 624 c 0,0,1
446 467 m 0,20,21
 457 498 457 498 457 528 c 0,22,23
 457 566 457 566 445 594 c 128,-1,24
 433 622 433 622 411 641.5 c 128,-1,25
 389 661 389 661 359.5 670.5 c 128,-1,26
 330 680 330 680 294 680 c 0,27,28
 260 680 260 680 232 668.5 c 128,-1,29
 204 657 204 657 184.5 636.5 c 128,-1,30
 165 616 165 616 154.5 588.5 c 128,-1,31
 144 561 144 561 144 528 c 0,32,33
 144 498 144 498 154.5 469.5 c 128,-1,34
 165 441 165 441 185 418 c 0,35,36
 211 392 211 392 241.5 383 c 128,-1,37
 272 374 272 374 307 374 c 0,38,39
 330 374 330 374 351.5 380.5 c 128,-1,40
 373 387 373 387 392 399 c 128,-1,41
 411 411 411 411 425 428 c 128,-1,42
 439 445 439 445 446 467 c 0,20,21
EndSplineSet
Validated: 1
EndChar

StartChar: Euro
Encoding: 8364 8364 189
Width: 939
GlyphClass: 1
Flags: W
LayerCount: 3
Fore
SplineSet
77 474 m 1,0,-1
 148 474 l 1,1,2
 161 539 161 539 194.5 590.5 c 128,-1,3
 228 642 228 642 275.5 677.5 c 128,-1,4
 323 713 323 713 381.5 732 c 128,-1,5
 440 751 440 751 504 751 c 2,6,-1
 912 751 l 1,7,-1
 827 620 l 1,8,-1
 504 620 l 2,9,10
 432 620 432 620 374.5 581.5 c 128,-1,11
 317 543 317 543 294 474 c 1,12,-1
 737 474 l 1,13,-1
 705 426 l 1,14,-1
 275 426 l 1,15,-1
 272 402 l 2,16,17
 271 396 271 396 271 389.5 c 128,-1,18
 271 383 271 383 271 377 c 0,19,20
 271 354 271 354 274 331 c 1,21,-1
 645 331 l 1,22,-1
 614 283 l 1,23,-1
 291 283 l 1,24,25
 303 248 303 248 324 220 c 128,-1,26
 345 192 345 192 372.5 172 c 128,-1,27
 400 152 400 152 433.5 141.5 c 128,-1,28
 467 131 467 131 504 131 c 2,29,-1
 853 131 l 1,30,-1
 853 0 l 1,31,-1
 504 0 l 2,32,33
 439 0 439 0 381 20.5 c 128,-1,34
 323 41 323 41 276.5 78.5 c 128,-1,35
 230 116 230 116 197 168 c 128,-1,36
 164 220 164 220 150 283 c 1,37,-1
 63 283 l 1,38,-1
 76 331 l 1,39,-1
 142 331 l 1,40,41
 140 344 140 344 139 357 c 128,-1,42
 138 370 138 370 138 383 c 0,43,44
 138 405 138 405 141 426 c 1,45,-1
 63 426 l 1,46,-1
 77 474 l 1,0,-1
EndSplineSet
Validated: 1
EndChar

StartChar: less
Encoding: 60 60 190
Width: 427
GlyphClass: 1
Flags: W
LayerCount: 3
Fore
SplineSet
70 553 m 5,0,-1
 70 620 l 5,1,-1
 140 620 l 5,2,-1
 275 620 l 5,3,-1
 357 620 l 5,4,-1
 357 553 l 5,5,-1
 357 457 l 5,6,-1
 275 457 l 5,7,-1
 275 553 l 5,8,-1
 140 553 l 5,9,-1
 140 213.119140625 l 5,10,-1
 275 213.119140625 l 5,11,-1
 275 309 l 5,12,-1
 357 309 l 5,13,-1
 357 213.119140625 l 5,14,-1
 357 146.119140625 l 5,15,-1
 357 146 l 5,16,-1
 275 146 l 5,17,-1
 275 146.119140625 l 5,18,-1
 140 146.119140625 l 5,19,-1
 140 146 l 5,20,-1
 70 146 l 5,21,-1
 70 146.119140625 l 5,22,-1
 70 213.119140625 l 5,23,-1
 70 553 l 5,0,-1
EndSplineSet
EndChar

StartChar: greater
Encoding: 62 62 191
Width: 427
GlyphClass: 1
Flags: W
LayerCount: 3
Fore
SplineSet
355 553 m 1,0,-1
 355 620 l 1,1,-1
 285 620 l 1,2,-1
 150 620 l 1,3,-1
 68 620 l 1,4,-1
 68 553 l 1,5,-1
 68 457 l 1,6,-1
 150 457 l 1,7,-1
 150 553 l 1,8,-1
 285 553 l 1,9,-1
 285 213.119140625 l 1,10,-1
 150 213.119140625 l 1,11,-1
 150 309 l 1,12,-1
 68 309 l 1,13,-1
 68 213.119140625 l 1,14,-1
 68 146.119140625 l 1,15,-1
 68 146 l 1,16,-1
 150 146 l 1,17,-1
 150 146.119140625 l 1,18,-1
 285 146.119140625 l 1,19,-1
 285 146 l 1,20,-1
 355 146 l 1,21,-1
 355 146.119140625 l 1,22,-1
 355 213.119140625 l 1,23,-1
 355 553 l 1,0,-1
EndSplineSet
EndChar

StartChar: asciicircum
Encoding: 94 94 192
Width: 577
GlyphClass: 1
Flags: W
LayerCount: 3
Fore
SplineSet
120 706 m 1,0,-1
 53 706 l 1,1,-1
 53 636 l 1,2,-1
 53 501 l 1,3,-1
 53 419 l 1,4,-1
 120 419 l 1,5,-1
 216 419 l 1,6,-1
 216 501 l 1,7,-1
 120 501 l 1,8,-1
 120 636 l 1,9,-1
 459.880859375 636 l 1,10,-1
 459.880859375 501 l 1,11,-1
 364 501 l 1,12,-1
 364 419 l 1,13,-1
 459.880859375 419 l 1,14,-1
 526.880859375 419 l 1,15,-1
 527 419 l 1,16,-1
 527 501 l 1,17,-1
 526.880859375 501 l 1,18,-1
 526.880859375 636 l 1,19,-1
 527 636 l 1,20,-1
 527 706 l 1,21,-1
 526.880859375 706 l 1,22,-1
 459.880859375 706 l 1,23,-1
 120 706 l 1,0,-1
1073 462 m 1025,24,-1
EndSplineSet
EndChar

StartChar: quotedbl
Encoding: 34 34 193
Width: 464
GlyphClass: 1
Flags: W
LayerCount: 3
Fore
SplineSet
247 390 m 1,0,-1
 388 390 l 1,1,-1
 388 189 l 1,2,-1
 247 189 l 1,3,-1
 247 390 l 1,0,-1
61 648 m 1,4,-1
 205 648 l 1,5,-1
 205 453 l 1,6,-1
 61 453 l 1,7,-1
 61 648 l 1,4,-1
EndSplineSet
Validated: 1
EndChar

StartChar: asciitilde
Encoding: 126 126 194
Width: 544
Flags: W
LayerCount: 3
Fore
SplineSet
60.7880859375 258.078125 m 1,0,1
 34 289 34 289 44 322 c 1,2,3
 50 390 50 390 107.5 401 c 1,4,5
 142.510346922 408.103548651 142.510346922 408.103548651 156 316 c 16,6,7
 156 319 156 319 157.458333333 318 c 0,8,9
 192 294 192 294 183.708333333 354 c 0,10,11
 177 402 177 402 220 402 c 0,12,13
 254 402 254 402 286 370 c 0,14,15
 330 326 330 326 343 423 c 0,16,17
 346 447 346 447 368.796875 386 c 0,18,19
 372.465579923 380.623187881 372.465579923 380.623187881 391 335 c 0,20,21
 404 303 404 303 396 300 c 0,22,23
 441 320 441 320 486 340 c 1,24,25
 505 308 505 308 505 308 c 1,26,27
 486 289 486 289 372.241210938 243.5078125 c 0,28,29
 371 243 371 243 353.465820312 252.297851562 c 0,30,31
 336 261 336 261 332.623046875 289.655273438 c 0,32,33
 323 372 323 372 308.40625 316.7578125 c 0,34,35
 277 196 277 196 261.46875 253.030273438 c 0,36,37
 243.983959127 319.060577433 243.983959127 319.060577433 247 320 c 0,38,39
 186 301 186 301 193 268 c 0,40,41
 198 243 198 243 148.309570312 256.692382812 c 0,42,43
 136 260 136 260 126 272 c 8,44,45
 126 272 126 272 101.412109375 317.490234375 c 1,46,47
 66 312 66 312 60.7880859375 258.078125 c 1,0,1
EndSplineSet
EndChar
